<svg width="550" height="774" viewBox="0 0 550 774" fill="none" xmlns="http://www.w3.org/2000/svg">
<g clip-path="url(#clip0_220_1252)">
<path d="M309.395 234.725H181.184L161.361 207.58H329.352L309.395 234.725ZM183.463 230.241H307.116L320.477 212.064H170.182L183.454 230.241H183.463Z" fill="#FFAB4B"/>
<path d="M266.986 342.717H223.663L218.314 230.241H272.361L266.986 342.717ZM227.943 338.233H262.706L267.659 234.725H223.025L227.943 338.233Z" fill="#FFAB4B"/>
<path d="M329.343 620.272H161.361L181.184 593.127H309.395L329.352 620.272H329.343ZM170.182 615.789H320.477L307.116 597.611H183.463L170.191 615.789H170.182Z" fill="#FFAB4B"/>
<path d="M272.361 597.611H218.314L223.663 485.135H266.986L272.361 597.611ZM223.017 593.127H267.65L262.697 489.619H227.934L223.017 593.127Z" fill="#FFAB4B"/>
<path d="M247.685 139.693L223.286 115.309L247.685 90.9253L272.065 115.309L247.685 139.693ZM229.63 115.309L247.685 133.343L265.721 115.309L247.685 97.2746L229.63 115.309Z" fill="#FFAB4B"/>
<path d="M0.0996094 53.7625L3.26721 60.0758L4.5863 58.7665L5.10675 58.2464L9.60241 53.7625H0.0996094ZM394.488 109.032V106.79H389.993V109.032C389.993 109.812 390.011 110.556 390.038 111.273C390.056 111.632 390.073 111.982 390.1 112.332C390.109 112.394 390.109 112.457 390.118 112.511C390.118 112.61 390.127 112.708 390.136 112.807C390.154 113.004 390.172 113.193 390.19 113.381L392.424 113.166L394.65 112.959C394.542 111.722 394.488 110.43 394.488 109.032ZM9.24348 412.28L8.57945 411.626H2.23527L57.6279 466.984V460.635L9.24348 412.28ZM487.722 413.868L486.133 412.28L484.554 413.859L438.395 459.981L437.731 460.644V466.984L489.301 415.446L487.722 413.868ZM439.974 668.735C439.221 668.735 438.467 668.753 437.731 668.789C436.789 668.825 435.865 668.896 434.958 668.995L434.043 669.094C433.63 669.138 433.235 669.192 432.858 669.255C432.697 669.273 432.544 669.3 432.392 669.318C431.889 669.399 431.396 669.479 430.92 669.578C430.893 669.578 430.875 669.587 430.848 669.587L431.279 671.793L431.701 673.99C432.643 673.82 433.612 673.667 434.617 673.56C436.304 673.335 438.108 673.228 439.974 673.228H442.218V668.735H439.974ZM430.158 674.304L429.727 672.107L429.296 669.901C429.296 669.901 429.224 669.91 429.179 669.928C428.946 669.964 428.713 670.017 428.471 670.071L428.085 670.17C427.789 670.233 427.501 670.304 427.295 670.367C426.326 670.618 425.482 670.869 424.711 671.129H424.702L424.19 671.309L423.122 672.376L422.916 671.748C422.844 671.766 422.781 671.784 422.719 671.811C422.557 671.856 422.396 671.919 422.234 671.981C422.225 671.981 422.225 671.99 422.216 671.99C421.749 672.17 421.274 672.349 420.807 672.555C420.798 672.564 420.78 672.564 420.771 672.573C420.529 672.663 420.296 672.77 420.071 672.86C419.659 673.04 419.255 673.219 418.86 673.416L419.82 675.443L419.892 675.595L419.183 676.313L418.959 675.855L417.981 673.838C417.442 674.098 416.895 674.367 416.365 674.663C415.666 675.03 414.975 675.425 414.311 675.837L415.468 677.757L416.635 679.676C417.191 679.335 417.747 679.021 418.295 678.725C418.833 678.429 419.38 678.142 419.928 677.882H419.937L419.73 677.452L420.637 677.156L420.78 677.47C421.032 677.353 421.283 677.236 421.534 677.129C421.579 677.111 421.615 677.093 421.651 677.075C421.938 676.95 422.225 676.824 422.512 676.707H422.521C422.97 676.519 423.419 676.349 423.867 676.169C424.011 676.115 424.163 676.053 424.307 675.999V675.972L426.093 675.398C427.358 674.986 428.686 674.627 430.158 674.304ZM414.75 678.205L413.646 676.25C413.646 676.25 413.584 676.286 413.548 676.304C413.449 676.358 413.341 676.42 413.207 676.51H413.18C412.857 676.716 412.561 676.914 412.265 677.111L411.304 677.792L410.811 678.133L412.157 679.936L413.494 681.729C414.248 681.191 415.037 680.662 415.845 680.151L414.75 678.205ZM411.43 680.474L410.093 678.662C410.093 678.662 410.066 678.68 410.057 678.689C409.833 678.851 409.626 679.012 409.402 679.174H409.393C408.783 679.64 408.298 680.034 407.913 680.375C407.697 680.555 407.473 680.743 407.257 680.94C406.988 681.164 406.728 681.407 406.45 681.649C406.118 681.936 405.804 682.241 405.499 682.537C405.337 682.689 405.185 682.841 404.978 683.039L404.906 683.101C404.817 683.191 404.736 683.281 404.655 683.371C404.61 683.415 404.565 683.46 404.53 683.505L406.172 685.03L407.814 686.545C408.953 685.406 410.174 684.312 411.457 683.281C411.888 682.94 412.318 682.599 412.758 682.276L411.43 680.474ZM401.165 690.93L399.352 689.603C399.262 689.72 399.181 689.836 399.101 689.953L398.993 690.096C398.903 690.222 398.822 690.348 398.742 690.473C398.733 690.482 398.724 690.482 398.724 690.491C398.482 690.841 398.239 691.199 398.024 691.54L397.934 691.684C397.835 691.827 397.737 691.98 397.647 692.132L399.567 693.298L401.479 694.464C401.802 693.962 402.125 693.486 402.448 692.993L402.681 692.67C402.78 692.527 402.878 692.392 402.968 692.249L401.165 690.93ZM95.9711 694.957L94.6251 695.692L94.6879 695.791L96.007 694.993L95.9711 694.957ZM94.1585 693.137L93.3778 693.666C93.5573 693.944 93.7457 694.24 93.9611 694.589L94.9571 693.935L94.1585 693.137ZM92.1844 691.953C92.2292 692.025 92.2831 692.096 92.3279 692.159L92.3908 692.24L92.8933 691.881L92.633 691.621L92.1844 691.953ZM88.6758 687.711C88.7745 687.819 88.8732 687.917 88.9629 688.025L89.0257 688.097C89.4206 688.509 89.7795 688.931 90.1654 689.388C90.5243 689.818 90.8832 690.258 91.2691 690.742L91.5383 690.518L87.5631 686.545C87.94 686.931 88.3168 687.325 88.6758 687.711ZM228.786 744.352L200.87 716.444H105.268V715.655C105.268 715.493 105.259 715.341 105.25 715.207C105.232 714.884 105.214 714.552 105.169 714.229C105.133 713.736 105.079 713.243 105.016 712.785C104.927 712.077 104.828 711.368 104.711 710.669C104.648 710.256 104.577 709.835 104.496 709.413C104.442 709.117 104.379 708.812 104.325 708.57C104.272 708.31 104.209 708.041 104.146 707.754C104.083 707.458 104.02 707.162 103.948 706.866C103.922 706.741 103.895 706.624 103.868 706.526C103.724 705.898 103.545 705.252 103.284 704.427C103.15 703.979 102.988 703.405 102.773 702.831C102.701 702.589 102.629 702.347 102.54 702.122C102.441 701.835 102.342 701.557 102.252 701.333C102.109 700.939 101.965 700.562 101.822 700.23C101.678 699.836 101.517 699.459 101.373 699.127C101.194 698.679 100.996 698.248 100.817 697.881C100.709 697.62 100.592 697.36 100.458 697.109C100.233 696.625 100 696.141 99.74 695.665C99.4977 695.19 99.2464 694.724 98.9503 694.213C98.8336 694.006 98.717 693.8 98.6362 693.657C98.6093 693.612 98.5914 693.576 98.5644 693.54C98.5196 693.45 98.4657 693.352 98.4119 693.262L98.2863 693.02C98.1876 692.868 98.0978 692.715 97.9991 692.572C97.9812 692.536 97.9542 692.5 97.9363 692.464C97.8645 692.365 97.8017 692.258 97.7389 692.159C97.5235 691.827 97.3171 691.495 97.0928 691.164L96.707 690.563C96.4736 690.231 96.2493 689.926 96.025 689.612L95.7827 689.271H95.7737C95.4776 688.85 95.1366 688.375 94.7418 687.908C94.3649 687.424 93.979 686.958 93.6022 686.509C93.1355 685.953 92.7317 685.487 92.3279 685.057C92.2113 684.922 92.0857 684.787 91.96 684.653C91.6549 684.321 91.3319 683.98 90.9999 683.658L90.7576 683.388C90.4256 683.048 90.0846 682.725 89.7526 682.411L89.5283 682.205C89.5283 682.205 89.5013 682.187 89.4924 682.169C89.4116 682.106 89.3398 682.043 89.2591 681.963H89.2501C88.7117 681.46 88.1733 680.985 87.6349 680.537C87.6349 680.537 87.6259 680.528 87.6259 680.519C87.4913 680.402 87.3567 680.295 87.2221 680.187C86.8721 679.882 86.5222 679.595 86.1632 679.308L85.5441 678.806H85.4902C85.1223 678.528 84.7454 678.25 84.3686 677.99C84.0904 677.775 83.7943 677.568 83.4892 677.371L82.3316 676.609C82.2329 676.546 82.1432 676.492 82.0355 676.429L81.8919 676.34C81.5958 676.16 81.2997 675.972 81.0753 675.846C80.8151 675.685 80.5459 675.533 80.2498 675.362C79.7652 675.084 79.2717 674.815 78.7692 674.546C78.491 674.394 78.2128 674.241 77.9257 674.107C77.7911 674.026 77.6565 673.963 77.5129 673.891L77.4321 673.856C77.1181 673.685 76.795 673.533 76.472 673.398C76.0054 673.165 75.5388 672.959 75.0632 672.753C74.0492 672.322 73.1429 671.963 72.3173 671.676C71.1598 671.255 69.9214 670.869 68.4049 670.448C68.1268 670.376 67.8486 670.313 67.5884 670.251C67.373 670.188 67.1487 670.143 66.9333 670.089L65.9731 669.874L56.1832 667.56L55.3935 667.381L51.6965 666.511L51.5619 666.475L51.6965 666.547L55.3935 668.583L55.6627 668.735H55.3846L53.1412 668.798V673.228H56.1832C56.3806 673.237 56.5691 673.246 56.7665 673.246L56.8383 671.004C57.251 671.022 57.6728 671.04 58.0766 671.058L57.924 673.282C57.9868 673.291 58.0586 673.3 58.1304 673.309L58.4265 673.326L58.7945 671.111C58.8752 671.12 58.956 671.12 59.0367 671.129C59.27 671.147 59.5033 671.165 59.7367 671.192C60.0148 671.21 60.2751 671.246 60.5443 671.273L60.3648 673.506L60.6071 673.533L60.6968 672.788V673.533H60.7686V673.56C61.8274 673.685 62.6889 673.82 63.5234 673.963C63.6042 673.981 63.676 673.999 63.6939 673.999L64.6002 674.178C64.6002 674.178 64.6271 674.187 64.6451 674.187H64.7438L64.7976 674.205L64.9322 674.232C65.004 674.25 65.0848 674.268 65.1655 674.286L65.2373 674.304C65.4078 674.34 65.5783 674.385 65.7398 674.412C65.7937 674.43 65.8565 674.439 65.9103 674.456L66.5295 674.618L67.2833 674.806C67.3909 674.842 67.4986 674.869 67.6063 674.896C67.6871 674.923 67.7768 674.941 67.8576 674.968L68.2075 675.075C68.7639 675.237 69.3202 675.407 69.8586 675.586C70.2714 675.721 70.6842 675.873 71.079 676.008C72.2545 676.438 73.43 676.932 74.5786 677.461L75.8169 678.062C76.1041 678.205 76.3912 678.357 76.6604 678.501C77.1091 678.743 77.5667 678.985 78.0423 679.263C78.2577 679.389 78.4731 679.514 78.7602 679.685C79.0204 679.837 79.2807 679.999 79.5409 680.16L79.7293 680.277C80.2588 680.617 80.7882 680.967 81.3176 681.344L81.3984 681.389C81.3984 681.389 81.4343 681.415 81.4522 681.424C81.542 681.487 81.6407 681.55 81.7304 681.613L82.1342 681.909C82.3047 682.043 82.4842 682.169 82.6098 682.259C82.9418 682.519 83.2738 682.77 83.6058 683.03C83.9737 683.317 84.3416 683.613 84.6916 683.918C84.6916 683.918 84.6916 683.927 84.7006 683.927C84.7006 683.927 84.7036 683.93 84.7096 683.936C85.2121 684.366 85.7146 684.805 86.2081 685.254C86.6568 685.675 87.1144 686.115 87.5541 686.545C87.931 686.931 88.3079 687.325 88.6668 687.711C88.7655 687.819 88.8642 687.917 88.954 688.025L89.0168 688.097C89.4116 688.509 89.7705 688.931 90.1564 689.388C90.5153 689.818 90.8743 690.258 91.2601 690.742C91.5652 691.137 91.8703 691.549 92.1754 691.953C92.2203 692.025 92.2741 692.096 92.319 692.159L92.3818 692.24C92.6779 692.661 92.9651 693.083 93.2612 693.513L93.3689 693.666C93.5483 693.944 93.7368 694.24 93.9521 694.589C94.1406 694.894 94.329 695.199 94.5085 695.504V695.522C94.5533 695.576 94.5803 695.63 94.6162 695.692L94.679 695.791L95.9981 694.993L96.016 695.011L94.7418 695.899C94.8405 696.06 94.9392 696.239 95.0559 696.455C95.3071 696.885 95.5314 697.316 95.7737 697.764C95.9891 698.185 96.1955 698.607 96.4019 699.037L96.4467 699.127C96.5365 699.306 96.6262 699.495 96.7339 699.746C96.9044 700.096 97.0479 700.436 97.2274 700.867C97.362 701.181 97.4966 701.486 97.6312 701.853C97.7748 702.185 97.9094 702.526 98.053 702.921C98.1337 703.136 98.2145 703.36 98.2952 703.593L98.3311 703.701C98.385 703.835 98.4298 703.988 98.4747 704.131L98.5285 704.302C98.699 704.768 98.8426 705.243 98.9952 705.763C99.1836 706.364 99.3451 706.974 99.4977 707.602L101.687 707.064C101.705 707.162 101.732 707.261 101.75 707.36C101.822 707.629 101.885 707.907 101.938 708.185C102.01 708.454 102.073 708.732 102.118 709.01C102.181 709.288 102.235 709.566 102.288 709.844C102.36 710.229 102.432 710.624 102.495 711.018C102.602 711.691 102.701 712.373 102.782 713.054C102.845 713.521 102.899 713.987 102.934 714.453C102.97 714.749 102.988 715.045 103.006 715.341C103.024 715.44 103.024 715.547 103.033 715.655C103.051 715.915 103.069 716.184 103.078 716.444L100.889 716.462V720.946H199.003L200.439 722.381L231.2 753.114L232.788 751.526L234.367 749.939L228.777 744.352H228.786ZM392.38 715.054L390.145 714.848C390.145 714.848 390.136 714.866 390.136 714.875C390.118 715.081 390.1 715.278 390.091 715.485C390.091 715.529 390.082 715.565 390.091 715.61C390.082 715.664 390.082 715.727 390.082 715.78V715.807C390.064 716.014 390.056 716.229 390.038 716.444H294.498L246.096 764.817L244.516 766.413L247.567 769.462L247.693 769.579L247.81 769.462L296.356 720.946H394.488V718.704C394.488 717.771 394.506 716.884 394.56 715.987L392.496 715.861H394.56V715.924C394.56 715.924 394.569 715.906 394.569 715.888V715.745C394.587 715.583 394.596 715.422 394.614 715.26L392.38 715.054Z" fill="#FFAB4B"/>
<path d="M442.218 365.262V154.544H439.974C438.027 154.544 436.277 154.436 434.59 154.212C426.236 153.225 418.34 149.943 411.744 144.733C411.322 144.392 410.901 144.042 410.461 143.674C410.021 143.298 409.582 142.903 409.16 142.518C408.711 142.105 408.262 141.684 407.814 141.226C407.374 140.787 406.943 140.329 406.522 139.89C406.1 139.433 405.696 138.975 405.283 138.473C404.88 138.007 404.485 137.523 404.108 137.047C402.439 134.913 400.967 132.644 399.72 130.267C399.513 129.882 399.316 129.496 399.128 129.129C398.858 128.555 398.589 127.972 398.329 127.407C398.078 126.824 397.835 126.241 397.611 125.667L397.539 125.479C397.45 125.254 397.369 125.03 397.288 124.815L397.252 124.707C397.171 124.519 397.109 124.331 397.037 124.107L396.803 123.434C396.696 123.129 396.606 122.824 396.516 122.519C396.193 121.461 395.897 120.358 395.637 119.255C395.493 118.636 395.368 117.999 395.242 117.354C395.125 116.735 395.027 116.089 394.928 115.408C394.883 115.103 394.847 114.798 394.811 114.457C394.749 113.982 394.695 113.498 394.65 113.013L392.424 113.22L390.19 113.435C390.172 113.246 390.154 113.058 390.136 112.861C390.154 113.049 390.172 113.237 390.181 113.417C390.235 113.955 390.289 114.484 390.352 114.968C390.388 115.345 390.441 115.722 390.495 116.053C390.585 116.762 390.702 117.488 390.836 118.179C390.962 118.887 391.105 119.587 391.267 120.277C391.554 121.479 391.868 122.672 392.218 123.829C392.326 124.169 392.433 124.51 392.55 124.869L392.792 125.55C392.873 125.819 392.963 126.071 393.062 126.322C393.151 126.582 393.25 126.842 393.349 127.093L393.429 127.29C393.681 127.936 393.941 128.573 394.228 129.227C394.506 129.846 394.793 130.474 395.108 131.11C395.323 131.541 395.538 131.962 395.754 132.366C397.118 134.958 398.742 137.469 400.572 139.809C400.994 140.347 401.425 140.876 401.838 141.352C402.241 141.845 402.681 142.347 403.246 142.948C403.704 143.441 404.171 143.926 404.628 144.383C405.113 144.876 405.615 145.351 406.118 145.818C406.593 146.248 407.069 146.679 407.607 147.136C408.047 147.504 408.487 147.871 408.944 148.239C416.204 153.97 424.89 157.584 434.034 158.669C435.218 158.821 436.448 158.92 437.731 158.983V367.118L484.554 413.913L438.395 460.034L437.731 460.698V668.843C436.78 668.887 435.856 668.959 434.958 669.049C434.653 669.085 434.366 669.121 434.07 669.156C433.666 669.201 433.262 669.255 432.858 669.309C432.464 669.372 432.069 669.434 431.683 669.497C431.423 669.533 431.171 669.578 430.92 669.632C430.893 669.632 430.875 669.641 430.848 669.641L430.714 669.668C430.238 669.757 429.772 669.847 429.296 669.955C429.26 669.964 429.224 669.964 429.179 669.982C427.573 670.34 426.111 670.735 424.711 671.183H424.702L424.19 671.363L423.122 672.43L422.916 671.802C422.844 671.82 422.781 671.838 422.719 671.865C422.548 671.928 422.387 671.99 422.216 672.053C421.758 672.232 421.292 672.412 420.807 672.609C420.798 672.618 420.78 672.618 420.771 672.627C420.143 672.896 419.524 673.165 418.86 673.47L419.82 675.497L419.892 675.649L419.183 676.367L418.959 675.909L417.981 673.892C417.442 674.152 416.895 674.421 416.365 674.717C415.692 675.084 415.01 675.479 414.311 675.891L414.032 676.053C413.898 676.133 413.772 676.214 413.646 676.304C413.611 676.322 413.584 676.34 413.548 676.358C413.512 676.376 413.485 676.403 413.449 676.42C412.722 676.878 412.004 677.353 411.304 677.846L410.811 678.187L410.775 678.214C410.542 678.384 410.317 678.546 410.093 678.716C410.084 678.725 410.066 678.734 410.057 678.743C409.097 679.461 408.164 680.214 407.257 680.994C406.36 681.774 405.49 682.59 404.655 683.424C404.61 683.469 404.565 683.514 404.53 683.559C404.305 683.774 404.081 683.998 403.866 684.223L403.713 684.375C403.713 684.375 403.659 684.438 403.623 684.465L402.986 685.119V685.164C402.843 685.326 402.69 685.496 402.537 685.666C402.125 686.133 401.721 686.608 401.326 687.101C401.191 687.263 401.048 687.433 400.949 687.568C400.662 687.908 400.402 688.258 400.133 688.617C399.854 688.949 399.603 689.307 399.352 689.657C399.262 689.774 399.181 689.89 399.101 690.007L398.742 690.527C398.742 690.527 398.724 690.536 398.724 690.545C398.482 690.895 398.239 691.253 398.024 691.594L397.934 691.738C397.835 691.881 397.737 692.034 397.647 692.186L397.512 692.401C397.378 692.634 397.234 692.859 397.1 693.092C396.947 693.334 396.795 693.585 396.696 693.773C396.57 693.998 396.436 694.222 396.337 694.41C396.113 694.805 395.888 695.199 395.7 695.567C395.592 695.773 395.493 695.97 395.386 696.195L395.197 696.58C395.063 696.849 394.937 697.118 394.847 697.325L394.758 697.504C394.659 697.692 394.569 697.881 394.47 698.078C394.3 698.455 394.138 698.84 394.004 699.163C393.797 699.629 393.609 700.087 393.421 700.571C393.259 700.992 393.097 701.423 392.954 701.835C392.81 702.239 392.667 702.652 392.532 703.073L392.353 703.593C392.317 703.719 392.272 703.862 392.245 703.997C392.003 704.75 391.796 705.476 391.608 706.221C391.536 706.436 391.482 706.651 391.437 706.857L391.393 707.046C391.33 707.297 391.267 707.557 391.213 707.817L391.186 707.952C391.078 708.418 390.98 708.875 390.899 709.342C390.809 709.799 390.729 710.256 390.657 710.687C390.531 711.404 390.441 712.122 390.361 712.803C390.289 713.314 390.235 713.826 390.199 714.301L390.145 714.902L392.38 715.108L394.614 715.314V715.296L394.668 714.677C394.695 714.256 394.749 713.825 394.811 713.368C394.883 712.722 394.973 712.086 395.081 711.431C395.152 711.01 395.233 710.588 395.305 710.158C395.386 709.745 395.466 709.351 395.565 708.929L395.592 708.777C395.646 708.561 395.691 708.337 395.745 708.131L395.798 707.916C395.825 707.781 395.861 707.647 395.906 707.512L395.942 707.369C396.113 706.669 396.31 705.988 396.543 705.288L396.615 705.019C396.633 704.947 396.651 704.876 396.669 704.804L396.777 704.508C396.902 704.113 397.046 703.728 397.189 703.315C397.324 702.93 397.468 702.544 397.611 702.176C397.764 701.764 397.934 701.369 398.132 700.921C398.257 700.598 398.401 700.275 398.544 699.961C398.616 699.809 398.688 699.665 398.76 699.522L398.894 699.253C399.002 699.011 399.119 698.777 399.235 698.535L399.415 698.159C399.504 697.997 399.585 697.827 399.684 697.63C399.863 697.289 400.052 696.948 400.258 696.58C400.357 696.401 400.465 696.222 400.599 695.979C400.689 695.818 400.779 695.657 400.886 695.504L400.94 695.414C401.075 695.19 401.209 694.966 401.344 694.742L401.398 694.652C401.398 694.652 401.461 694.563 401.479 694.518C401.802 694.015 402.125 693.54 402.448 693.047L402.681 692.724C402.78 692.581 402.878 692.446 402.968 692.303C403.193 691.998 403.417 691.693 403.695 691.325C403.937 691.02 404.171 690.706 404.458 690.357C404.556 690.231 404.664 690.096 404.826 689.899C405.176 689.469 405.544 689.038 405.885 688.644C406.109 688.393 406.342 688.141 406.576 687.89L407.473 687.442V686.949C407.589 686.832 407.706 686.716 407.814 686.599C408.953 685.46 410.174 684.366 411.457 683.335C411.888 682.985 412.318 682.653 412.758 682.321C412.974 682.16 413.198 681.998 413.422 681.837L413.494 681.783C414.248 681.245 415.037 680.716 415.845 680.205H415.854C416.015 680.097 416.186 679.999 416.356 679.891L416.635 679.73C417.191 679.389 417.747 679.075 418.295 678.779C418.833 678.483 419.38 678.196 419.928 677.936H419.937L420.78 677.524C421.032 677.407 421.283 677.29 421.534 677.183C421.579 677.165 421.615 677.147 421.651 677.129C421.938 677.003 422.225 676.878 422.512 676.761H422.521C422.979 676.573 423.436 676.394 423.867 676.223C424.011 676.169 424.163 676.107 424.307 676.053C424.899 675.847 425.491 675.649 426.093 675.452C427.358 675.039 428.686 674.681 430.158 674.358C430.615 674.25 431.073 674.161 431.486 674.08L431.701 674.044C432.643 673.874 433.612 673.721 434.617 673.614C436.304 673.389 438.108 673.282 439.974 673.282H442.218V462.554L489.965 414.836V412.98L442.218 365.262ZM394.56 716.041V715.915H392.496L394.56 716.041ZM234.376 749.993L228.786 744.406L202.306 717.951H100.898V721H199.012L200.448 722.435L231.209 753.168L244.516 766.467L246.096 764.871L247.684 763.283L234.376 749.993ZM55.3935 668.789H53.1412V673.219L55.3846 673.282C55.6538 673.282 55.923 673.282 56.1832 673.291V670.035C55.923 670.026 55.6538 670.026 55.3935 670.026V668.789ZM55.3935 668.636V668.789H55.6627L55.3935 668.636ZM55.3935 464.805L51.6965 461.111V666.601L55.3935 668.636V464.805ZM422.916 671.802L423.122 672.43L424.19 671.363C423.777 671.497 423.356 671.641 422.916 671.802ZM418.86 673.47L417.981 673.892L418.959 675.909L419.183 676.367L419.892 675.649L419.82 675.497L418.86 673.47ZM55.3935 668.636L55.6627 668.789H55.3935V670.026C55.6538 670.026 55.923 670.026 56.1832 670.035V465.595L55.3935 464.805V668.636ZM0.0996094 53.8163V774H495.268V53.8163H0.0996094ZM4.5863 769.516V58.8204L5.10675 58.3002H247.576L199.012 106.834H100.889V109.076C100.889 109.417 100.889 109.758 100.88 110.09C100.862 110.753 100.835 111.408 100.79 112.063V112.242C100.763 112.52 100.736 112.807 100.709 113.085V113.255C100.655 113.65 100.619 114.045 100.557 114.493C100.521 114.798 100.485 115.103 100.431 115.462C100.386 115.757 100.341 116.053 100.287 116.34L100.269 116.466C100.242 116.681 100.207 116.896 100.162 117.103L100.135 117.264C100.108 117.452 100.063 117.641 100.027 117.829L99.9912 117.999C99.9284 118.385 99.8387 118.762 99.74 119.174C99.6592 119.524 99.5605 119.883 99.4618 120.241L99.39 120.573C99.372 120.654 99.3541 120.735 99.3182 120.887C99.2823 121.022 99.2464 121.147 99.2105 121.273C99.1657 121.416 99.1208 121.569 99.0849 121.685C98.9862 122.062 98.8785 122.43 98.7619 122.788C98.6542 123.138 98.5465 123.497 98.4119 123.873C98.1786 124.555 97.9184 125.245 97.5953 126.044C97.4158 126.492 97.2274 126.931 97.012 127.398C96.5634 128.429 96.0609 129.469 95.5225 130.501L95.0917 130.931V131.281C94.9302 131.568 94.7687 131.855 94.5892 132.16C94.32 132.617 94.0508 133.065 93.7727 133.487L93.4317 134.007C93.2791 134.231 93.1356 134.455 92.983 134.68L92.8305 134.904C92.7407 135.047 92.642 135.182 92.5164 135.352C92.3638 135.567 92.2023 135.792 92.0139 136.034C91.6819 136.482 91.3498 136.922 91.0178 137.343C90.8473 137.558 90.6679 137.774 90.4884 137.989L90.2551 138.285C89.8603 138.751 89.4475 139.217 88.9809 139.729C88.6309 140.132 88.2271 140.545 87.7156 141.056C87.5541 141.226 87.3836 141.397 87.2131 141.549L87.1054 141.657C86.9439 141.827 86.7734 141.989 86.5581 142.186C86.2978 142.437 86.0286 142.679 85.7594 142.912L85.6876 142.984C85.4454 143.217 85.1941 143.432 84.9159 143.666C84.4403 144.069 83.9737 144.464 83.4353 144.876C83.2469 145.029 83.0495 145.181 82.7982 145.369C82.4842 145.612 82.1611 145.845 81.8291 146.078L80.7254 146.84C80.5369 146.975 80.3395 147.1 80.1331 147.226C79.7024 147.504 79.2717 147.764 78.823 148.042C78.5 148.239 78.1769 148.427 77.8539 148.607L77.1181 149.01C76.7861 149.19 76.454 149.369 76.1579 149.522L75.8618 149.674C75.5029 149.853 75.135 150.024 74.7222 150.221C74.6683 150.257 74.6055 150.284 74.5517 150.311L74.3543 150.4C74.3094 150.418 74.2735 150.436 74.2287 150.454L74.0312 150.553C73.8966 150.616 73.762 150.669 73.6364 150.723L73.3762 150.84C73.1518 150.938 72.9275 151.028 72.6942 151.118L70.1188 152.086C69.7958 152.212 69.4638 152.32 69.1228 152.418L69.0151 152.454C68.9344 152.49 68.8536 152.517 68.7818 152.535L68.6921 152.571C68.5306 152.615 68.369 152.66 68.1806 152.723C68.0101 152.768 67.8396 152.813 67.6512 152.858L67.2294 152.974C67.0499 153.028 66.8705 153.082 66.682 153.127C66.0808 153.288 65.4796 153.423 64.8425 153.557C64.6361 153.602 64.4208 153.638 64.1964 153.683L64.1067 153.701C63.9272 153.736 63.7388 153.772 63.5593 153.808L63.4247 153.826C63.0119 153.916 62.5902 153.979 62.1684 154.032L62.0518 154.05C61.8454 154.086 61.63 154.122 61.4147 154.14L61.2442 154.158C61.1096 154.176 60.975 154.194 60.8404 154.212H60.7417C59.943 154.328 59.1175 154.4 58.265 154.445C57.3856 154.508 56.4434 154.544 55.3846 154.544H53.1412V365.262L6.71299 411.68L6.0669 412.325L5.41185 412.989V414.845L51.6965 461.102V666.601L55.3935 668.636V668.789H53.1412V673.228L55.3846 673.282C55.6538 673.282 55.923 673.282 56.1832 673.291V459.245L10.8228 413.913L57.6279 367.118V158.974C57.942 158.974 58.2471 158.947 58.5342 158.92C59.4585 158.875 60.3827 158.794 61.298 158.669C61.4775 158.651 61.648 158.633 61.8903 158.597C62.1774 158.57 62.4646 158.525 62.7876 158.471C63.2811 158.409 63.7926 158.328 64.2682 158.238L64.3759 158.211C64.5912 158.176 64.8156 158.131 65.0309 158.086C65.3001 158.041 65.5604 157.987 65.7847 157.933C66.4757 157.799 67.1666 157.637 67.8306 157.467C68.046 157.404 68.2614 157.342 68.4767 157.279L68.7459 157.207C68.9972 157.144 69.2395 157.081 69.4458 157.019C69.6522 156.965 69.8586 156.902 70.065 156.83C70.1996 156.794 70.3432 156.75 70.4778 156.696C70.8995 156.57 71.3123 156.436 71.6623 156.301L72.416 156.032H72.766L73.1249 155.772L74.3902 155.279C74.6504 155.171 74.9106 155.064 75.1888 154.938L75.4131 154.839C75.6016 154.759 75.79 154.678 75.9515 154.597L76.0502 154.553C76.1579 154.508 76.2656 154.463 76.3643 154.409C76.4899 154.355 76.6066 154.301 76.6874 154.257C77.0732 154.068 77.4591 153.88 77.8449 153.692L78.1859 153.53C78.5448 153.342 78.8948 153.145 79.2537 152.956L79.837 152.642C79.9088 152.598 79.9896 152.553 80.0613 152.508C80.4382 152.302 80.8241 152.077 81.183 151.853C81.6317 151.575 82.0804 151.306 82.529 151.019C82.8072 150.84 83.0943 150.66 83.3277 150.49L84.3955 149.755C84.7724 149.495 85.1582 149.208 85.4813 148.966C85.7325 148.777 85.9838 148.58 86.1991 148.401C86.7465 147.988 87.2759 147.549 87.8413 147.073C88.1553 146.804 88.4604 146.535 88.7655 146.248C89.0706 145.97 89.3757 145.701 89.627 145.45C89.8513 145.244 90.0756 145.029 90.291 144.813C90.5153 144.598 90.7397 144.383 90.9012 144.204C91.4575 143.666 91.9331 143.163 92.319 142.715C92.7766 142.222 93.2343 141.702 93.7009 141.146L93.9611 140.841C94.1585 140.598 94.347 140.365 94.5444 140.114C94.9123 139.648 95.2802 139.164 95.6032 138.715C95.7827 138.482 95.9711 138.231 96.1237 138.016C96.2942 137.792 96.4467 137.576 96.5454 137.424C96.6082 137.334 96.6621 137.245 96.7159 137.155C96.8774 136.931 97.021 136.706 97.1736 136.473L97.5056 135.971C97.8466 135.46 98.1696 134.922 98.4568 134.42C98.699 134.016 98.9323 133.613 99.1657 133.2L99.2733 133.003C99.2733 133.003 99.3003 132.958 99.3092 132.931L99.5784 132.429C100.144 131.344 100.664 130.267 101.113 129.218C101.346 128.698 101.571 128.187 101.759 127.703C102.1 126.869 102.396 126.088 102.647 125.353C102.791 124.941 102.934 124.51 103.06 124.089C103.177 123.685 103.302 123.282 103.428 122.824C103.437 122.788 103.446 122.761 103.455 122.726L103.509 122.573C103.572 122.349 103.634 122.125 103.67 121.963C103.715 121.811 103.742 121.649 103.778 121.479L103.805 121.398C103.913 120.986 104.02 120.582 104.101 120.214C104.236 119.685 104.334 119.228 104.406 118.798C104.469 118.511 104.523 118.224 104.568 117.937C104.621 117.668 104.666 117.39 104.702 117.121C104.774 116.762 104.828 116.412 104.864 116.107C104.927 115.731 104.98 115.345 105.007 115.049C105.079 114.565 105.124 114.08 105.169 113.587V113.48C105.214 113.166 105.241 112.861 105.259 112.547C105.268 112.466 105.268 112.386 105.268 112.305C105.294 111.973 105.312 111.641 105.321 111.318H200.87L247.684 64.5329L294.498 111.318H390.038H390.047C390.056 111.677 390.082 112.027 390.1 112.377C390.109 112.439 390.109 112.502 390.118 112.556C390.118 112.655 390.127 112.753 390.136 112.852C390.154 113.04 390.172 113.229 390.181 113.408C390.235 113.946 390.289 114.475 390.352 114.959C390.388 115.336 390.441 115.713 390.495 116.044C390.585 116.753 390.702 117.479 390.836 118.17C390.962 118.878 391.105 119.578 391.267 120.268C391.554 121.47 391.868 122.663 392.218 123.82C392.326 124.16 392.433 124.501 392.55 124.86L392.792 125.541C392.873 125.81 392.963 126.062 393.062 126.313C393.151 126.573 393.25 126.833 393.349 127.084L393.429 127.281C393.681 127.927 393.941 128.564 394.228 129.218C394.506 129.837 394.793 130.465 395.108 131.102C395.323 131.532 395.538 131.953 395.754 132.357C397.118 134.949 398.742 137.46 400.572 139.8C400.994 140.338 401.425 140.868 401.838 141.343C402.241 141.836 402.681 142.338 403.246 142.939C403.704 143.432 404.171 143.917 404.628 144.374C405.113 144.867 405.615 145.342 406.118 145.809C406.593 146.239 407.069 146.67 407.607 147.127C408.047 147.495 408.487 147.862 408.944 148.23C416.204 153.961 424.89 157.575 434.034 158.66C435.218 158.812 436.448 158.911 437.731 158.974V367.109L484.554 413.904L438.395 460.025L437.731 460.689V668.834C436.78 668.878 435.856 668.95 434.958 669.04C434.653 669.076 434.366 669.112 434.07 669.148C433.666 669.192 433.262 669.246 432.858 669.3C432.464 669.363 432.069 669.426 431.683 669.488C431.423 669.524 431.171 669.569 430.92 669.623C430.893 669.623 430.875 669.632 430.848 669.632L430.714 669.659C430.238 669.748 429.772 669.838 429.296 669.946C429.26 669.955 429.224 669.955 429.179 669.973C427.573 670.331 426.111 670.726 424.711 671.174H424.702L424.19 671.354C423.777 671.488 423.356 671.632 422.916 671.793C422.844 671.811 422.781 671.829 422.719 671.856C422.548 671.919 422.387 671.981 422.216 672.044C421.758 672.224 421.292 672.403 420.807 672.6C420.798 672.609 420.78 672.609 420.771 672.618C420.143 672.887 419.524 673.156 418.86 673.461L417.981 673.883C417.442 674.143 416.895 674.412 416.365 674.708C415.692 675.075 415.01 675.47 414.311 675.882L414.032 676.044C413.898 676.125 413.772 676.205 413.646 676.295C413.611 676.313 413.584 676.331 413.548 676.349C413.512 676.367 413.485 676.394 413.449 676.412C412.722 676.869 412.004 677.344 411.304 677.837L410.811 678.178L410.775 678.205C410.542 678.375 410.317 678.537 410.093 678.707C410.084 678.716 410.066 678.725 410.057 678.734C409.097 679.452 408.164 680.205 407.257 680.985C406.36 681.765 405.49 682.581 404.655 683.415C404.61 683.46 404.565 683.505 404.53 683.55C404.305 683.765 404.081 683.989 403.866 684.214L403.713 684.366C403.713 684.366 403.659 684.429 403.623 684.456L402.986 685.11V685.155C402.843 685.317 402.69 685.487 402.537 685.657C402.125 686.124 401.721 686.599 401.326 687.092C401.191 687.254 401.048 687.424 400.949 687.559C400.662 687.899 400.402 688.249 400.133 688.608C399.854 688.94 399.603 689.298 399.352 689.648C399.262 689.765 399.181 689.881 399.101 689.998L398.742 690.518C398.742 690.518 398.724 690.527 398.724 690.536C398.482 690.886 398.239 691.244 398.024 691.585L397.934 691.729C397.835 691.872 397.737 692.025 397.647 692.177L397.512 692.392C397.378 692.625 397.234 692.85 397.1 693.083C396.947 693.325 396.795 693.576 396.696 693.764C396.57 693.989 396.436 694.213 396.337 694.401C396.113 694.796 395.888 695.19 395.7 695.558C395.592 695.764 395.493 695.961 395.386 696.186L395.197 696.571C395.063 696.84 394.937 697.109 394.847 697.316L394.758 697.495C394.659 697.683 394.569 697.872 394.47 698.069C394.3 698.446 394.138 698.831 394.004 699.154C393.797 699.62 393.609 700.078 393.421 700.562C393.259 700.984 393.097 701.414 392.954 701.826C392.81 702.23 392.667 702.643 392.532 703.064L392.353 703.584C392.317 703.71 392.272 703.853 392.245 703.988C392.003 704.741 391.796 705.467 391.608 706.212C391.536 706.427 391.482 706.642 391.437 706.849L391.393 707.037C391.33 707.288 391.267 707.548 391.213 707.808L391.186 707.943C391.078 708.409 390.98 708.866 390.899 709.333C390.809 709.79 390.729 710.247 390.657 710.678C390.531 711.395 390.441 712.113 390.361 712.794C390.289 713.305 390.235 713.817 390.199 714.292L390.145 714.893C390.127 715.09 390.109 715.296 390.1 715.511C390.091 715.556 390.091 715.61 390.091 715.655C390.082 715.709 390.082 715.772 390.082 715.825V715.852C390.064 716.076 390.056 716.283 390.047 716.507H294.498L247.693 763.283H247.684L234.376 749.984L228.786 744.397L202.306 717.942H100.898V720.991H199.012L200.448 722.426L231.209 753.159L244.516 766.458L247.567 769.507H4.5863V769.516ZM490.782 769.516H247.81L296.356 721H394.488V718.758C394.488 717.825 394.506 716.937 394.56 716.041V715.978C394.56 715.978 394.569 715.96 394.569 715.942V715.798C394.587 715.637 394.596 715.476 394.614 715.314V715.296L394.668 714.677C394.695 714.256 394.749 713.825 394.811 713.368C394.883 712.722 394.973 712.086 395.081 711.431C395.152 711.01 395.233 710.588 395.305 710.158C395.386 709.745 395.466 709.351 395.565 708.929L395.592 708.777C395.646 708.561 395.691 708.337 395.745 708.131L395.798 707.916C395.825 707.781 395.861 707.647 395.906 707.512L395.942 707.369C396.113 706.669 396.31 705.988 396.543 705.288L396.615 705.019C396.633 704.947 396.651 704.876 396.669 704.804L396.777 704.508C396.902 704.113 397.046 703.728 397.189 703.315C397.324 702.93 397.468 702.544 397.611 702.176C397.764 701.764 397.934 701.369 398.132 700.921C398.257 700.598 398.401 700.275 398.544 699.961C398.616 699.809 398.688 699.665 398.76 699.522L398.894 699.253C399.002 699.011 399.119 698.777 399.235 698.535L399.415 698.159C399.504 697.997 399.585 697.827 399.684 697.63C399.863 697.289 400.052 696.948 400.258 696.58C400.357 696.401 400.465 696.222 400.599 695.979C400.689 695.818 400.779 695.657 400.886 695.504L400.94 695.414C401.075 695.19 401.209 694.966 401.344 694.742L401.398 694.652C401.398 694.652 401.461 694.563 401.479 694.518C401.802 694.015 402.125 693.54 402.448 693.047L402.681 692.724C402.78 692.581 402.878 692.446 402.968 692.303C403.193 691.998 403.417 691.693 403.695 691.325C403.937 691.02 404.171 690.706 404.458 690.357C404.556 690.231 404.664 690.096 404.826 689.899C405.176 689.469 405.544 689.038 405.885 688.644C406.109 688.393 406.342 688.141 406.576 687.89L407.473 687.442V686.949C407.589 686.832 407.706 686.716 407.814 686.599C408.953 685.46 410.174 684.366 411.457 683.335C411.888 682.985 412.318 682.653 412.758 682.321C412.974 682.16 413.198 681.998 413.422 681.837L413.494 681.783C414.248 681.245 415.037 680.716 415.845 680.205H415.854C416.015 680.097 416.186 679.999 416.356 679.891L416.635 679.73C417.191 679.389 417.747 679.075 418.295 678.779C418.833 678.483 419.38 678.196 419.928 677.936H419.937L420.78 677.524C421.032 677.407 421.283 677.29 421.534 677.183C421.579 677.165 421.615 677.147 421.651 677.129C421.938 677.003 422.225 676.878 422.512 676.761H422.521C422.979 676.573 423.436 676.394 423.867 676.223C424.011 676.169 424.163 676.107 424.307 676.053C424.899 675.847 425.491 675.649 426.093 675.452C427.358 675.039 428.686 674.681 430.158 674.358C430.615 674.25 431.073 674.161 431.486 674.08L431.701 674.044C432.643 673.874 433.612 673.721 434.617 673.614C436.304 673.389 438.108 673.282 439.974 673.282H442.218V462.554L489.965 414.836V412.98L442.218 365.262V154.544H439.974C438.027 154.544 436.277 154.436 434.59 154.212C426.236 153.225 418.34 149.943 411.744 144.733C411.322 144.392 410.901 144.042 410.461 143.674C410.021 143.298 409.582 142.903 409.16 142.518C408.711 142.105 408.262 141.684 407.814 141.226C407.374 140.787 406.943 140.329 406.522 139.89C406.1 139.433 405.696 138.975 405.283 138.473C404.88 138.007 404.485 137.523 404.108 137.047C402.439 134.913 400.967 132.644 399.72 130.267C399.513 129.882 399.316 129.496 399.128 129.129C398.858 128.555 398.589 127.972 398.329 127.407C398.078 126.824 397.835 126.241 397.611 125.667L397.539 125.479C397.45 125.254 397.369 125.03 397.288 124.815L397.252 124.707C397.171 124.519 397.109 124.331 397.037 124.107L396.803 123.434C396.696 123.129 396.606 122.824 396.516 122.519C396.193 121.461 395.897 120.358 395.637 119.255C395.493 118.636 395.368 117.999 395.242 117.354C395.125 116.735 395.027 116.089 394.928 115.408C394.883 115.103 394.847 114.798 394.811 114.457C394.749 113.982 394.695 113.498 394.65 113.013C394.542 111.776 394.488 110.484 394.488 109.085V106.843H296.365L247.792 58.3092H490.791V769.525L490.782 769.516ZM392.496 715.915L394.56 716.041V715.915H392.496ZM442.218 365.262V154.544H439.974C438.027 154.544 436.277 154.436 434.59 154.212C426.236 153.225 418.34 149.943 411.744 144.733C411.322 144.392 410.901 144.042 410.461 143.674C410.021 143.298 409.582 142.903 409.16 142.518C408.711 142.105 408.262 141.684 407.814 141.226C407.374 140.787 406.943 140.329 406.522 139.89C406.1 139.433 405.696 138.975 405.283 138.473C404.88 138.007 404.485 137.523 404.108 137.047C402.439 134.913 400.967 132.644 399.72 130.267C399.513 129.882 399.316 129.496 399.128 129.129C398.858 128.555 398.589 127.972 398.329 127.407C398.078 126.824 397.835 126.241 397.611 125.667L397.539 125.479C397.45 125.254 397.369 125.03 397.288 124.815L397.252 124.707C397.171 124.519 397.109 124.331 397.037 124.107L396.803 123.434C396.696 123.129 396.606 122.824 396.516 122.519C396.193 121.461 395.897 120.358 395.637 119.255C395.493 118.636 395.368 117.999 395.242 117.354C395.125 116.735 395.027 116.089 394.928 115.408C394.883 115.103 394.847 114.798 394.811 114.457C394.749 113.982 394.695 113.498 394.65 113.013L392.424 113.22L390.19 113.435C390.163 113.148 390.136 112.861 390.118 112.565C390.118 112.664 390.127 112.762 390.136 112.861C390.154 113.049 390.172 113.237 390.181 113.417C390.235 113.955 390.289 114.484 390.352 114.968C390.388 115.345 390.441 115.722 390.495 116.053C390.585 116.762 390.702 117.488 390.836 118.179C390.962 118.887 391.105 119.587 391.267 120.277C391.554 121.479 391.868 122.672 392.218 123.829C392.326 124.169 392.433 124.51 392.55 124.869L392.792 125.55C392.873 125.819 392.963 126.071 393.062 126.322C393.151 126.582 393.25 126.842 393.349 127.093L393.429 127.29C393.681 127.936 393.941 128.573 394.228 129.227C394.506 129.846 394.793 130.474 395.108 131.11C395.323 131.541 395.538 131.962 395.754 132.366C397.118 134.958 398.742 137.469 400.572 139.809C400.994 140.347 401.425 140.876 401.838 141.352C402.241 141.845 402.681 142.347 403.246 142.948C403.704 143.441 404.171 143.926 404.628 144.383C405.113 144.876 405.615 145.351 406.118 145.818C406.593 146.248 407.069 146.679 407.607 147.136C408.047 147.504 408.487 147.871 408.944 148.239C416.204 153.97 424.89 157.584 434.034 158.669C435.218 158.821 436.448 158.92 437.731 158.983V367.118L484.554 413.913L438.395 460.034L437.731 460.698V668.843C436.78 668.887 435.856 668.959 434.958 669.049C434.653 669.085 434.366 669.121 434.07 669.156C433.666 669.201 433.262 669.255 432.858 669.309C432.464 669.372 432.069 669.434 431.683 669.497C431.423 669.533 431.171 669.578 430.92 669.632C430.893 669.632 430.875 669.641 430.848 669.641L430.714 669.668C430.238 669.757 429.772 669.847 429.296 669.955C429.26 669.964 429.224 669.964 429.179 669.982C427.573 670.34 426.111 670.735 424.711 671.183H424.702L424.19 671.363L423.122 672.43L422.916 671.802C422.844 671.82 422.781 671.838 422.719 671.865C422.548 671.928 422.387 671.99 422.216 672.053C421.758 672.232 421.292 672.412 420.807 672.609C420.798 672.618 420.78 672.618 420.771 672.627C420.143 672.896 419.524 673.165 418.86 673.47L419.82 675.497L419.892 675.649L419.183 676.367L418.959 675.909L417.981 673.892C417.442 674.152 416.895 674.421 416.365 674.717C415.692 675.084 415.01 675.479 414.311 675.891L414.032 676.053C413.898 676.133 413.772 676.214 413.646 676.304C413.611 676.322 413.584 676.34 413.548 676.358C413.512 676.376 413.485 676.403 413.449 676.42C412.722 676.878 412.004 677.353 411.304 677.846L410.811 678.187L410.775 678.214C410.542 678.384 410.317 678.546 410.093 678.716C410.084 678.725 410.066 678.734 410.057 678.743C409.097 679.461 408.164 680.214 407.257 680.994C406.36 681.774 405.49 682.59 404.655 683.424C404.61 683.469 404.565 683.514 404.53 683.559C404.305 683.774 404.081 683.998 403.866 684.223L403.713 684.375C403.713 684.375 403.659 684.438 403.623 684.465L402.986 685.119V685.164C402.843 685.326 402.69 685.496 402.537 685.666C402.125 686.133 401.721 686.608 401.326 687.101C401.191 687.263 401.048 687.433 400.949 687.568C400.662 687.908 400.402 688.258 400.133 688.617C399.854 688.949 399.603 689.307 399.352 689.657C399.262 689.774 399.181 689.89 399.101 690.007L398.742 690.527C398.742 690.527 398.724 690.536 398.724 690.545C398.482 690.895 398.239 691.253 398.024 691.594L397.934 691.738C397.835 691.881 397.737 692.034 397.647 692.186L397.512 692.401C397.378 692.634 397.234 692.859 397.1 693.092C396.947 693.334 396.795 693.585 396.696 693.773C396.57 693.998 396.436 694.222 396.337 694.41C396.113 694.805 395.888 695.199 395.7 695.567C395.592 695.773 395.493 695.97 395.386 696.195L395.197 696.58C395.063 696.849 394.937 697.118 394.847 697.325L394.758 697.504C394.659 697.692 394.569 697.881 394.47 698.078C394.3 698.455 394.138 698.84 394.004 699.163C393.797 699.629 393.609 700.087 393.421 700.571C393.259 700.992 393.097 701.423 392.954 701.835C392.81 702.239 392.667 702.652 392.532 703.073L392.353 703.593C392.317 703.719 392.272 703.862 392.245 703.997C392.003 704.75 391.796 705.476 391.608 706.221C391.536 706.436 391.482 706.651 391.437 706.857L391.393 707.046C391.33 707.297 391.267 707.557 391.213 707.817L391.186 707.952C391.078 708.418 390.98 708.875 390.899 709.342C390.809 709.799 390.729 710.256 390.657 710.687C390.531 711.404 390.441 712.122 390.361 712.803C390.289 713.314 390.235 713.826 390.199 714.301L390.145 714.902L392.38 715.108L394.614 715.314V715.296L394.668 714.677C394.695 714.256 394.749 713.825 394.811 713.368C394.883 712.722 394.973 712.086 395.081 711.431C395.152 711.01 395.233 710.588 395.305 710.158C395.386 709.745 395.466 709.351 395.565 708.929L395.592 708.777C395.646 708.561 395.691 708.337 395.745 708.131L395.798 707.916C395.825 707.781 395.861 707.647 395.906 707.512L395.942 707.369C396.113 706.669 396.31 705.988 396.543 705.288L396.615 705.019C396.633 704.947 396.651 704.876 396.669 704.804L396.777 704.508C396.902 704.113 397.046 703.728 397.189 703.315C397.324 702.93 397.468 702.544 397.611 702.176C397.764 701.764 397.934 701.369 398.132 700.921C398.257 700.598 398.401 700.275 398.544 699.961C398.616 699.809 398.688 699.665 398.76 699.522L398.894 699.253C399.002 699.011 399.119 698.777 399.235 698.535L399.415 698.159C399.504 697.997 399.585 697.827 399.684 697.63C399.863 697.289 400.052 696.948 400.258 696.58C400.357 696.401 400.465 696.222 400.599 695.979C400.689 695.818 400.779 695.657 400.886 695.504L400.94 695.414C401.075 695.19 401.209 694.966 401.344 694.742L401.398 694.652C401.398 694.652 401.461 694.563 401.479 694.518C401.802 694.015 402.125 693.54 402.448 693.047L402.681 692.724C402.78 692.581 402.878 692.446 402.968 692.303C403.193 691.998 403.417 691.693 403.695 691.325C403.937 691.02 404.171 690.706 404.458 690.357C404.556 690.231 404.664 690.096 404.826 689.899C405.176 689.469 405.544 689.038 405.885 688.644C406.109 688.393 406.342 688.141 406.576 687.89L407.473 687.442V686.949C407.589 686.832 407.706 686.716 407.814 686.599C408.953 685.46 410.174 684.366 411.457 683.335C411.888 682.985 412.318 682.653 412.758 682.321C412.974 682.16 413.198 681.998 413.422 681.837L413.494 681.783C414.248 681.245 415.037 680.716 415.845 680.205H415.854C416.015 680.097 416.186 679.999 416.356 679.891L416.635 679.73C417.191 679.389 417.747 679.075 418.295 678.779C418.833 678.483 419.38 678.196 419.928 677.936H419.937L420.78 677.524C421.032 677.407 421.283 677.29 421.534 677.183C421.579 677.165 421.615 677.147 421.651 677.129C421.938 677.003 422.225 676.878 422.512 676.761H422.521C422.979 676.573 423.436 676.394 423.867 676.223C424.011 676.169 424.163 676.107 424.307 676.053C424.899 675.847 425.491 675.649 426.093 675.452C427.358 675.039 428.686 674.681 430.158 674.358C430.615 674.25 431.073 674.161 431.486 674.08L431.701 674.044C432.643 673.874 433.612 673.721 434.617 673.614C436.304 673.389 438.108 673.282 439.974 673.282H442.218V462.554L489.965 414.836V412.98L442.218 365.262ZM234.376 749.993L228.786 744.406L202.306 717.951H100.898V721H199.012L200.448 722.435L231.209 753.168L244.516 766.467L246.096 764.871L247.684 763.283L234.376 749.993ZM55.3935 668.789H53.1412V673.228L55.3846 673.282C55.6538 673.282 55.923 673.282 56.1832 673.291V670.035C55.923 670.026 55.6538 670.026 55.3935 670.026V668.789ZM55.3935 668.636V668.789H55.6627L55.3935 668.636ZM55.3935 464.805L51.6965 461.111V673.201L55.5102 673.255L55.3935 464.796V464.805ZM55.3935 464.805V668.636L55.6627 668.789H55.3935V670.026C55.6538 670.026 55.923 670.026 56.1832 670.035V465.595L55.3935 464.805ZM419.82 675.497L418.86 673.47L417.981 673.892L418.959 675.909L419.183 676.367L419.892 675.649L419.82 675.497ZM422.916 671.802L423.122 672.43L424.19 671.363C423.777 671.497 423.356 671.641 422.916 671.802Z" fill="#FFAB4B"/>
<path d="M420.197 438.296L395.799 413.913L420.179 389.538L444.578 413.922L420.197 438.296ZM402.143 413.913L420.197 431.947L438.234 413.922L420.179 395.887L402.143 413.913ZM75.1711 437.364H74.2378L73.5738 436.709L50.7725 413.922L53.949 410.747L55.5463 412.325L77.4144 434.18V437.355H75.1711V437.364Z" fill="#FFAB4B"/>
<path d="M394.488 109.085V106.843H389.993V109.085C389.993 109.866 390.011 110.61 390.038 111.327C390.056 111.686 390.074 112.036 390.1 112.385C390.109 112.448 390.109 112.511 390.118 112.565C390.118 112.664 390.127 112.762 390.136 112.861C390.154 113.058 390.172 113.246 390.19 113.435L392.425 113.22L394.65 113.013C394.542 111.776 394.488 110.484 394.488 109.085ZM247.684 90.9343L223.285 115.318L247.684 139.693L272.065 115.318L247.684 90.9343ZM247.684 97.2746L265.721 115.318L247.684 133.352L229.63 115.318L247.684 97.2746ZM76.7682 433.543L75.1799 431.947L57.1345 413.922L55.5551 412.334H55.5462L53.9579 410.756L50.7813 413.931L73.5827 436.709L74.2467 437.373H77.4233V434.189L76.7682 433.543ZM9.24356 412.334L8.57953 411.68H2.23535L57.628 467.038V460.689L9.24356 412.334ZM487.722 413.922L486.134 412.334L484.554 413.913L438.395 460.034L437.731 460.698V467.038L489.301 415.5L487.722 413.922ZM56.8383 671.031L56.9011 668.816C56.6589 668.807 56.4256 668.798 56.1833 668.807C55.923 668.789 55.6628 668.789 55.3936 668.789H53.1413V673.201L55.3846 673.282C55.6538 673.282 55.923 673.282 56.1833 673.291C56.3807 673.291 56.5691 673.3 56.7665 673.3L56.8383 671.058V671.04V671.031ZM58.4715 668.887C58.3907 668.878 58.31 668.878 58.2292 668.878L58.0767 671.111L57.9241 673.336C57.9869 673.344 58.0587 673.353 58.1305 673.362L58.4266 673.38L58.7945 671.165L59.1535 668.959C58.9291 668.914 58.6958 668.887 58.4715 668.887ZM439.975 668.789C439.221 668.789 438.467 668.807 437.731 668.843C436.789 668.878 435.865 668.95 434.958 669.049L434.043 669.147C433.63 669.192 433.235 669.246 432.859 669.309C432.697 669.327 432.545 669.354 432.392 669.372C432.15 669.408 431.916 669.452 431.683 669.497C431.423 669.533 431.172 669.578 430.92 669.632C430.893 669.632 430.875 669.641 430.849 669.641L431.279 671.847L431.701 674.044C432.643 673.874 433.612 673.721 434.617 673.614C436.304 673.389 438.108 673.282 439.975 673.282H442.218V668.789H439.975ZM64.3849 669.614C63.5414 669.461 62.4288 669.264 61.2891 669.139H61.1725C61.0199 669.112 60.8584 669.103 60.7148 669.103L60.5443 671.327L60.3649 673.56L60.6072 673.587L60.6969 672.842L60.5443 673.578L60.7687 673.614C61.8275 673.739 62.689 673.874 63.5235 674.017C63.6043 674.035 63.6761 674.053 63.694 674.053L63.9991 674.107L64.4208 671.901L64.8336 669.704L64.3849 669.614ZM77.513 673.945L77.4322 673.909C77.1182 673.739 76.7951 673.587 76.4721 673.452C76.0055 673.219 75.5389 673.013 75.0633 672.806C74.0493 672.376 73.143 672.017 72.3174 671.73C71.1598 671.309 69.9215 670.923 68.405 670.502C68.1268 670.43 67.8487 670.367 67.5884 670.304C67.3731 670.242 67.1487 670.197 66.9334 670.143L65.9732 669.928C65.9104 669.91 65.8386 669.901 65.7668 669.883C65.6322 669.856 65.5066 669.838 65.363 669.82L65.0041 672.026L64.8426 673.022L64.1157 673.685L64.5734 674.187L64.6452 674.214V674.241H64.6631C65.2823 674.367 65.9104 674.51 66.5296 674.672L67.2833 674.86C67.391 674.896 67.4987 674.923 67.6064 674.95C67.6871 674.977 67.7769 674.995 67.8576 675.021L68.2076 675.129C68.764 675.291 69.3203 675.461 69.8587 675.64C70.2715 675.775 70.6843 675.927 71.0791 676.062C72.2546 676.492 73.4301 676.985 74.5787 677.515L75.817 678.115L76.8759 676.133L77.9258 674.161C77.7912 674.08 77.6566 674.017 77.513 673.945ZM430.158 674.358L429.727 672.161L429.296 669.955C429.296 669.955 429.224 669.964 429.18 669.982C428.946 670.017 428.713 670.071 428.471 670.125L428.085 670.224C427.789 670.286 427.502 670.358 427.295 670.421C426.326 670.672 425.482 670.923 424.711 671.183H424.702L424.19 671.363L423.123 672.43L422.916 671.802C422.844 671.82 422.782 671.838 422.719 671.865C422.557 671.91 422.396 671.972 422.234 672.035C422.225 672.035 422.225 672.044 422.216 672.044C421.75 672.223 421.274 672.403 420.807 672.609C420.798 672.618 420.78 672.618 420.771 672.627C420.529 672.717 420.296 672.824 420.072 672.914C419.659 673.093 419.255 673.273 418.86 673.47L419.82 675.497L419.892 675.649L419.183 676.367L418.959 675.909L417.981 673.892C417.442 674.152 416.895 674.421 416.366 674.717C415.666 675.084 414.975 675.479 414.311 675.891L415.468 677.81L416.635 679.73C417.191 679.389 417.747 679.075 418.295 678.779C418.833 678.483 419.381 678.196 419.928 677.936H419.937L419.731 677.506L420.637 677.21L420.78 677.523C421.032 677.407 421.283 677.29 421.534 677.183C421.579 677.165 421.615 677.147 421.651 677.129C421.938 677.003 422.225 676.878 422.512 676.761H422.521C422.97 676.573 423.419 676.402 423.867 676.223C424.011 676.169 424.163 676.107 424.307 676.053V676.026L426.093 675.452C427.358 675.039 428.686 674.681 430.158 674.358ZM414.75 678.259L413.647 676.304C413.647 676.304 413.584 676.34 413.548 676.358C413.449 676.411 413.342 676.474 413.207 676.564H413.18C412.857 676.77 412.561 676.967 412.265 677.165L411.305 677.846L410.811 678.187L412.157 679.99L413.494 681.783C414.248 681.245 415.037 680.716 415.845 680.205L414.75 678.259ZM87.2222 680.241C86.8722 679.936 86.5223 679.649 86.1633 679.362L85.5442 678.86H85.4903C85.1224 678.582 84.7455 678.304 84.3687 678.044C84.0905 677.828 83.7944 677.622 83.4893 677.425L82.3317 676.663C82.233 676.6 82.1433 676.546 82.0356 676.483L80.887 678.402L79.7294 680.33C80.2588 680.671 80.7883 681.021 81.3177 681.398L81.3985 681.442C81.3985 681.442 81.4344 681.469 81.4523 681.478C81.6946 681.658 81.9369 681.819 82.1343 681.963C82.3048 682.097 82.4842 682.223 82.6099 682.312C82.9419 682.572 83.2739 682.824 83.6059 683.084C83.9738 683.371 84.3417 683.666 84.6917 683.971C84.6917 683.971 84.6917 683.98 84.7007 683.98L86.1633 682.285L87.626 680.59C87.4914 680.474 87.3568 680.357 87.2132 680.241H87.2222ZM411.43 680.528L410.093 678.716C410.093 678.716 410.066 678.734 410.057 678.743C409.833 678.905 409.627 679.066 409.402 679.227H409.393C408.783 679.694 408.298 680.088 407.913 680.429C407.697 680.608 407.473 680.797 407.258 680.994C406.988 681.218 406.728 681.46 406.45 681.703C406.118 681.989 405.804 682.294 405.499 682.59C405.337 682.743 405.185 682.895 404.978 683.093L404.907 683.155C404.817 683.245 404.736 683.335 404.655 683.424C404.61 683.469 404.566 683.514 404.53 683.559L406.172 685.083L407.814 686.599C408.954 685.46 410.174 684.366 411.457 683.335C411.888 682.994 412.319 682.653 412.758 682.33L411.43 680.528ZM401.165 690.984L399.352 689.657C399.262 689.774 399.182 689.89 399.101 690.007L398.993 690.15C398.903 690.276 398.823 690.401 398.742 690.527C398.733 690.536 398.724 690.536 398.724 690.545C398.482 690.895 398.239 691.253 398.024 691.594L397.934 691.738C397.836 691.881 397.737 692.034 397.647 692.186L399.567 693.352L401.479 694.518C401.802 694.015 402.125 693.54 402.448 693.047L402.681 692.724C402.78 692.581 402.879 692.446 402.968 692.303L401.165 690.984ZM96.5096 694.715L96.5994 694.67L98.5645 693.594C98.5197 693.504 98.4658 693.406 98.412 693.316L98.2864 693.074C98.1876 692.921 98.0979 692.769 97.9992 692.625C97.9095 692.482 97.8108 692.338 97.7121 692.186L95.8546 693.406L95.3431 692.392L97.0929 691.217L96.707 690.617C96.4737 690.285 96.2494 689.98 96.0251 689.666L94.5265 690.751L94.347 690.401L95.7828 689.325H95.7738C95.4777 688.904 95.1367 688.428 94.7419 687.962L93.5933 688.895L91.1525 684.016L91 683.711L90.7577 683.442C90.4257 683.101 90.0847 682.779 89.7527 682.465L89.5283 682.259C89.5283 682.259 89.5014 682.241 89.4924 682.223C89.4117 682.16 89.3399 682.088 89.2591 682.016L87.7426 683.666H87.7337L86.2172 685.308C86.6658 685.729 87.1235 686.169 87.5632 686.599L91.5384 690.572L91.2692 690.796C91.5743 691.191 91.8794 691.603 92.1845 692.007L92.6331 691.675L92.8934 691.935L92.3908 692.294C92.687 692.715 92.9741 693.137 93.2702 693.567L93.3779 693.719L94.1586 693.19L94.9572 693.989L93.9612 694.643C94.1496 694.948 94.3381 695.253 94.5175 695.558V695.576C94.5624 695.63 94.5893 695.683 94.6252 695.746L95.9712 695.011L96.0071 695.047L96.0251 695.065L97.3352 696.374L96.5186 694.733V694.715H96.5096ZM103.285 704.481L101.149 705.145L99.0042 705.817C99.1927 706.418 99.3542 707.028 99.5067 707.656L101.696 707.118L103.868 706.579C103.724 705.952 103.545 705.306 103.285 704.481ZM228.786 744.406L200.87 716.498H103.087L100.898 716.516V721H199.012L200.448 722.435L231.209 753.168L232.797 751.58L234.377 749.993L228.786 744.406ZM392.38 715.108L390.145 714.902C390.145 714.902 390.136 714.92 390.136 714.929C390.118 715.135 390.1 715.332 390.091 715.538C390.091 715.583 390.083 715.619 390.091 715.664C390.083 715.718 390.083 715.78 390.083 715.834V715.861C390.065 716.067 390.056 716.283 390.038 716.498H294.498L246.096 764.871L244.516 766.467L247.567 769.516L247.693 769.633L247.81 769.516L296.356 721H394.488V718.758C394.488 717.825 394.506 716.937 394.56 716.041L392.496 715.915H394.56V715.978C394.56 715.978 394.569 715.96 394.569 715.942V715.798C394.587 715.637 394.596 715.476 394.614 715.314L392.38 715.108Z" fill="#FFAB4B"/>
<path d="M247.684 733.869L223.285 709.485L247.684 685.101L272.064 709.485L247.684 733.869ZM229.629 709.485L247.684 727.519L265.72 709.476L247.684 691.442L229.629 709.476V709.485Z" fill="#FFAB4B"/>
<path d="M439.984 366.212V156.803C438.073 156.803 436.189 156.696 434.331 156.454C425.322 155.396 417.084 151.835 410.345 146.481C409.897 146.123 409.448 145.764 409.017 145.387C408.551 144.993 408.093 144.58 407.644 144.168C407.169 143.728 406.693 143.28 406.235 142.814C405.769 142.356 405.32 141.89 404.88 141.415C404.432 140.93 403.992 140.437 403.579 139.935C403.158 139.442 402.745 138.939 402.341 138.428C400.609 136.213 399.066 133.837 397.747 131.326C397.531 130.922 397.325 130.519 397.118 130.106C396.831 129.514 396.553 128.913 396.284 128.312C396.015 127.703 395.763 127.093 395.521 126.474C395.405 126.169 395.279 125.855 395.171 125.541C395.081 125.317 395.001 125.084 394.92 124.842C394.839 124.609 394.758 124.376 394.678 124.142C394.57 123.82 394.471 123.497 394.373 123.174C394.023 122.053 393.718 120.923 393.457 119.766C393.305 119.111 393.17 118.448 393.045 117.775C392.919 117.112 392.811 116.43 392.721 115.757C392.668 115.417 392.623 115.076 392.587 114.735C392.524 114.233 392.47 113.731 392.425 113.22C392.291 111.856 392.237 110.475 392.237 109.085H295.432L247.694 61.3762L199.946 109.085H103.142C103.142 109.444 103.142 109.803 103.124 110.153C103.115 110.843 103.088 111.534 103.034 112.215C103.034 112.269 103.034 112.323 103.025 112.368C103.007 112.69 102.98 113.013 102.944 113.336V113.372C102.899 113.829 102.855 114.287 102.792 114.735C102.756 115.076 102.711 115.417 102.657 115.757C102.612 116.098 102.558 116.43 102.496 116.762C102.46 117.031 102.415 117.3 102.361 117.56C102.325 117.829 102.271 118.098 102.209 118.358C102.137 118.807 102.038 119.246 101.93 119.676C101.805 120.25 101.67 120.824 101.509 121.389C101.464 121.587 101.41 121.775 101.356 121.963C101.221 122.456 101.078 122.95 100.916 123.443C100.8 123.829 100.674 124.223 100.539 124.6C99.678 127.12 98.6102 129.541 97.3539 131.846C97.3539 131.846 97.3449 131.855 97.3449 131.864C97.0847 132.339 96.8155 132.805 96.5373 133.272C96.2502 133.774 95.9541 134.267 95.64 134.742C95.3798 135.155 95.1195 135.559 94.8324 135.953C94.7965 136.016 94.7606 136.07 94.7157 136.132C94.5991 136.312 94.4735 136.491 94.3389 136.671C93.8453 137.37 93.3338 138.061 92.7865 138.733C92.5262 139.074 92.257 139.406 91.9699 139.738C91.5571 140.231 91.1264 140.724 90.6777 141.199C90.256 141.684 89.8073 142.15 89.3407 142.607C89.1433 142.814 88.9369 143.02 88.7305 143.208C88.5331 143.414 88.3267 143.612 88.1203 143.8C87.8332 144.078 87.546 144.338 87.2499 144.598C86.9717 144.867 86.6846 145.118 86.3974 145.36C85.8859 145.791 85.3745 146.221 84.845 146.625C84.6207 146.804 84.3964 146.984 84.172 147.145C83.8221 147.414 83.4721 147.674 83.1221 147.916C82.7722 148.167 82.4132 148.418 82.0543 148.652C81.821 148.822 81.5787 148.974 81.3364 149.127C80.8967 149.414 80.457 149.683 80.0173 149.943C79.6584 150.167 79.2995 150.373 78.9405 150.571C78.8688 150.616 78.788 150.66 78.7072 150.705C78.6803 150.723 78.6444 150.741 78.6175 150.759C78.5906 150.768 78.5726 150.786 78.5457 150.795C78.0881 151.055 77.6215 151.306 77.1548 151.539C76.6972 151.781 76.2216 152.015 75.7371 152.23C75.6294 152.284 75.5217 152.337 75.414 152.382C75.2794 152.454 75.1448 152.508 75.0102 152.571C74.7679 152.687 74.5256 152.786 74.2834 152.893C73.9155 153.064 73.5565 153.207 73.1796 153.351C72.8207 153.503 72.4438 153.647 72.0759 153.781C72.049 153.799 72.0221 153.808 71.9952 153.808C71.6452 153.952 71.2863 154.077 70.9273 154.185C70.5504 154.328 70.1646 154.454 69.7787 154.57C69.6531 154.615 69.5275 154.66 69.4019 154.696C69.2134 154.759 69.025 154.813 68.8365 154.866C68.3161 155.028 67.7956 155.171 67.2662 155.297C66.6291 155.467 65.983 155.611 65.3369 155.745C64.8523 155.853 64.3588 155.952 63.8653 156.032C63.4076 156.122 62.941 156.194 62.4834 156.256C62.1962 156.301 61.9181 156.346 61.6309 156.373C61.4335 156.409 61.2451 156.427 61.0476 156.454C60.1772 156.57 59.3068 156.651 58.4274 156.705C57.4224 156.777 56.4174 156.803 55.3944 156.803V366.212L9.24435 412.334L7.66504 413.922L18.0472 424.297L22.5339 428.781L35.994 442.233L40.4807 446.717L53.9407 460.169L55.3944 461.622V671.031C55.6546 671.031 55.9238 671.031 56.1841 671.049C56.3994 671.04 56.6058 671.049 56.8212 671.058H56.8391C57.2519 671.076 57.6737 671.094 58.0775 671.111C58.1313 671.111 58.1851 671.12 58.239 671.12C58.3018 671.12 58.3646 671.129 58.4274 671.129C58.5082 671.129 58.5979 671.129 58.6787 671.156C58.7235 671.156 58.7594 671.165 58.7953 671.165C58.8761 671.174 58.9568 671.174 59.0376 671.183C59.2709 671.201 59.5042 671.219 59.7375 671.246C60.0157 671.264 60.2759 671.3 60.5451 671.327C60.599 671.336 60.6618 671.336 60.7156 671.345C60.8233 671.345 60.94 671.363 61.0476 671.372C62.0257 671.479 63.0038 671.641 63.9909 671.82C64.1255 671.847 64.2601 671.874 64.3947 671.901H64.4216C64.5562 671.928 64.6819 671.954 64.8165 671.981C64.8254 671.99 64.8344 671.99 64.8434 671.99L64.978 672.017C64.978 672.017 64.9959 672.017 65.0049 672.026C65.0318 672.026 65.0587 672.026 65.0946 672.044C65.1664 672.053 65.2292 672.062 65.301 672.08C65.4446 672.107 65.5882 672.134 65.7407 672.17C65.7497 672.17 65.7676 672.17 65.7766 672.179C65.9202 672.215 66.0727 672.25 66.2163 672.277C66.4855 672.34 66.7547 672.403 67.0239 672.475C67.2931 672.537 67.5623 672.6 67.8315 672.672C69.0788 673.013 70.3261 673.389 71.5465 673.838C72.4528 674.152 73.3232 674.501 74.1757 674.869C74.6333 675.066 75.091 675.264 75.5396 675.488C75.8358 675.613 76.1319 675.757 76.428 675.909C76.5536 675.972 76.6882 676.035 76.8139 676.107C76.8318 676.116 76.8587 676.125 76.8767 676.134C77.1638 676.277 77.442 676.429 77.7291 676.582C78.1958 676.833 78.6713 677.093 79.138 677.362C79.3892 677.506 79.6405 677.649 79.8828 677.802C80.2237 677.999 80.5558 678.205 80.8878 678.402C80.9057 678.42 80.9326 678.438 80.9506 678.447C81.0313 678.492 81.1031 678.537 81.1749 678.582C81.5428 678.824 81.8928 679.057 82.2607 679.299C82.5299 679.479 82.7991 679.667 83.0593 679.864C83.6067 680.241 84.1361 680.635 84.6745 681.048C84.7015 681.075 84.7284 681.102 84.7553 681.102C85.2309 681.487 85.7065 681.882 86.1731 682.285C86.7025 682.734 87.214 683.182 87.7345 683.667H87.7434C87.8511 683.765 87.9588 683.864 88.0754 683.962C88.4164 684.285 88.7843 684.626 89.1343 684.994C89.1343 684.994 89.1403 685.003 89.1522 685.021C89.5471 685.415 89.9419 685.828 90.3278 686.24C90.4444 686.366 90.5611 686.491 90.6687 686.617C91.0905 687.065 91.4853 687.523 91.8802 687.998C92.275 688.464 92.6608 688.94 93.0377 689.415C93.3877 689.827 93.6928 690.258 93.9889 690.67C94.0607 690.778 94.1414 690.886 94.2132 690.984C94.4286 691.28 94.6439 691.576 94.8593 691.89C94.9849 692.078 95.1106 692.276 95.2362 692.464C95.4426 692.778 95.649 693.101 95.8554 693.433C96.0348 693.702 96.2053 693.971 96.3758 694.249L96.4566 694.41C96.5014 694.473 96.5373 694.554 96.5732 694.625C96.5822 694.634 96.5912 694.652 96.6001 694.67L96.6809 694.805C96.7976 695.002 96.9142 695.208 97.0309 695.414C97.2821 695.863 97.5244 696.311 97.7667 696.769C98.009 697.226 98.2333 697.683 98.4487 698.15C98.5653 698.374 98.673 698.607 98.7717 698.831C98.9601 699.226 99.1306 699.611 99.2922 700.015C99.4447 700.365 99.5973 700.714 99.7319 701.073C99.8754 701.432 100.019 701.791 100.154 702.158C100.252 702.409 100.342 702.67 100.432 702.939C100.513 703.145 100.584 703.36 100.647 703.584C100.836 704.095 100.997 704.616 101.15 705.145C101.347 705.79 101.536 706.436 101.688 707.091C101.688 707.1 101.688 707.109 101.697 707.118C101.715 707.216 101.742 707.315 101.76 707.414C101.832 707.683 101.894 707.961 101.948 708.239C102.02 708.508 102.083 708.786 102.128 709.064C102.191 709.342 102.244 709.62 102.298 709.898C102.37 710.283 102.442 710.678 102.505 711.072C102.612 711.745 102.711 712.427 102.792 713.108C102.855 713.574 102.908 714.041 102.944 714.507C102.98 714.803 102.998 715.099 103.016 715.395C103.034 715.494 103.034 715.601 103.043 715.709C103.061 715.969 103.079 716.238 103.088 716.498C103.106 716.74 103.115 716.973 103.115 717.215C103.124 717.458 103.133 717.7 103.124 717.951C103.142 718.211 103.142 718.471 103.142 718.74H199.946L219.347 738.129L232.798 751.58L247.685 766.458L258.085 756.064L295.432 718.74H392.237C392.237 717.789 392.264 716.848 392.327 715.915C392.327 715.843 392.327 715.781 392.336 715.709C392.345 715.503 392.363 715.305 392.381 715.108C392.398 714.902 392.416 714.704 392.434 714.507C392.47 714.041 392.524 713.574 392.587 713.108C392.668 712.427 392.757 711.745 392.874 711.072C392.946 710.633 393.018 710.194 393.107 709.754C393.188 709.315 393.278 708.884 393.377 708.454C393.439 708.167 393.502 707.871 393.574 707.584C393.637 707.333 393.691 707.082 393.771 706.831C393.987 705.943 394.238 705.064 394.516 704.194C394.543 704.113 394.57 704.033 394.597 703.961C394.741 703.495 394.902 703.037 395.073 702.589C395.207 702.176 395.36 701.773 395.521 701.369C395.692 700.93 395.871 700.499 396.06 700.069C396.203 699.719 396.356 699.369 396.517 699.02C396.795 698.392 397.1 697.773 397.415 697.163C397.504 696.984 397.594 696.804 397.693 696.616C397.881 696.248 398.088 695.881 398.294 695.513C398.402 695.316 398.518 695.11 398.635 694.912C398.752 694.697 398.877 694.482 399.012 694.276C399.182 693.989 399.353 693.711 399.523 693.433C399.541 693.406 399.559 693.379 399.568 693.352C399.586 693.343 399.586 693.325 399.595 693.316C399.694 693.146 399.801 692.984 399.909 692.814C400.125 692.482 400.358 692.132 400.6 691.791C400.672 691.675 400.753 691.558 400.833 691.442C400.932 691.307 401.022 691.173 401.121 691.047C401.139 691.029 401.147 691.002 401.165 690.984C401.399 690.653 401.641 690.33 401.892 690.007C402.153 689.666 402.413 689.325 402.691 688.985C402.817 688.823 402.951 688.662 403.086 688.5C403.454 688.043 403.839 687.585 404.225 687.146C404.548 686.787 404.88 686.429 405.212 686.07C405.23 686.061 405.239 686.043 405.239 686.034C405.553 685.711 405.859 685.397 406.173 685.083C406.191 685.066 406.217 685.039 406.235 685.021C406.343 684.895 406.46 684.788 406.567 684.68C407.016 684.258 407.465 683.801 407.94 683.38C408.416 682.958 408.874 682.555 409.349 682.16C409.798 681.765 410.273 681.389 410.758 681.021C410.973 680.86 411.189 680.698 411.413 680.537C411.422 680.537 411.422 680.528 411.431 680.528C411.673 680.339 411.907 680.169 412.158 679.99C412.176 679.972 412.185 679.963 412.203 679.954C412.364 679.828 412.526 679.712 412.687 679.586L413.199 679.245C413.567 679.003 413.935 678.743 414.338 678.501C414.446 678.438 414.545 678.367 414.652 678.313C414.688 678.295 414.715 678.268 414.751 678.259C414.984 678.106 415.227 677.963 415.469 677.811C415.478 677.811 415.478 677.802 415.487 677.802C416.609 677.111 417.766 676.483 418.951 675.918C419.238 675.775 419.525 675.64 419.812 675.497C419.821 675.497 419.83 675.488 419.839 675.488C420.207 675.308 420.584 675.138 420.961 674.977C421.185 674.878 421.418 674.779 421.652 674.69C422.109 674.492 422.567 674.304 423.025 674.134C423.186 674.071 423.348 674.008 423.509 673.963C424.137 673.739 424.765 673.524 425.403 673.318H425.411C426.21 673.04 427.027 672.806 427.852 672.591C428.22 672.484 428.624 672.403 429.019 672.304C429.234 672.25 429.449 672.206 429.665 672.17C429.683 672.17 429.701 672.161 429.719 672.161C430.185 672.053 430.652 671.963 431.119 671.874L431.271 671.847H431.28C432.285 671.65 433.29 671.497 434.322 671.372C436.18 671.138 438.064 671.031 439.975 671.031V461.622L487.714 413.922L439.975 366.212H439.984ZM247.685 94.109L268.898 115.318L247.685 136.527L226.463 115.318L247.685 94.109ZM339.195 162.103C339.195 188.451 360.57 209.813 386.934 209.813V379.7H353.436V448.143H386.934V618.031C360.57 618.031 339.195 639.392 339.195 665.74H156.183C156.183 639.392 134.809 618.031 108.445 618.031V448.143H141.916V379.7H108.445V209.813C134.809 209.813 156.183 188.451 156.183 162.103H339.195ZM441.42 413.922L420.198 435.131L398.976 413.922L420.198 392.713L441.42 413.922ZM247.685 688.285L268.898 709.494L262.679 715.709L258.202 720.193L247.685 730.703L226.463 709.494L247.685 688.285ZM76.769 433.543L75.1807 435.131H75.1717L53.9587 413.931L55.5559 412.334L58.4274 409.465L75.1717 392.722H75.1807L96.4027 413.922L76.769 433.543Z" stroke="#FFAB4B" stroke-width="5" stroke-miterlimit="10"/>
<path d="M75.1806 438.287L50.791 413.913L75.1717 389.538L99.5703 413.922L75.1806 438.287ZM57.1442 413.913L75.1806 431.938L93.2171 413.913L75.1717 395.878L57.1442 413.904V413.913Z" fill="#FFAB4B"/>
<path d="M85.877 183.851V179.367C109.513 179.367 128.743 160.149 128.743 136.527H133.229C133.229 162.624 111.989 183.851 85.877 183.851Z" fill="#FFAB4B"/>
<path d="M409.483 186.891C383.371 186.891 362.131 165.664 362.131 139.567H366.618C366.618 163.189 385.847 182.407 409.483 182.407V186.891Z" fill="#FFAB4B"/>
<path d="M366.618 688.285H362.131C362.131 662.188 383.371 640.961 409.483 640.961V645.445C385.847 645.445 366.618 664.664 366.618 688.285Z" fill="#FFAB4B"/>
<path d="M133.229 688.285H128.743C128.743 664.664 109.513 645.445 85.877 645.445V640.961C111.989 640.961 133.229 662.188 133.229 688.285Z" fill="#FFAB4B"/>
<path d="M247.586 247.531H243.1V325.427H247.586V247.531Z" fill="#FFAB4B"/>
<path d="M247.586 502.426H243.1V580.321H247.586V502.426Z" fill="#FFAB4B"/>
<path d="M355.68 489.637H139.673V338.233H355.68V489.637ZM144.16 485.153H351.193V342.717H144.16V485.153Z" fill="#FFAB4B"/>
<path d="M495.27 751.571L496.347 752.647L497.424 751.571H495.27ZM262.563 751.571L258.077 756.055H258.095L262.581 751.571H262.563ZM18.0391 35.8715V56.0492H22.5257V40.3554H508.721V740.281L513.208 735.797V35.8715H18.0391ZM508.721 733.635V734.954L510.04 733.635H508.721Z" fill="#FFAB4B"/>
<path d="M53.9316 35.8715V40.3555H58.4183V35.8715H53.9316ZM53.9316 367.638V367.656L55.3853 366.203V366.186L53.9316 367.638ZM53.9316 35.8715V40.3555H58.4183V35.8715H53.9316ZM55.3853 156.777V156.794C56.4083 156.794 57.4133 156.768 58.4183 156.696V156.678C57.4133 156.75 56.4083 156.777 55.3853 156.777ZM53.9586 413.913H53.9496L58.4183 418.388V418.37L53.9586 413.913ZM53.9316 35.8715V40.3555H58.4183V35.8715H53.9316ZM55.3943 671.022H55.3853L55.3943 671.031C55.6545 671.031 55.9237 671.031 56.184 671.04C55.9237 671.022 55.6545 671.022 55.3943 671.022ZM53.9316 35.8715V40.3555H58.4183V35.8715H53.9316ZM58.2299 671.111C58.2927 671.12 58.3555 671.12 58.4183 671.129C58.3555 671.129 58.2927 671.111 58.2299 671.111ZM53.9316 35.8715V40.3555H58.4183V35.8715H53.9316ZM53.9316 35.8715V40.3555H58.4183V35.8715H53.9316ZM53.9316 35.8715V40.3555H58.4183V35.8715H53.9316ZM53.9316 35.8715V40.3555H58.4183V35.8715H53.9316ZM53.9316 35.8715V40.3555H58.4183V35.8715H53.9316ZM392.228 718.731H295.423L293.969 720.184H293.987L295.423 718.749H392.237C392.237 717.852 392.264 716.982 392.309 716.103C392.255 716.973 392.228 717.843 392.228 718.731ZM392.327 715.7C392.318 715.772 392.318 715.834 392.318 715.906C392.318 715.834 392.327 715.763 392.336 715.7H392.327ZM53.9316 0V22.4197H58.4183V4.48394H544.614V715.7H508.72V720.184H549.1V0H53.9316ZM493.017 720.184H495.269V715.7H493.017V720.184ZM53.9316 35.8715V40.3555H58.4183V35.8715H53.9316ZM53.9316 35.8715V40.3555H58.4183V35.8715H53.9316ZM53.9316 35.8715V40.3555H58.4183V35.8715H53.9316ZM53.9316 35.8715V40.3555H58.4183V35.8715H53.9316ZM103.034 715.7H103.025C103.061 716.202 103.088 716.704 103.106 717.206C103.097 716.704 103.07 716.202 103.034 715.7ZM103.115 717.502C103.115 717.404 103.106 717.305 103.106 717.206V717.502C103.115 717.744 103.115 717.978 103.115 718.22C103.124 718.39 103.124 718.561 103.124 718.731H103.133C103.133 718.318 103.124 717.906 103.115 717.502ZM199.937 718.731H103.133V718.749H199.937L201.373 720.184H201.391L199.937 718.731ZM53.9316 35.8715V40.3555H58.4183V35.8715H53.9316ZM53.9316 35.8715V40.3555H58.4183V35.8715H53.9316ZM53.9316 35.8715V40.3555H58.4183V35.8715H53.9316ZM53.9316 35.8715V40.3555H58.4183V35.8715H53.9316ZM53.9316 35.8715V40.3555H58.4183V35.8715H53.9316Z" fill="#FFAB4B"/>
<path d="M35.9854 17.9358V40.3555H40.472V22.4197H526.667V722.345L527.753 721.26L526.676 720.184H531.154V17.9358H35.9854ZM214.852 733.636H214.834L219.32 738.12H219.338L214.852 733.636ZM280.51 733.636L276.023 738.12H276.041L280.528 733.636H280.51ZM493.017 733.636V738.12H510.883L515.37 733.636H493.017ZM35.9854 385.574V385.592L40.472 381.108V381.09L35.9854 385.574Z" fill="#FFAB4B"/>
<path d="M57.1084 3.16566L53.9319 6.34029L42.3113 17.9537L35.9851 24.2761L24.3646 35.8895L18.0384 42.2118L4.1745 56.0672L3.26819 56.973L0.100586 53.8073L18.0384 35.8895L53.9319 0.0179358L53.9408 0L57.1084 3.16566Z" fill="#FFAB4B"/>
<path d="M529.834 719.179L495.269 753.724V750.567L493.681 748.98L525.087 717.592L526.667 719.17V719.179H529.834Z" fill="#FFAB4B"/>
</g>
<defs>
<clipPath id="clip0_220_1252">
<rect width="549" height="774" fill="white" transform="translate(0.101562)"/>
</clipPath>
</defs>
</svg>
