<svg width="376" height="856" viewBox="0 0 376 856" fill="none" xmlns="http://www.w3.org/2000/svg">
<g clip-path="url(#clip0_220_1218)">
<path d="M290.314 174.175C296.012 175.681 301.854 176.469 307.695 176.469C345.36 176.469 376 145.785 376 108.111C376 75.2405 352.957 47.3883 320.883 41.1152L338.3 23.6941V0H37.7003V23.6941L55.117 41.1152C23.0431 47.3883 0 75.2405 0 108.111C0 145.785 30.6405 176.469 68.305 176.469C74.1106 176.469 79.952 175.681 85.6859 174.175L95.2185 215.864V741.544L85.435 751.33H73.8239V766.887H85.1125V804.669L33.7941 856H342.206L290.888 804.669V766.887H302.176V751.33H290.565L280.782 741.544V215.864L290.314 174.175ZM41.284 3.58459H334.716V21.1491H41.284V3.58459ZM43.8284 24.7337H332.172L317.371 39.538L317.12 40.7209H58.8799L58.5932 39.538L43.8284 24.7337ZM88.3378 169.694L86.5101 170.232C80.5253 171.989 74.3973 172.885 68.305 172.885C32.6115 172.885 3.58368 143.814 3.58368 108.111C3.58368 76.3876 26.1967 49.6466 57.4464 44.3055H318.554C349.803 49.6466 372.416 76.3876 372.416 108.111C372.416 143.814 343.388 172.885 307.695 172.885C301.603 172.885 295.475 171.989 289.49 170.232L287.662 169.694L281.713 195.683H94.2509L88.3378 169.694ZM333.533 852.415H42.4308L88.6961 806.138H287.304L333.533 852.415ZM298.592 754.915V763.302H287.304V802.554H88.6961V763.302H77.4075V754.915H298.592ZM285.476 751.33H90.5238L98.8021 743.014V217.441H277.234V743.014L285.476 751.33ZM277.556 213.857H98.4079L95.0751 199.267H280.889L277.556 213.857Z" fill="#FFAB4B"/>
<path d="M150.479 229.163H146.896V733.765H150.479V229.163Z" fill="#FFAB4B"/>
<path d="M118.225 229.163H114.642V733.765H118.225V229.163Z" fill="#FFAB4B"/>
<path d="M67.8746 62.4435C41.5704 62.4435 20.1758 83.8435 20.1758 110.119C20.1758 136.394 41.5704 157.794 67.8746 157.794C94.1788 157.794 115.538 136.429 115.538 110.119C115.538 83.8077 94.143 62.4435 67.8746 62.4435ZM67.8746 154.209C43.5414 154.209 23.7595 134.458 23.7595 110.119C23.7595 85.7792 43.5414 66.0281 67.8746 66.0281C92.2078 66.0281 111.954 85.8151 111.954 110.119C111.954 134.422 92.172 154.209 67.8746 154.209Z" fill="#FFAB4B"/>
<path d="M68.7353 133.418C55.9058 133.418 45.4414 122.951 45.4414 110.119C45.4414 97.2858 55.9058 86.8188 68.7353 86.8188C81.5649 86.8188 92.0293 97.2858 92.0293 110.119C92.0293 122.951 81.5649 133.418 68.7353 133.418ZM68.7353 90.4033C57.8768 90.4033 49.0251 99.2573 49.0251 110.119C49.0251 120.98 57.8768 129.834 68.7353 129.834C79.5939 129.834 88.4456 120.98 88.4456 110.119C88.4456 99.2573 79.5939 90.4033 68.7353 90.4033Z" fill="#FFAB4B"/>
<path d="M229.105 229.163H225.521V733.765H229.105V229.163Z" fill="#FFAB4B"/>
<path d="M189.792 229.163H186.208V733.765H189.792V229.163Z" fill="#FFAB4B"/>
<path d="M261.358 229.163H257.774V733.765H261.358V229.163Z" fill="#FFAB4B"/>
<path d="M308.125 62.4435C281.857 62.4435 260.462 83.8435 260.462 110.119C260.462 136.394 281.857 157.794 308.125 157.794C334.393 157.794 355.788 136.429 355.788 110.119C355.788 83.8077 334.429 62.4435 308.125 62.4435ZM308.125 154.209C283.828 154.209 264.046 134.458 264.046 110.119C264.046 85.7792 283.828 66.0281 308.125 66.0281C332.422 66.0281 352.204 85.8151 352.204 110.119C352.204 134.422 332.458 154.209 308.125 154.209Z" fill="#FFAB4B"/>
<path d="M247.847 154.209H128.152V157.794H247.847V154.209Z" fill="#FFAB4B"/>
<path d="M247.847 62.4435H128.152V66.0281H247.847V62.4435Z" fill="#FFAB4B"/>
<path d="M307.265 133.418C294.435 133.418 283.971 122.951 283.971 110.119C283.971 97.2858 294.435 86.8188 307.265 86.8188C320.094 86.8188 330.559 97.2858 330.559 110.119C330.559 122.951 320.094 133.418 307.265 133.418ZM307.265 90.4033C296.406 90.4033 287.554 99.2573 287.554 110.119C287.554 120.98 296.406 129.834 307.265 129.834C318.123 129.834 326.975 120.98 326.975 110.119C326.975 99.2573 318.123 90.4033 307.265 90.4033Z" fill="#FFAB4B"/>
</g>
<defs>
<clipPath id="clip0_220_1218">
<rect width="376" height="856" fill="white"/>
</clipPath>
</defs>
</svg>
