<svg width="226" height="414" viewBox="0 0 226 414" fill="none" xmlns="http://www.w3.org/2000/svg">
<path d="M7.19287 332.393V333.9C7.19287 344.613 26.3186 354.049 57.1957 358.652C57.6254 358.712 58.055 358.772 58.4847 358.833C59.0543 358.913 59.6239 358.994 60.1934 359.074C61.6623 359.265 63.1512 359.456 64.6501 359.627C66.139 359.798 67.6479 359.958 69.1668 360.109C70.6856 360.26 72.2245 360.4 73.7633 360.521C75.1723 360.642 76.6012 360.742 78.0402 360.833C78.6797 360.883 79.3192 360.923 79.9687 360.953C81.0179 361.024 82.0772 361.074 83.1464 361.124C84.7252 361.204 86.314 361.265 87.9228 361.315C89.5216 361.365 91.1304 361.405 92.7492 361.426C94.368 361.456 95.9968 361.466 97.6256 361.466C99.2544 361.466 100.883 361.466 102.512 361.426C104.131 361.405 105.74 361.365 107.338 361.315C108.937 361.265 110.536 361.204 112.115 361.124C113.174 361.074 114.233 361.024 115.282 360.953C115.952 360.923 116.611 360.883 117.271 360.833C118.69 360.742 120.099 360.642 121.498 360.521C123.037 360.4 124.576 360.26 126.094 360.109C127.613 359.958 129.122 359.798 130.611 359.627C132.11 359.456 133.599 359.265 135.068 359.074C135.637 358.994 136.207 358.913 136.776 358.833L138.066 358.652C168.943 354.049 188.068 344.613 188.068 333.9V332.393H7.19287ZM136.357 355.848C124.226 357.577 111.195 358.451 97.6256 358.451C84.0557 358.451 71.0254 357.577 58.9144 355.848L58.7545 355.828C31.3349 351.889 12.419 343.819 10.3805 335.408H184.891C182.842 343.839 163.856 351.919 136.357 355.848Z" fill="#FFAB4B"/>
<path d="M138.066 413.421H127.054V371.636H103.132V413.421H92.1198V371.636H68.2076V413.421H57.1958V355.597L58.9045 355.838C71.0255 357.567 84.0558 358.451 97.6257 358.451C111.196 358.451 124.226 357.577 136.357 355.838L138.066 355.597V413.421ZM130.052 410.406H135.068V359.064C123.287 360.662 110.706 361.466 97.6257 361.466C84.5454 361.466 71.9648 360.662 60.1936 359.064V410.406H65.2098V368.621H95.1176V410.406H100.134V368.621H130.052V410.406Z" fill="#FFAB4B"/>
<path d="M40.3183 334.594C29.5263 323.951 10.4405 301.019 3.84542 267.062C1.08747 252.882 -7.2863 209.75 14.9871 185.702C17.1355 183.391 19.5737 181.24 21.942 179.16C28.4371 173.462 34.5626 168.075 35.8516 158.97C36.0315 157.674 36.1514 156.227 36.2913 154.539C36.631 150.318 37.1107 144.54 39.0692 136.912C39.8986 133.686 41.0877 130.43 43.0463 126.008C43.5559 124.863 44.1754 123.185 44.9548 121.064C50.9204 104.915 64.89 67.0989 105.57 49.4622C107.978 48.407 151.256 20.4898 179.745 1.9788L182.143 0.421143L182.053 3.29527C182.043 3.65705 180.934 39.6238 179.035 66.0236C177.496 87.469 175.378 116.843 183.492 141.535C189.567 160.006 199.21 169.06 207.714 177.049C215.618 184.466 223.072 191.47 225.461 204.404C227.929 217.8 221.863 226.372 208.583 245.164C201.868 254.671 193.504 266.499 183.342 282.95C172.92 299.823 163.127 317.198 154.224 334.594L151.556 333.217C160.499 315.751 170.332 298.305 180.794 281.362C191.006 264.821 199.4 252.952 206.135 243.416C218.915 225.337 224.751 217.086 222.513 204.946C220.304 192.998 213.519 186.626 205.665 179.25C196.892 171.02 186.959 161.684 180.644 142.479C172.34 117.225 174.478 87.5092 176.037 65.8126C177.616 43.8144 178.655 15.1435 178.955 6.07895C165.195 15.0129 109.867 50.8892 106.739 52.2358C67.2383 69.36 53.5784 106.332 47.7428 122.119C46.9434 124.29 46.3038 126.008 45.7642 127.245C43.8756 131.505 42.7365 134.621 41.9571 137.676C40.0585 145.052 39.6188 150.459 39.2691 154.8C39.1292 156.528 39.0093 158.026 38.8094 159.413C37.3705 169.623 30.5256 175.632 23.9005 181.451C21.4923 183.571 19.204 185.571 17.1655 187.772C-4.06869 210.695 4.09524 252.701 6.77324 266.499C13.2184 299.662 31.8646 322.062 42.4067 332.463L40.3083 334.614L40.3183 334.594Z" fill="#FFAB4B"/>
<path d="M143.032 303.983C133.489 318.776 122.597 327.077 112.705 332.393C110.756 333.438 108.858 334.363 107.009 335.207L103.322 333.84C104.301 333.398 105.32 332.915 106.369 332.393C116.492 327.358 129.362 318.655 139.235 304.265C139.665 303.642 140.094 302.998 140.514 302.345C145.68 294.346 161.708 266.941 151.446 250.018C149.188 246.29 146.42 244.581 143.492 242.782C139.815 240.521 136.017 238.18 133.229 231.999C129.772 224.302 130.491 217.769 131.261 210.866C131.611 207.63 131.98 204.293 131.97 200.615C131.88 180.617 115.862 162.206 109.047 155.272C110.246 167 111.635 200.394 93.3391 226.553C88.5327 233.406 83.8262 237.346 79.6593 240.813C74.0834 245.466 69.267 249.485 65.4698 259.273C60.3037 272.549 60.9931 285.965 62.3521 295.24C62.8418 298.567 63.4113 301.36 63.841 303.431C65.9195 313.57 69.6367 323.308 74.8728 332.393C74.9128 332.463 74.9528 332.534 74.9927 332.604L72.4047 334.121C72.0749 333.549 71.7451 332.976 71.4254 332.393C66.4891 323.469 62.9417 313.932 60.9032 304.044C59.3843 296.657 55.3473 277.051 62.6719 258.178C66.7589 247.656 72.0949 243.205 77.7507 238.491C81.9575 234.974 86.3143 231.346 90.8909 224.814C112.635 193.731 105.63 151.916 105.55 151.494L104.821 147.293L108.018 150.097C109.107 151.062 134.848 173.954 134.968 200.605C134.988 204.454 134.608 207.881 134.239 211.197C133.489 217.97 132.84 223.809 135.967 230.753C138.366 236.09 141.613 238.089 145.051 240.21C148.158 242.119 151.376 244.099 154.004 248.44C165.176 266.871 148.428 295.612 143.032 303.983Z" fill="#FFAB4B"/>
<path d="M139.235 304.264C129.362 318.655 116.492 327.358 106.369 332.393H74.8727C69.6366 323.308 65.9194 313.57 63.8409 303.43C63.4113 301.36 62.8417 298.566 62.3521 295.24C71.6451 289.472 79.3594 284.256 85.245 280.126C101.793 268.509 105.54 264.308 106.629 258.761C108.158 250.952 105.36 244.149 105.22 243.817C105.73 244.069 122.028 252.349 130.991 264.891C135.967 271.865 141.273 279.302 141.613 290.246C141.773 295.712 140.644 300.486 139.235 304.264Z" fill="#FFAB4B" stroke="#FFAB4B" stroke-width="3" stroke-miterlimit="10"/>
<path d="M139.235 304.265C138.106 307.29 136.787 309.691 135.797 311.319" stroke="#FFAB4B" stroke-width="3" stroke-miterlimit="10"/>
<path d="M62.3521 295.24C62.0521 295.421 61.7521 295.602 61.4521 295.793" stroke="#FFAB4B" stroke-width="3" stroke-miterlimit="10"/>
</svg>
