<svg width="206" height="414" viewBox="0 0 206 414" fill="none" xmlns="http://www.w3.org/2000/svg">
<path d="M20.0881 332.731V334.232C20.0881 344.9 39.2347 354.297 70.1454 358.88C70.5755 358.94 71.0057 359 71.4358 359.06C72.006 359.14 72.5762 359.22 73.1464 359.301C74.2268 359.441 75.3172 359.581 76.4076 359.711C77.0078 359.791 77.598 359.861 78.1982 359.921C78.2782 359.931 78.3482 359.941 78.4283 359.951C79.5586 360.081 80.689 360.201 81.8294 360.311C82.2896 360.361 82.7397 360.401 83.1999 360.441C84.3003 360.551 85.4007 360.642 86.511 360.732C87.0212 360.772 87.5314 360.812 88.0416 360.852C89.0119 360.932 89.9822 360.992 90.9626 361.062C91.6228 361.102 92.283 361.142 92.9533 361.182C94.0036 361.242 95.064 361.302 96.1244 361.352C97.4348 361.412 98.7653 361.472 100.096 361.512C100.556 361.532 101.016 361.542 101.486 361.552C102.897 361.602 104.317 361.632 105.738 361.652C107.368 361.682 108.989 361.692 110.629 361.692C112.27 361.692 113.89 361.682 115.511 361.652C116.942 361.632 118.372 361.602 119.793 361.552C120.213 361.542 120.643 361.532 121.063 361.512C122.423 361.472 123.784 361.412 125.124 361.352C126.195 361.302 127.255 361.242 128.305 361.182C128.956 361.142 129.596 361.102 130.236 361.062C131.236 361.002 132.227 360.932 133.207 360.852C133.717 360.812 134.228 360.772 134.738 360.732C135.848 360.642 136.948 360.551 138.049 360.441C138.509 360.401 138.959 360.361 139.419 360.311C140.56 360.201 141.69 360.081 142.81 359.951C142.86 359.951 142.9 359.941 142.951 359.931C143.651 359.851 144.341 359.771 145.031 359.691C146.062 359.571 147.082 359.441 148.102 359.301C148.672 359.22 149.243 359.14 149.813 359.06L151.103 358.88C182.014 354.297 201.161 344.9 201.161 334.232V332.731H20.0881ZM149.543 356.068L149.383 356.088C137.259 357.809 124.214 358.69 110.629 358.69C97.0447 358.69 84.0002 357.809 71.856 356.088C44.3265 352.175 25.3199 344.129 23.2692 335.733H197.969C195.929 344.109 176.992 352.145 149.543 356.068Z" fill="#FFAB4B"/>
<path d="M151.103 413.421H140.08V371.81H116.141V413.421H105.118V371.81H81.1693V413.421H70.1455V355.838L71.8561 356.078C84.0003 357.799 97.0448 358.68 110.629 358.68C124.214 358.68 137.259 357.809 149.393 356.078L151.103 355.838V413.421ZM143.081 410.419H148.102V359.29C136.318 360.872 123.724 361.682 110.629 361.682C97.5349 361.682 84.9406 360.882 73.1465 359.29V410.419H78.1683V368.808H108.119V410.419H113.14V368.808H143.081V410.419Z" fill="#FFAB4B"/>
<path d="M54.0699 335.092C42.746 318.82 32.8726 301.397 24.7298 283.313C9.35448 249.208 -3.06981 218.655 0.671485 190.274C3.52247 168.587 13.616 158.23 24.2896 147.261C34.4231 136.854 44.9067 126.085 51.1889 104.379C65.2538 55.8227 50.2186 5.88524 50.0585 5.38487L48.528 0.421143L52.4694 3.80368C52.5494 3.87373 60.8222 10.9891 83.6701 31.0441C86.6712 33.6861 87.9716 34.7469 92.2831 38.2595C94.5239 40.0909 97.5849 42.5928 102.126 46.3256C147.762 83.8237 155.945 92.3201 163.228 100.997C176.632 116.979 180.173 125.805 181.674 131.049C182.894 135.342 183.294 138.545 183.795 142.598C184.255 146.291 184.825 150.894 186.236 157.819C188.366 168.257 190.677 175.613 192.208 180.486C192.418 181.167 192.618 181.787 192.788 182.348C192.978 182.978 193.218 183.729 193.488 184.579C197.649 197.799 210.294 238.029 204.512 267.652C197.91 301.477 178.803 324.304 167.999 334.912L165.898 332.771C176.452 322.413 195.119 300.106 201.571 267.081C207.213 238.21 194.738 198.52 190.637 185.48C190.367 184.619 190.127 183.869 189.937 183.228C189.767 182.668 189.567 182.047 189.357 181.377C187.906 176.753 185.475 169.008 183.314 158.41C181.874 151.364 181.304 146.701 180.834 142.958C180.343 139.025 179.963 135.923 178.803 131.86C177.382 126.876 173.991 118.46 160.947 102.908C153.774 94.3617 145.672 85.9553 100.246 48.6273C95.7043 44.8945 92.6432 42.4027 90.4024 40.5713C86.0609 37.0286 84.7605 35.9678 81.7094 33.2858C67.2244 20.5763 58.6015 13.0606 54.22 9.25778C57.6211 23.0581 65.854 64.5793 54.0899 105.2C47.5877 127.627 36.3638 139.165 26.4504 149.343C15.6867 160.401 6.38346 169.958 3.66252 190.644C0.011257 218.265 12.2855 248.397 27.4607 282.083C35.5335 299.996 45.3169 317.249 56.5308 333.371L54.0699 335.082V335.092Z" fill="#FFAB4B"/>
<path d="M162.767 288.047C161.767 294.642 160.157 302.528 155.815 311.004C151.584 319.29 145.672 326.586 138.219 332.73C137.329 333.461 136.418 334.192 135.478 334.892L133.857 332.73L133.677 332.49C137.359 329.718 140.69 326.686 143.651 323.403C144.331 322.653 144.981 321.882 145.612 321.112C148.553 317.549 151.053 313.716 153.144 309.643C156.485 303.108 158.416 296.723 159.806 287.597C165.799 248.107 157.376 216.763 157.286 216.443C148.733 185.42 120.783 152.525 111.87 142.598C112.08 153.946 110.89 186.07 92.5232 209.508C91.0327 211.399 89.5122 213.141 87.9016 214.972C84.0303 219.375 79.6388 224.359 74.9272 232.866C70.0055 241.732 64.9237 250.899 64.4836 262.348C64.1835 270.294 66.5543 276.328 69.0651 282.723L69.2652 283.233C70.7857 287.106 72.6364 290.399 73.6267 292.17L73.8268 292.52C76.2676 296.874 78.5884 300.236 80.389 302.688C81.0993 303.659 81.7295 304.479 82.2597 305.17C82.2897 305.2 82.2997 305.22 82.3197 305.24L83.7302 307.081C89.072 314.046 95.6843 322.683 103.517 332.73C103.667 332.921 103.817 333.111 103.967 333.311L101.596 335.162C100.956 334.342 100.326 333.531 99.7057 332.73C92.5032 323.454 86.3611 315.448 81.3494 308.913L79.9489 307.081C77.9982 304.539 74.7371 300.296 71.2059 293.991L71.0158 293.641C69.9855 291.81 68.0648 288.397 66.4742 284.334L66.2742 283.824C63.6433 277.129 61.1624 270.804 61.4925 262.228C61.9527 250.068 67.2145 240.581 72.3063 231.414C77.1779 222.628 81.6795 217.504 85.6409 212.991C87.2314 211.189 88.7219 209.488 90.1624 207.657C111.97 179.826 108.739 139.105 108.699 138.695L108.339 134.452L111.28 137.524C111.66 137.924 149.813 178.014 160.187 215.653C160.267 215.963 168.87 247.887 162.767 288.047Z" fill="#FFAB4B"/>
<path d="M134.858 304.87C134.048 310.634 137.019 316.879 143.651 323.404C140.69 326.686 137.359 329.718 133.678 332.49L133.858 332.731H103.517C95.6844 322.683 89.0721 314.047 83.7303 307.081L82.3198 305.24C82.3198 305.24 82.2898 305.2 82.2598 305.17C82.5499 304.79 82.88 304.369 83.2501 303.909C86.3212 300.016 91.4629 293.511 91.713 287.166C92.3332 271.995 98.7655 268.803 104.437 265.99C107.639 264.399 110.67 262.898 112.03 259.486C115.571 250.569 116.632 243.183 116.942 238.98C121.993 244.454 133.457 257.334 139.009 267.051C146.452 280.081 146.502 283.614 145.842 286.596C145.001 290.369 142.801 292.701 140.48 295.162C138.009 297.784 135.458 300.486 134.858 304.87Z" fill="#FFAB4B"/>
<path d="M137.829 305.28C137.168 310.014 139.789 315.348 145.611 321.112C145.761 321.272 145.921 321.432 146.082 321.582L143.991 323.744C143.881 323.634 143.761 323.524 143.651 323.404C137.018 316.879 134.047 310.634 134.858 304.87C135.458 300.486 138.009 297.784 140.48 295.162C142.8 292.701 145.001 290.369 145.841 286.596C146.502 283.614 146.452 280.081 139.009 267.051C133.457 257.334 121.993 244.454 116.941 238.98C116.631 243.183 115.571 250.569 112.03 259.486C110.669 262.898 107.638 264.399 104.437 265.99C98.7652 268.803 92.333 271.995 91.7128 287.166C91.4627 293.511 86.3209 300.016 83.2499 303.909C82.8797 304.369 82.5496 304.79 82.2595 305.17C82.0094 305.5 81.7893 305.79 81.6193 306.041L79.1484 304.329C79.4685 303.869 79.8987 303.309 80.3889 302.688C80.5489 302.478 80.719 302.268 80.889 302.048C83.74 298.445 88.5017 292.41 88.7117 287.046C89.402 270.094 97.3247 266.161 103.107 263.298C106.008 261.857 108.308 260.717 109.239 258.375C114.441 245.285 114.05 235.458 114.05 235.357L113.86 231.375L116.631 234.247C117.342 234.997 134.237 252.63 141.61 265.56C148.902 278.32 149.743 282.873 148.772 287.246C147.752 291.83 145.051 294.692 142.66 297.224C140.32 299.706 138.299 301.857 137.829 305.28Z" fill="#FFAB4B"/>
</svg>
