<svg width="274" height="331" viewBox="0 0 274 331" fill="none" xmlns="http://www.w3.org/2000/svg">
<path d="M253.531 93.1496C240.959 78.0542 224.409 70.5217 203.881 70.5217C196.137 70.5217 188.637 71.6455 181.409 73.9538C174.152 76.2622 167.683 79.6943 162.005 84.2807C161.337 84.8274 160.669 85.4045 160.031 85.9512V2C153.259 3.70089 145.819 4.97656 137.741 5.79663C129.633 6.64708 121.373 7.07231 112.901 7.07231C108.801 7.07231 104.884 6.95081 101.119 6.70782C97.3834 6.46484 93.5875 6.22186 89.7005 5.97888V13.6025C99.1447 13.6025 105.613 16.1842 109.105 21.378C112.597 26.6022 114.359 34.6207 114.359 45.4942V83.6124C112.081 81.3041 109.682 79.3602 107.101 77.7505C99.3876 72.9211 89.7005 70.5217 78.1306 70.5217C63.3721 70.5217 50.2535 74.136 38.805 81.3952C27.3262 88.624 18.3072 99.5583 11.8086 114.198C5.27966 128.808 2 147.366 2 169.811C2 192.257 5.27966 210.724 11.8086 225.09C18.3072 239.487 27.2048 250.239 38.4406 257.377C49.6765 264.484 62.5218 268.068 77.0373 268.068C88.1517 268.068 97.93 266.063 106.372 262.085C109.409 260.657 112.051 258.987 114.359 257.134V293.43C114.359 304.303 111.808 311.623 106.736 315.359C101.665 319.095 94.5288 320.978 85.3579 320.978V328.602C90.4293 328.359 97.7478 328.055 107.283 327.69C116.818 327.326 126.809 327.144 137.195 327.144C147.58 327.144 157.784 327.326 167.076 327.69C176.399 328.055 183.687 328.359 189.001 328.602V320.978C179.83 320.978 172.694 319.095 167.623 315.359C162.551 311.623 160.031 304.303 160.031 293.43V259.624C162.764 261.538 165.71 263.087 168.898 264.241C175.791 266.792 183.323 268.068 191.552 268.068C204.61 268.068 216.119 265.517 226.171 260.444C236.192 255.372 244.573 248.113 251.345 238.697C258.117 229.282 263.31 218.044 266.923 204.983C270.567 191.923 272.359 177.556 272.359 161.853C272.359 131.177 266.073 108.275 253.531 93.1496ZM109.652 251.393C103.852 254.036 97.687 255.372 91.1581 255.372C82.2301 255.372 74.7294 252.456 68.6864 246.685C62.6433 240.884 58.0578 231.62 54.93 218.955C51.7718 206.259 50.2231 189.523 50.2231 168.748C50.2231 139.013 53.4117 116.841 59.8191 102.231C66.2266 87.6217 75.7012 80.3018 88.2732 80.3018C94.0733 80.3018 99.8735 81.9723 105.674 85.3741C108.893 87.2572 111.808 89.7174 114.359 92.7547V248.599C112.992 249.662 111.413 250.573 109.652 251.393ZM220.188 215.492C217.516 229.282 213.052 239.912 206.766 247.384C200.48 254.886 191.916 258.622 181.045 258.622C175.731 258.622 170.659 257.498 165.831 255.19C163.736 254.188 161.792 252.973 160.031 251.545V93.3318C161.762 91.5094 163.827 89.9604 166.195 88.624C172.694 85.0096 179.466 83.1872 186.481 83.1872C194.68 83.1872 201.573 85.9208 207.13 91.3576C212.688 96.7944 216.909 105.603 219.824 117.813C222.709 130.022 224.166 146.394 224.166 166.926C224.166 185.544 222.83 201.733 220.188 215.492Z" stroke="#FFAB4B" stroke-width="3" stroke-miterlimit="10"/>
<path d="M128.935 27.6349C132.742 27.6349 135.829 24.548 135.829 20.7402C135.829 16.9324 132.742 13.8455 128.935 13.8455C125.128 13.8455 122.042 16.9324 122.042 20.7402C122.042 24.548 125.128 27.6349 128.935 27.6349Z" stroke="#FFAB4B" stroke-width="3" stroke-miterlimit="10"/>
<path d="M113.143 160.973C106.007 157.692 81.3186 144.298 72.8158 117.114C69.7487 107.303 69.0199 97.007 70.6901 86.4675L71.4796 84.0984L73.4839 85.9208C76.6724 91.2665 80.5898 96.0958 85.1449 100.227C95.4394 109.581 106.888 113.53 114.662 115.17L114.024 118.147C105.886 116.415 93.8906 112.254 83.0799 102.474C79.3447 99.0724 76.0044 95.2757 73.1498 91.0539C72.3299 99.6798 73.1802 108.124 75.7007 116.203C83.8087 142.202 106.766 154.534 113.629 157.692L113.113 160.973H113.143Z" fill="#FFAB4B"/>
<path d="M113.295 195.234C103.335 192.925 86.9366 186.729 74.6683 173.669C70.7205 169.477 63.402 160.396 58.847 146.849C55.1118 135.824 53.9882 123.857 55.5673 112.224L58.6344 109.551C57.116 120.698 58.1485 135.277 61.7318 145.877C66.1351 158.877 73.1195 167.564 76.8851 171.573C88.6372 184.087 103.973 190.009 113.538 192.227L113.295 195.203V195.234Z" fill="#FFAB4B"/>
<path d="M112.931 239.396C105.37 237.908 97.8385 235.356 91.0059 231.894C75.3668 223.966 65.8922 212.819 61.6105 206.897C56.2051 199.364 52.1359 190.951 49.5547 181.9L51.4071 178.468C53.8972 187.185 58.8774 197.876 64.0702 205.135C68.1698 210.845 77.3103 221.567 92.3725 229.191C98.9621 232.532 105.977 234.961 113.265 236.359L112.901 239.396H112.931Z" fill="#FFAB4B"/>
<path d="M161.063 160.973C168.2 157.692 192.888 144.298 201.391 117.114C204.458 107.303 205.187 97.007 203.517 86.4675L202.666 86.2245L200.723 85.9208C197.534 91.2665 193.617 96.0958 189.062 100.227C178.767 109.581 167.319 113.53 159.545 115.17L160.183 118.147C168.321 116.415 180.316 112.254 191.127 102.474C194.862 99.0723 198.202 95.2757 201.057 91.0539C201.877 99.6798 201.027 108.124 198.506 116.203C190.398 142.202 167.44 154.534 160.577 157.692L161.094 160.973H161.063Z" fill="#FFAB4B"/>
<path d="M160.912 195.234C170.872 192.925 187.271 186.729 199.539 173.669C203.487 169.477 210.805 160.396 215.36 146.849C219.095 135.824 220.219 123.857 218.64 112.224L215.512 108.154C217.03 119.301 216.059 135.277 212.475 145.877C208.072 158.877 201.088 167.564 197.322 171.573C185.57 184.087 170.235 190.009 160.669 192.227L160.912 195.203V195.234Z" fill="#FFAB4B"/>
<path d="M161.275 239.396C168.837 237.908 176.368 235.356 183.201 231.894C198.84 223.966 208.314 212.82 212.596 206.897C218.001 199.364 222.071 190.951 224.652 181.9L222.799 178.468C220.309 187.185 215.329 197.876 210.136 205.135C206.037 210.845 196.896 221.567 181.834 229.191C175.244 232.532 168.23 234.961 160.941 236.359L161.306 239.396H161.275Z" fill="#FFAB4B"/>
</svg>
