<svg width="605" height="750" viewBox="0 0 605 750" fill="none" xmlns="http://www.w3.org/2000/svg">
<path d="M572.193 0H32.7449C23.7151 0.0312748 15.5288 3.69042 9.59226 9.63263C3.68693 15.5748 0 23.8001 0 32.8385C0 50.4149 13.8728 64.77 31.2139 65.5832V451.733H32.7762C57.7723 451.733 78.0816 472.061 78.0816 497.081C78.0816 522.101 57.7723 542.429 32.7762 542.429H31.2139V682.196L302.453 750L572.536 682.509L573.724 682.196V542.429H572.161C547.196 542.429 526.856 522.101 526.856 497.081C526.856 472.061 547.196 451.733 572.161 451.733H573.724V65.5832C591.096 64.77 605 50.4149 605 32.8385C605 15.2621 590.284 0 572.193 0ZM558.163 3.12748C547.04 8.38164 539.323 19.7344 539.323 32.8385C539.323 45.9426 547.04 57.2954 558.163 62.5495H550.258C533.886 62.5495 520.576 49.2265 520.576 32.8385C520.576 16.4505 533.886 3.12748 550.258 3.12748H558.163ZM536.292 3.12748C525.169 8.38164 517.451 19.7344 517.451 32.8385C517.451 45.9426 525.169 57.2954 536.292 62.5495H528.668C512.296 62.5495 498.985 49.2265 498.985 32.8385C498.985 16.4505 512.296 3.12748 528.668 3.12748H536.292ZM514.701 3.12748C503.578 8.38164 495.861 19.7344 495.861 32.8385C495.861 45.9426 503.578 57.2954 514.701 62.5495H506.796C490.424 62.5495 477.114 49.2265 477.114 32.8385C477.114 16.4505 490.424 3.12748 506.796 3.12748H514.701ZM492.83 3.12748C481.707 8.38164 473.989 19.7344 473.989 32.8385C473.989 45.9426 481.707 57.2954 492.83 62.5495H484.925C468.552 62.5495 455.242 49.2265 455.242 32.8385C455.242 16.4505 468.552 3.12748 484.925 3.12748H492.83ZM470.958 3.12748C459.835 8.38164 452.117 19.7344 452.117 32.8385C452.117 45.9426 459.835 57.2954 470.958 62.5495H463.053C446.681 62.5495 433.37 49.2265 433.37 32.8385C433.37 16.4505 446.681 3.12748 463.053 3.12748H470.958ZM449.087 3.12748C437.963 8.38164 430.246 19.7344 430.246 32.8385C430.246 45.9426 437.963 57.2954 449.087 62.5495H441.182C424.809 62.5495 411.499 49.2265 411.499 32.8385C411.499 16.4505 424.809 3.12748 441.182 3.12748H449.087ZM427.215 3.12748C416.092 8.38164 408.374 19.7344 408.374 32.8385C408.374 45.9426 416.092 57.2954 427.215 62.5495H419.56C403.188 62.5495 389.877 49.2265 389.877 32.8385C389.877 16.4505 403.188 3.12748 419.56 3.12748H427.215ZM405.593 3.12748C394.47 8.38164 386.753 19.7344 386.753 32.8385C386.753 45.9426 394.47 57.2954 405.593 62.5495H397.688C381.316 62.5495 368.005 49.2265 368.005 32.8385C368.005 16.4505 381.316 3.12748 397.688 3.12748H405.593ZM383.722 3.12748C372.598 8.38164 364.881 19.7344 364.881 32.8385C364.881 45.9426 372.598 57.2954 383.722 62.5495H375.817C359.444 62.5495 346.134 49.2265 346.134 32.8385C346.134 16.4505 359.444 3.12748 375.817 3.12748H383.722ZM361.85 3.12748C350.727 8.38164 343.009 19.7344 343.009 32.8385C343.009 45.9426 350.727 57.2954 361.85 62.5495H353.945C337.573 62.5495 324.262 49.2265 324.262 32.8385C324.262 16.4505 337.573 3.12748 353.945 3.12748H361.85ZM339.979 3.12748C328.855 8.38164 321.138 19.7344 321.138 32.8385C321.138 45.9426 328.855 57.2954 339.979 62.5495H335.261C318.888 62.5495 305.578 49.2265 305.578 32.8385C305.578 16.4505 318.888 3.12748 335.261 3.12748H339.979ZM304.015 3.12748H321.294C313.108 6.97427 306.796 14.1362 304.015 22.8618V3.12748ZM304.015 42.8151C306.796 51.5408 313.108 58.7027 321.294 62.5495H304.015V42.8151ZM300.891 3.12748V22.8618C298.11 14.1362 291.799 6.97427 283.612 3.12748H300.891ZM269.646 3.12748C286.018 3.12748 299.329 16.4505 299.329 32.8385C299.329 49.2265 286.018 62.5495 269.646 62.5495H265.178C276.301 57.2954 284.018 45.9426 284.018 32.8385C284.018 19.7344 276.301 8.38164 265.178 3.12748H269.646ZM300.891 42.8151V62.5495H283.612C291.799 58.7027 298.11 51.5408 300.891 42.8151ZM251.211 3.12748C267.584 3.12748 280.894 16.4505 280.894 32.8385C280.894 49.2265 267.584 62.5495 251.211 62.5495H243.306C254.429 57.2954 262.147 45.9426 262.147 32.8385C262.147 19.7344 254.429 8.38164 243.306 3.12748H251.211ZM229.339 3.12748C245.712 3.12748 259.022 16.4505 259.022 32.8385C259.022 49.2265 245.712 62.5495 229.339 62.5495H221.434C232.558 57.2954 240.275 45.9426 240.275 32.8385C240.275 19.7344 232.558 8.38164 221.434 3.12748H229.339ZM207.468 3.12748C223.84 3.12748 237.151 16.4505 237.151 32.8385C237.151 49.2265 223.84 62.5495 207.468 62.5495H199.563C210.686 57.2954 218.404 45.9426 218.404 32.8385C218.404 19.7344 210.686 8.38164 199.563 3.12748H207.468ZM185.596 3.12748C201.969 3.12748 215.279 16.4505 215.279 32.8385C215.279 49.2265 201.969 62.5495 185.596 62.5495H177.691C188.814 57.2954 196.532 45.9426 196.532 32.8385C196.532 19.7344 188.814 8.38164 177.691 3.12748H185.596ZM163.725 3.12748C180.097 3.12748 193.408 16.4505 193.408 32.8385C193.408 49.2265 180.097 62.5495 163.725 62.5495H155.82C166.943 57.2954 174.66 45.9426 174.66 32.8385C174.66 19.7344 166.943 8.38164 155.82 3.12748H163.725ZM141.853 3.12748C158.225 3.12748 171.536 16.4505 171.536 32.8385C171.536 49.2265 158.225 62.5495 141.853 62.5495H134.198C145.321 57.2954 153.039 45.9426 153.039 32.8385C153.039 19.7344 145.321 8.38164 134.198 3.12748H141.853ZM120.231 3.12748C136.604 3.12748 149.914 16.4505 149.914 32.8385C149.914 49.2265 136.635 62.5495 120.263 62.5495H112.326C123.45 57.2954 131.167 45.9426 131.167 32.8385C131.167 19.7344 123.45 8.38164 112.326 3.12748H120.231ZM98.3598 3.12748C114.732 3.12748 128.043 16.4505 128.043 32.8385C128.043 49.2265 114.763 62.5495 98.391 62.5495H90.4547C101.578 57.2954 109.296 45.9426 109.296 32.8385C109.296 19.7344 101.578 8.38164 90.4547 3.12748H98.3598ZM76.4881 3.12748C92.8606 3.12748 106.171 16.4505 106.171 32.8385C106.171 49.2265 92.8919 62.5495 76.5194 62.5495H68.5831C79.7064 57.2954 87.4239 45.9426 87.4239 32.8385C87.4239 19.7344 79.7064 8.38164 68.5831 3.12748H76.4881ZM54.6165 3.12748C70.989 3.12748 84.2994 16.4505 84.2994 32.8385C84.2994 49.2265 71.0202 62.5495 54.6478 62.5495H46.7115C46.9302 62.4557 47.1489 62.3306 47.3677 62.2055C49.0861 61.3611 50.6796 60.3916 52.2107 59.2657C52.3981 59.1093 52.6168 58.9529 52.8356 58.7965C53.3355 58.39 53.8042 58.0147 54.2728 57.6081C54.3978 57.5143 54.4916 57.4205 54.5853 57.3266C56.1788 55.888 57.6473 54.3243 58.9284 52.6041C58.9909 52.5416 59.0221 52.479 59.0846 52.4165C62.2404 48.1631 64.3963 43.1279 65.2086 37.6861C65.4586 36.0911 65.6148 34.4648 65.6148 32.8385C65.6148 31.2122 65.4586 29.5859 65.2086 28.0222C64.3963 22.5491 62.2404 17.5139 59.0846 13.2605C59.0221 13.1979 58.9909 13.1354 58.9284 13.0728C57.6473 11.3527 56.1788 9.75773 54.554 8.31909C54.4603 8.25654 54.3978 8.16271 54.3041 8.10016C53.8042 7.66232 53.3042 7.25574 52.8043 6.88045C52.6168 6.72407 52.4294 6.5677 52.2419 6.4426C50.6796 5.31671 49.0549 4.31592 47.3364 3.44022C47.1177 3.3464 46.9302 3.2213 46.7115 3.12748H54.6165ZM3.12452 32.8385C3.12452 16.4505 16.4037 3.12748 32.7762 3.12748C49.1486 3.12748 62.4278 16.4505 62.4278 32.8385C62.4278 49.2265 49.1486 62.5182 32.7762 62.5495C16.435 62.5495 3.12452 49.2265 3.12452 32.8385ZM527.012 514.47C533.855 532.171 550.696 544.9 570.599 545.526V679.757L302.453 746.779L34.3384 679.757V545.526C54.3978 544.9 71.3639 531.984 78.0816 514.063V641.508L302.453 697.552L528.074 641.164L527.012 514.47ZM570.599 448.636C544.634 449.45 523.731 470.873 523.731 497.081L525.481 638.13L302.516 693.424L81.2062 638.724V497.081C81.2062 470.873 60.3344 449.45 34.3384 448.636V65.677H570.599V448.636ZM572.193 62.5495C555.82 62.5495 542.51 49.2265 542.51 32.8385C542.51 16.4505 555.82 3.12748 572.193 3.12748C588.565 3.12748 601.875 16.4505 601.875 32.8385C601.875 49.2265 588.565 62.5495 572.193 62.5495Z" fill="#FFAB4B"/>
<path d="M34.1818 45.6924C34.7754 45.1607 35.1191 44.285 35.1504 42.9715C35.1191 41.7518 34.8067 40.3444 34.213 38.7181C33.6506 37.1544 33.0569 35.2779 32.4008 33.1512C33.9943 34.8401 35.3378 36.3413 36.3377 37.561C37.4 38.8432 38.4623 39.8128 39.5247 40.407C40.6495 41.0637 41.5869 41.2514 42.3367 41.0012C43.0866 40.751 43.649 40.3132 43.9927 39.7189C44.3677 39.0622 44.4927 38.3428 44.3364 37.561C44.1802 36.7791 43.5553 36.0285 42.4305 35.403C41.3681 34.8088 39.9621 34.3397 38.3061 34.0582C36.7439 33.7767 34.8379 33.3702 32.6507 32.8698C34.9004 32.3381 36.8064 31.9002 38.3374 31.65C39.9621 31.3686 41.3057 30.9307 42.368 30.3365C43.4928 29.6797 44.1177 28.9917 44.3052 28.2098C44.4614 27.428 44.3677 26.7399 43.9927 26.1457C43.649 25.4889 43.0866 25.0511 42.3055 24.7696C41.5244 24.4881 40.587 24.6758 39.4622 25.3325C38.4311 25.9268 37.3688 26.8963 36.2752 28.2411C35.2441 29.4921 33.9318 30.962 32.3695 32.557C33.0569 30.3365 33.6506 28.46 34.1818 26.9901C34.7442 25.4264 35.0254 24.019 35.0254 22.8306C35.0254 21.5483 34.7442 20.6413 34.1505 20.1097C33.5569 19.578 32.9007 19.3278 32.1821 19.3278C31.4947 19.3278 30.8385 19.578 30.2136 20.1097C29.5887 20.6413 29.2763 21.517 29.2763 22.8306C29.2763 24.0503 29.5887 25.4576 30.1824 27.0839C30.7448 28.6477 31.3384 30.5242 31.9634 32.6508C30.4011 30.9307 29.0888 29.4295 28.0577 28.2098C26.9954 26.9276 25.9018 25.9893 24.8395 25.3951C23.7146 24.7383 22.8085 24.5507 22.0586 24.8009C21.3088 25.0511 20.7776 25.4889 20.4339 26.0831C20.0902 26.7399 19.9965 27.4592 20.1214 28.2411C20.2464 29.023 20.8713 29.7736 21.9961 30.3991C23.0272 30.962 24.402 31.3998 26.1205 31.7126C27.714 32.0253 29.62 32.4319 31.7134 32.9323C29.495 33.4953 27.589 33.9018 26.058 34.152C24.4333 34.4335 23.0585 34.8713 21.9961 35.4656C20.8713 36.1536 20.2464 36.8729 20.0902 37.6235C19.934 38.3741 20.0589 39.0622 20.4339 39.6564C20.7776 40.3132 21.34 40.751 22.0899 41.0325C22.8398 41.3139 23.7771 41.1263 24.9019 40.4695C25.933 39.8753 26.9954 38.9058 28.1202 37.561C29.1825 36.31 30.4948 34.8401 31.9946 33.2451C31.3385 35.4656 30.7448 37.3421 30.2136 38.7807C29.62 40.3444 29.3388 41.7205 29.3388 42.9715C29.3388 44.3163 29.6512 45.2233 30.2449 45.7237C30.8385 46.2241 31.4947 46.4743 32.1821 46.4743C32.9007 46.4743 33.5881 46.2241 34.1818 45.6924Z" fill="#FFAB4B"/>
<path d="M582.379 35.3718C581.316 34.7775 579.91 34.3084 578.254 34.027C576.692 33.7455 574.786 33.3389 572.599 32.8385C574.849 32.3068 576.755 31.869 578.286 31.6188C579.91 31.3373 581.254 30.8995 582.316 30.3053C583.441 29.6485 584.066 28.9604 584.253 28.1786C584.41 27.3967 584.316 26.7087 583.941 26.1144C583.597 25.4577 583.035 25.0198 582.254 24.7383C581.473 24.4569 580.535 24.6445 579.41 25.3013C578.379 25.8955 577.317 26.865 576.223 28.2098C575.192 29.4608 573.88 30.9307 572.318 32.5258C573.005 30.3053 573.599 28.4288 574.13 26.9589C574.692 25.3951 574.974 23.9878 574.974 22.7993C574.974 21.517 574.692 20.6101 574.099 20.0784C573.505 19.5467 572.849 19.2965 572.13 19.2965C571.443 19.2965 570.787 19.5467 570.162 20.0784C569.537 20.6101 569.224 21.4858 569.224 22.7993C569.224 24.019 569.537 25.4264 570.131 27.0527C570.693 28.6164 571.287 30.4929 571.912 32.6196C570.349 30.8995 569.037 29.3983 568.006 28.1786C566.944 26.8963 565.85 25.9581 564.788 25.3638C563.663 24.7071 562.757 24.5194 562.007 24.7696C561.257 25.0198 560.726 25.4577 560.382 26.0519C560.038 26.7087 559.945 27.428 560.07 28.2098C560.195 28.9917 560.82 29.7423 561.944 30.3678C562.975 30.9307 564.35 31.3686 566.069 31.6813C567.662 31.9941 569.568 32.4007 571.662 32.9011C569.443 33.464 567.537 33.8706 566.006 34.1208C564.381 34.4022 563.007 34.8401 561.944 35.4343C560.82 36.1224 560.195 36.8417 560.038 37.5923C559.882 38.3429 560.007 39.0309 560.382 39.6251C560.726 40.2819 561.288 40.7197 562.038 41.0012C562.788 41.2827 563.725 41.095 564.85 40.4383C565.881 39.8441 566.944 38.8745 568.068 37.5297C569.131 36.2787 570.443 34.8088 571.943 33.2138C571.287 35.4343 570.693 37.3108 570.162 38.7494C569.568 40.3132 569.287 41.6893 569.287 42.9403C569.287 44.2851 569.599 45.192 570.193 45.6924C570.787 46.1928 571.443 46.443 572.13 46.443C572.849 46.443 573.536 46.1928 574.13 45.6612C574.724 45.1295 575.067 44.2538 575.099 42.9403C575.067 41.7205 574.755 40.3132 574.161 38.6869C573.599 37.1232 573.005 35.2467 572.349 33.12C573.942 34.8088 575.286 36.31 576.286 37.5297C577.348 38.812 578.411 39.7815 579.473 40.3757C580.598 41.0325 581.535 41.2201 582.285 40.9699C583.035 40.7198 583.597 40.2819 583.941 39.6877C584.316 39.0309 584.441 38.3116 584.285 37.5297C584.128 36.7479 583.504 35.9973 582.379 35.3718Z" fill="#FFAB4B"/>
</svg>
