<svg width="602" height="636" viewBox="0 0 602 636" fill="none" xmlns="http://www.w3.org/2000/svg">
<path d="M498.44 203.87C498.48 205.59 498.5 207.32 498.5 209.04V306.6" stroke="#FFAB4B" stroke-width="3" stroke-miterlimit="10"/>
<path d="M450.92 337.69V337.67" stroke="#FFAB4B" stroke-width="3" stroke-miterlimit="10"/>
<path d="M328.94 13.3296C323.66 12.5396 318.33 12.0096 312.92 11.6996C310.39 11.5196 307.87 11.4196 305.31 11.3696C303.8 11.3396 302.29 11.3096 300.77 11.3096C296.91 11.3096 293.07 11.4096 289.28 11.6496C287.04 11.7696 284.81 11.9196 282.58 12.1296C277.18 12.6196 271.82 13.3396 266.56 14.2496C201.04 25.6996 146.63 69.3796 120.22 128.33C120.16 128.51 120.07 128.66 120.01 128.82C117.98 133.36 116.12 138.03 114.43 142.75C114.39 142.91 114.33 143.05 114.28 143.2C113.02 146.74 111.86 150.33 110.83 153.98C110.77 154.16 110.73 154.31 110.68 154.47C107.08 167.06 104.69 180.15 103.64 193.62H497.91C490.76 101 419.82 26.2596 328.95 13.3196L328.94 13.3296ZM308.33 79.3396H292.29V68.8596H308.33V79.3396Z" stroke="#FFAB4B" stroke-width="3" stroke-miterlimit="10"/>
<path d="M308.33 68.8701H292.3V79.3401H308.33V68.8701Z" stroke="#FFAB4B" stroke-width="3" stroke-miterlimit="10"/>
<path d="M518.6 193.63H82.96V203.87H518.6V193.63Z" stroke="#FFAB4B" stroke-width="3" stroke-miterlimit="10"/>
<path d="M308.33 1.5V11.06C306.82 11.02 305.32 11 303.79 11C299.93 11 296.09 11.11 292.3 11.34V1.5H308.33Z" stroke="#FFAB4B" stroke-width="3" stroke-miterlimit="10"/>
<path d="M308.33 26.3301H292.3V56.4801H308.33V26.3301Z" stroke="#FFAB4B" stroke-width="3" stroke-miterlimit="10"/>
<path d="M308.33 68.8701H292.3V79.3401H308.33V68.8701Z" stroke="#FFAB4B" stroke-width="3" stroke-miterlimit="10"/>
<path d="M331.97 5.99023V13.0102C326.69 12.2302 321.35 11.7002 315.94 11.3802V5.99023H331.97Z" stroke="#FFAB4B" stroke-width="3" stroke-miterlimit="10"/>
<path d="M285.6 5.99023V11.8202C280.19 12.3102 274.83 13.0302 269.57 13.9402V5.99023H285.6Z" stroke="#FFAB4B" stroke-width="3" stroke-miterlimit="10"/>
<path d="M498.5 269.49L535.39 276.5L525.02 297.39V374.69L501.59 383.55" stroke="#FFAB4B" stroke-width="3" stroke-miterlimit="10"/>
<path d="M498.5 209.04V203.87" stroke="#FFAB4B" stroke-width="3" stroke-miterlimit="10"/>
<path d="M597.72 457.64C594.49 457.64 587.79 456.6 573.18 452.69C561.42 449.55 548.7 445.24 547.71 444.72L548.17 443.6L548.76 441.76C552.44 443.4 593.45 455.93 598.66 454.6C598.53 451.95 590.23 441.77 587.36 439.2L584.47 436.61C568.28 422.08 560.16 414.79 502.13 384.95L503.5 382.28C561.87 412.3 570.09 419.67 586.47 434.37L589.36 436.96C590.81 438.25 601.44 449.79 601.65 454.59C601.7 455.65 601.3 456.31 600.95 456.68C600.57 457.08 600.06 457.63 597.72 457.63V457.64Z" fill="#FFAB4B"/>
<path d="M512.05 487.13L509.14 485.62C520.64 479.25 536.55 468.29 543.43 449.57C544.43 446.86 545.23 444.03 545.82 441.17L548.76 441.78C548.14 444.78 547.29 447.75 546.24 450.61C539.04 470.2 523.99 480.52 512.04 487.14L512.05 487.13Z" fill="#FFAB4B"/>
<path d="M449.85 317.63C450.08 322.72 450.32 327.45 450.51 331.77V331.79C450.91 339.21 451.27 345.47 451.59 350.32C452.14 359.12 452.65 367.94 453.24 376.76C453.83 385.62 454.3 391.69 454.22 400.51C454.18 405.2 454.14 409.8 453.69 413.66C451.91 429.56 443.43 433.29 434.71 452.78C429.03 465.46 424.83 474.85 427.29 485.92C429.26 494.72 433.33 495.21 436.92 508.37C438.53 514.29 440.74 522.79 438.32 532.2C436.77 538.26 434.25 540.98 429.71 547.83C425.19 554.61 415.67 568.99 410.65 586.74C407.72 597.11 410.63 593.42 407.47 614.54C407.17 616.55 406.66 619.82 408.47 622.66C411.52 627.43 419.01 627.43 421.49 627.66C428.36 628.34 437.5 626.26 459.17 605.23C477.49 587.42 486.65 578.52 494.43 562.76C502.25 546.86 504.61 532.63 507.55 514.78C509.5 502.89 510.29 492.84 510.65 485.73" stroke="#FFAB4B" stroke-width="3" stroke-miterlimit="10"/>
<path d="M103.12 204.5V270.13L66.24 277.15L76.61 298.03V375.33L100.05 384.2" stroke="#FFAB4B" stroke-width="3" stroke-miterlimit="10"/>
<path d="M3.94002 458.29C1.59002 458.29 1.08002 457.74 0.700015 457.34C0.360015 456.97 -0.049985 456.31 1.50413e-05 455.25C0.220015 450.45 10.85 438.91 12.29 437.62L15.18 435.03C31.56 420.33 39.78 412.95 98.15 382.94L99.52 385.61C41.5 415.45 33.37 422.74 17.18 437.27L14.29 439.86C11.42 442.43 3.11002 452.61 2.99002 455.26C8.21001 456.57 50.83 444.02 54.51 442.38L55.01 445.54C54.02 446.05 40.24 450.21 28.48 453.35C13.87 457.25 7.17002 458.3 3.94002 458.3V458.29Z" fill="#FFAB4B"/>
<path d="M89.13 492.89C77.19 486.27 61.76 474.45 54.56 454.86C53.51 452.01 52.67 449.04 52.04 446.03L54.98 445.42C55.57 448.28 56.38 451.11 57.37 453.82C64.25 472.54 80.5 484.62 92 490.99L89.12 492.88L89.13 492.89Z" fill="#FFAB4B"/>
<path d="M177.75 635.79C169.8 635.79 159.98 631.25 141.02 612.83C122.6 594.93 113.35 585.94 105.46 569.95C97.5201 553.86 95.1801 539.6 92.2001 521.55C90.6101 511.89 89.5601 502.06 89.0801 492.33L92.0001 491C92.4801 500.61 93.5901 511.51 95.1601 521.06C98.0901 538.86 100.41 552.93 108.15 568.62C115.81 584.15 124.93 593.01 143.11 610.67C164.13 631.1 173.06 633.32 179.59 632.69C179.86 632.66 180.2 632.64 180.58 632.61C183.37 632.41 189.18 631.99 191.5 628.36C192.99 626.02 192.57 623.2 192.29 621.33C190.67 610.5 190.62 606.01 190.59 603.04C190.56 600.18 190.54 598.6 189.15 593.66C184.2 576.13 174.8 561.97 170.29 555.17C169.39 553.82 168.57 552.63 167.83 551.54C164.79 547.12 162.79 544.2 161.48 539.09C158.91 529.09 161.4 519.95 162.89 514.48C164.85 507.27 166.95 503.77 168.8 500.69C170.32 498.16 171.62 495.98 172.49 492.11C174.85 481.52 170.79 472.45 165.17 459.9C161.66 452.06 158.21 446.85 155.17 442.24C150.7 435.47 147.16 430.12 146.06 420.34C145.62 416.42 145.57 411.87 145.52 407.05C145.44 398.75 145.83 392.93 146.39 384.87L146.5 383.19C146.88 377.53 147.23 371.87 147.57 366.21C147.76 363.06 147.95 359.91 148.15 356.76C148.31 354.28 148.57 350.77 148.88 346.71C149.55 337.92 150.39 326.98 150.79 317.64L153.79 317.77C153.38 327.17 152.55 338.13 151.87 346.94C151.56 350.99 151.29 354.5 151.14 356.95C150.94 360.1 150.75 363.25 150.56 366.39C150.22 372.06 149.87 377.73 149.49 383.4L149.38 385.08C148.83 393.07 148.44 398.85 148.52 407.02C148.57 411.77 148.61 416.24 149.04 420.02C150.06 429.08 153.25 433.92 157.67 440.6C160.77 445.3 164.29 450.63 167.9 458.68C173.54 471.27 177.99 481.22 175.41 492.78C174.44 497.12 172.95 499.61 171.37 502.25C169.62 505.17 167.63 508.48 165.78 515.29C164.28 520.8 162.01 529.13 164.38 538.36C165.56 542.96 167.35 545.56 170.3 549.86C171.05 550.96 171.88 552.16 172.79 553.53C177.39 560.46 186.96 574.89 192.04 592.87C193.54 598.19 193.56 600.01 193.6 603.03C193.64 606.09 193.68 610.29 195.26 620.85C195.59 623.08 196.14 626.71 194.04 629.99C190.91 634.89 184.09 635.38 180.81 635.61C180.46 635.63 180.15 635.66 179.9 635.68C179.2 635.75 178.5 635.79 177.78 635.79H177.75Z" fill="#FFAB4B"/>
<path d="M147.92 422.93C194.43 415.91 231.94 413.74 262.84 412.78C269.58 412.57 299.49 411.72 340.07 413.38C384.75 415.21 422.8 419.28 452.16 423.3" stroke="#FFAB4B" stroke-width="3" stroke-miterlimit="10"/>
<path d="M103.12 306.73C97.87 307.21 95.06 306.52 92.39 305.85C87.96 304.74 84.73 303.01 82.57 301.84C80.05 300.47 78.04 299.1 76.6 298.02" stroke="#FFAB4B" stroke-width="3" stroke-miterlimit="10"/>
<path d="M524.76 297.89C523.32 298.97 521.31 300.34 518.79 301.71C516.64 302.88 513.4 304.61 508.97 305.72C506.3 306.39 503.76 307.11 498.51 306.62" stroke="#FFAB4B" stroke-width="3" stroke-miterlimit="10"/>
<path d="M498.5 306.67V306.61" stroke="#FFAB4B" stroke-width="3" stroke-miterlimit="10"/>
<path d="M103.12 270.13V306.92" stroke="#FFAB4B" stroke-width="3" stroke-miterlimit="10"/>
<path d="M317.15 193.23C313.36 181.09 310.16 162.24 316.39 141.42C318.99 132.73 323.84 116.56 339.19 105.48C347.26 99.6499 356.86 96.1199 367.71 94.9899C378.09 93.9099 386.36 95.8499 394.35 97.7299C398.25 98.6499 399.81 99.2299 403.23 100.52C406.27 101.66 410.86 103.4 420.03 106.48C434.81 111.45 441.25 113.16 448.73 114.08C449.45 114.17 450.25 114.33 451.1 114.5C453.88 115.05 457.34 115.74 461.46 114.86C464.49 114.21 467.39 112.93 470.08 111.04L471.8 113.5C468.78 115.62 465.51 117.06 462.09 117.79C457.37 118.8 453.41 118.01 450.52 117.44C449.69 117.27 448.98 117.13 448.37 117.06C440.65 116.11 434.08 114.38 419.08 109.33C409.86 106.23 405.24 104.49 402.18 103.33C398.79 102.05 397.38 101.52 393.67 100.65C385.56 98.7399 377.9 96.9499 368.02 97.9799C357.7 99.0599 348.59 102.4 340.95 107.92C326.43 118.41 321.95 133.36 319.27 142.29C313.25 162.39 316.35 180.6 320.02 192.35L317.16 193.24L317.15 193.23Z" fill="#FFAB4B"/>
<path d="M334.54 161.63L331.46 165.43C331.96 158.22 333.75 140.37 340.12 130.66C346.69 120.65 355.1 113.85 365.13 110.43C375.26 106.98 383.89 108.09 389.04 108.76C393.34 109.31 395.45 110.06 400.06 111.7C403.03 112.75 407.09 114.19 413.54 116.23C420.56 118.45 423.59 119.22 426.26 119.91C428.85 120.57 431.09 121.15 436.2 122.85C441.72 124.69 445.64 126.19 448.79 127.4C454.52 129.6 457.4 130.7 462.19 130.79C468.05 130.89 473.97 129.46 479.8 126.54L481.14 129.22C474.87 132.36 468.47 133.91 462.14 133.79C456.82 133.7 453.58 132.46 447.71 130.21C444.59 129.01 440.7 127.52 435.24 125.71C430.23 124.04 428.04 123.48 425.5 122.83C422.79 122.14 419.72 121.35 412.62 119.11C406.12 117.05 402.03 115.6 399.04 114.54C394.5 112.93 392.62 112.26 388.64 111.75C383.74 111.12 375.54 110.06 366.08 113.29C356.7 116.48 348.8 122.89 342.61 132.33C336.61 141.46 335 154.73 334.52 161.65L334.54 161.63Z" fill="#FFAB4B"/>
<path d="M334.16 162.13L331.93 160.11C334.26 156.99 338.6 152.5 342.98 148.59C347.48 144.59 357.19 137.2 371.58 132.75C378.71 130.55 390.09 128.21 403.83 129.58C412.22 130.42 419.36 132.77 433.59 137.46L435.21 138C440.81 139.86 450.18 142.97 462.11 145.64C466.1 146.54 472.77 148.03 479.38 144.94C481.34 144.02 483.16 142.77 484.79 141.21L486.86 143.38C484.99 145.17 482.9 146.61 480.65 147.66C473.12 151.18 465.53 149.48 461.46 148.57C449.38 145.86 439.93 142.72 434.27 140.85L432.67 140.32C418.64 135.7 411.6 133.38 403.54 132.57C390.3 131.24 379.34 133.49 372.48 135.62C358.63 139.91 349.31 146.99 344.99 150.83C340.74 154.61 336.4 159.15 334.18 162.12L334.16 162.13Z" fill="#FFAB4B"/>
<path d="M331.18 192.64L328.32 192.26C330.66 184.98 334.03 177.57 338.33 171.3C341.22 167.08 347.99 157.21 360.84 149.62C364.19 147.64 373.1 142.39 385.68 141.01C393.43 140.16 399.28 141.14 408.13 142.62C415.24 143.81 420.49 145.3 430.93 148.27C435.34 149.52 438.72 150.55 441.44 151.38C447.11 153.1 450.53 154.14 456.64 155.25C461.53 156.14 467.08 156.56 472.26 156.43C476.53 156.32 479.5 155.91 482.53 154.99C484.77 154.31 486.94 153.4 489 152.26L490.45 154.88C488.21 156.12 485.84 157.12 483.4 157.86C480.14 158.85 476.83 159.32 472.34 159.43C466.96 159.56 461.2 159.13 456.11 158.2C449.83 157.06 446.35 156 440.58 154.25C437.74 153.39 434.51 152.4 430.13 151.16C419.79 148.23 414.6 146.75 407.65 145.59C398.74 144.1 393.37 143.2 386.02 144C374.08 145.31 365.58 150.33 362.38 152.21C350.1 159.46 343.6 168.95 340.82 173C336.68 179.03 333.45 185.64 331.19 192.64H331.18Z" fill="#FFAB4B"/>
<path d="M282.58 193.23L279.72 192.34C283.38 180.6 286.49 162.38 280.47 142.28C277.79 133.35 273.32 118.4 258.79 107.91C251.15 102.39 242.04 99.0502 231.72 97.9702C221.85 96.9402 214.19 98.7402 206.08 100.64C202.37 101.51 200.96 102.04 197.57 103.32C194.51 104.47 189.89 106.22 180.67 109.32C165.66 114.37 159.09 116.1 151.38 117.05C150.77 117.12 150.06 117.27 149.23 117.43C146.34 118 142.38 118.79 137.66 117.78C134.24 117.05 130.97 115.6 127.95 113.49L129.67 111.03C132.36 112.92 135.26 114.2 138.29 114.85C142.41 115.73 145.87 115.04 148.65 114.49C149.5 114.32 150.3 114.16 151.02 114.07C158.5 113.15 164.94 111.45 179.72 106.47C188.89 103.39 193.48 101.66 196.52 100.51C199.94 99.2202 201.5 98.6302 205.4 97.7202C213.4 95.8402 221.67 93.9002 232.04 94.9802C242.89 96.1102 252.49 99.6502 260.56 105.47C275.91 116.56 280.75 132.73 283.36 141.41C289.6 162.23 286.39 181.08 282.6 193.22L282.58 193.23Z" fill="#FFAB4B"/>
<path d="M265.35 161.13C264.87 154.21 263.11 141.44 257.11 132.3C250.92 122.86 243.02 116.46 233.64 113.26C224.17 110.04 215.98 111.1 211.08 111.72C207.1 112.23 205.22 112.9 200.68 114.51C197.69 115.57 193.6 117.02 187.1 119.07C180 121.32 176.93 122.1 174.22 122.8C171.68 123.45 169.49 124.01 164.48 125.68C159.03 127.5 155.14 128.99 152.01 130.18C146.14 132.43 142.91 133.67 137.58 133.76C131.22 133.86 124.84 132.34 118.58 129.19L119.92 126.51C125.75 129.43 131.67 130.86 137.53 130.76C142.32 130.68 145.2 129.57 150.93 127.37C154.08 126.16 158.01 124.66 163.52 122.82C168.63 121.12 170.87 120.54 173.46 119.88C176.13 119.2 179.16 118.42 186.18 116.2C192.63 114.16 196.69 112.72 199.66 111.67C204.28 110.03 206.38 109.29 210.68 108.73C215.84 108.06 224.47 106.95 234.59 110.4C244.62 113.82 253.03 120.62 259.6 130.63C265.97 140.33 268.1 158.17 268.6 165.38L265.33 161.1L265.35 161.13Z" fill="#FFAB4B"/>
<path d="M265.57 161.43C263.41 158.53 258.81 154.44 254.76 150.84C250.44 147 241.12 139.91 227.27 135.63C220.41 133.51 209.45 131.26 196.21 132.58C188.15 133.39 181.11 135.71 167.09 140.32L165.48 140.85C159.83 142.73 150.37 145.87 138.29 148.57C134.22 149.48 126.63 151.19 119.1 147.66C116.84 146.61 114.75 145.16 112.89 143.38L114.96 141.21C116.59 142.77 118.41 144.03 120.37 144.94C126.98 148.03 133.65 146.53 137.64 145.64C149.57 142.97 158.94 139.86 164.54 138L166.15 137.47C180.39 132.78 187.53 130.43 195.92 129.59C209.66 128.21 221.04 130.55 228.16 132.76C242.55 137.21 252.26 144.59 256.76 148.6C261.13 152.48 265.64 156.5 267.98 159.64L265.57 161.43Z" fill="#FFAB4B"/>
<path d="M268.55 192.641C266.3 185.641 263.06 179.031 258.92 173.001C256.14 168.951 249.63 159.461 237.36 152.211C234.16 150.321 225.66 145.301 213.72 144.001C206.38 143.201 201 144.101 192.1 145.591C185.15 146.761 179.96 148.231 169.62 151.161C165.24 152.401 162.01 153.391 159.17 154.251C153.4 156.011 149.92 157.071 143.64 158.201C138.55 159.121 132.78 159.551 127.41 159.431C122.92 159.321 119.61 158.851 116.35 157.861C113.91 157.121 111.54 156.121 109.3 154.881L110.75 152.261C112.81 153.401 114.98 154.321 117.22 154.991C120.25 155.911 123.22 156.321 127.49 156.431C132.67 156.561 138.22 156.141 143.11 155.251C149.22 154.141 152.64 153.101 158.31 151.381C161.02 150.551 164.4 149.531 168.82 148.271C179.26 145.311 184.51 143.821 191.62 142.621C200.47 141.141 206.32 140.161 214.07 141.011C226.65 142.391 235.56 147.641 238.91 149.621C251.76 157.211 258.53 167.081 261.42 171.301C265.72 177.571 269.24 184.921 271.58 192.201L268.57 192.641H268.55Z" fill="#FFAB4B"/>
<path d="M102.9 269.971C119.6 285.631 282.14 293.711 300.9 293.711" stroke="#FFAB4B" stroke-width="3" stroke-miterlimit="10"/>
<path d="M498.51 269.49C481.81 285.15 319.67 293.72 300.91 293.72" stroke="#FFAB4B" stroke-width="3" stroke-miterlimit="10"/>
<path d="M103.1 279.12C119.8 294.78 282.34 302.86 301.1 302.86" stroke="#FFAB4B" stroke-width="3" stroke-miterlimit="10"/>
<path d="M498.71 278.63C482.01 294.29 319.87 302.86 301.11 302.86" stroke="#FFAB4B" stroke-width="3" stroke-miterlimit="10"/>
<path d="M103.33 297.33C120.03 312.99 282.57 321.07 301.33 321.07" stroke="#FFAB4B" stroke-width="3" stroke-miterlimit="10"/>
<path d="M498.94 296.84C482.24 312.5 320.1 321.07 301.34 321.07" stroke="#FFAB4B" stroke-width="3" stroke-miterlimit="10"/>
<path d="M102.98 306.79C119.68 322.45 282.62 329.86 301.38 329.86" stroke="#FFAB4B" stroke-width="3" stroke-miterlimit="10"/>
<path d="M498.58 306.65C481.88 322.31 320.15 329.86 301.39 329.86" stroke="#FFAB4B" stroke-width="3" stroke-miterlimit="10"/>
<path d="M103.1 288.391C119.04 303.361 268.3 311.421 297.82 312.071" stroke="#FFAB4B" stroke-width="3" stroke-miterlimit="10"/>
<path d="M303.99 312.09C332.46 311.45 482.66 302.95 498.71 287.9" stroke="#FFAB4B" stroke-width="3" stroke-miterlimit="10"/>
<path d="M304.6 313.89C304.6 316.21 302.95 318.08 300.89 318.08C298.83 318.08 297.18 316.21 297.18 313.89C297.18 313.03 297.41 312.24 297.82 311.57C299.18 311.62 300.28 311.64 301.11 311.64C301.85 311.64 302.81 311.62 303.99 311.59C304.37 312.24 304.6 313.03 304.6 313.89Z" stroke="#FFAB4B" stroke-width="2" stroke-miterlimit="10"/>
<path d="M455.546 471.756C457.762 461.42 456.901 452.471 453.623 451.769C450.345 451.066 445.891 458.875 443.675 469.211C441.46 479.547 442.321 488.495 445.598 489.198C448.876 489.901 453.33 482.092 455.546 471.756Z" stroke="#FFAB4B" stroke-width="3" stroke-miterlimit="10"/>
<path d="M483.89 264.89C487.242 264.89 489.96 256.321 489.96 245.75C489.96 235.18 487.242 226.61 483.89 226.61C480.538 226.61 477.82 235.18 477.82 245.75C477.82 256.321 480.538 264.89 483.89 264.89Z" stroke="#FFAB4B" stroke-width="3" stroke-miterlimit="10"/>
<path d="M461.75 272.16C465.102 272.16 467.82 263.591 467.82 253.02C467.82 242.449 465.102 233.88 461.75 233.88C458.398 233.88 455.68 242.449 455.68 253.02C455.68 263.591 458.398 272.16 461.75 272.16Z" stroke="#FFAB4B" stroke-width="3" stroke-miterlimit="10"/>
<path d="M117.73 265.86C121.082 265.86 123.8 257.291 123.8 246.72C123.8 236.149 121.082 227.58 117.73 227.58C114.378 227.58 111.66 236.149 111.66 246.72C111.66 257.291 114.378 265.86 117.73 265.86Z" stroke="#FFAB4B" stroke-width="3" stroke-miterlimit="10"/>
<path d="M139.87 273.13C143.222 273.13 145.94 264.56 145.94 253.99C145.94 243.419 143.222 234.85 139.87 234.85C136.518 234.85 133.8 243.419 133.8 253.99C133.8 264.56 136.518 273.13 139.87 273.13Z" stroke="#FFAB4B" stroke-width="3" stroke-miterlimit="10"/>
<path d="M437.823 590.437C440.039 580.102 439.178 571.153 435.9 570.45C432.622 569.748 428.168 577.557 425.952 587.893C423.737 598.229 424.598 607.177 427.875 607.88C431.153 608.583 435.607 600.773 437.823 590.437Z" stroke="#FFAB4B" stroke-width="3" stroke-miterlimit="10"/>
<path d="M153.526 489.149C156.804 488.447 157.665 479.498 155.449 469.162C153.233 458.826 148.78 451.017 145.502 451.72C142.224 452.423 141.363 461.371 143.579 471.707C145.795 482.043 150.248 489.852 153.526 489.149Z" stroke="#FFAB4B" stroke-width="3" stroke-miterlimit="10"/>
<path d="M171.258 607.816C174.536 607.114 175.397 598.165 173.181 587.829C170.965 577.493 166.512 569.684 163.234 570.387C159.956 571.09 159.095 580.038 161.311 590.374C163.526 600.71 167.98 608.519 171.258 607.816Z" stroke="#FFAB4B" stroke-width="3" stroke-miterlimit="10"/>
</svg>
