<svg width="720" height="602" viewBox="0 0 720 602" fill="none" xmlns="http://www.w3.org/2000/svg">
<path d="M361.88 169.205C358.66 160.655 350.92 142.625 333.39 132.545C324.12 127.215 313.06 123.985 300.53 122.945C288.53 121.945 279.26 123.685 269.43 125.515C264.92 126.355 263.22 126.865 259.11 128.105C255.43 129.205 249.86 130.875 238.77 133.855C220.74 138.685 212.85 140.345 203.59 141.245C202.84 141.315 201.96 141.455 200.95 141.615C197.52 142.155 192.82 142.895 187.26 141.945C183.9 141.375 177.63 138.535 168.63 133.505L168.42 133.385L169.88 130.765L170.09 130.885C180.92 136.945 185.68 138.635 187.76 138.985C192.84 139.845 197.25 139.155 200.48 138.645C201.49 138.485 202.45 138.335 203.29 138.255C212.35 137.365 220.14 135.735 237.98 130.955C249.03 127.995 254.57 126.335 258.23 125.235C262.45 123.965 264.2 123.445 268.86 122.575C278.89 120.695 288.36 118.935 300.76 119.965C313.74 121.045 325.21 124.405 334.87 129.955C353.33 140.565 359.18 156.095 362.32 164.445L361.87 169.215L361.88 169.205Z" fill="#FFAB4B"/>
<path d="M341.59 183.895C341.34 180.985 339.66 165.965 331.41 155.965C323.92 146.885 314.35 140.715 302.97 137.635C291.44 134.505 281.47 135.525 275.52 136.145C270.66 136.645 268.38 137.285 262.87 138.845C259.28 139.855 254.35 141.245 246.53 143.215C237.99 145.365 234.3 146.115 231.04 146.775C227.97 147.395 225.33 147.945 219.27 149.545C212.69 151.285 208 152.725 204.23 153.875C197.22 156.015 193.36 157.195 187.05 157.285C179.6 157.375 171.8 153.465 166.1 150.605C164.34 149.715 162.82 148.955 161.66 148.495L162.77 145.705C164.05 146.215 165.62 147.005 167.45 147.925C172.87 150.655 180.29 154.345 187.01 154.285C192.89 154.205 196.39 153.135 203.35 151.005C207.14 149.845 211.87 148.405 218.5 146.645C224.64 145.015 227.33 144.475 230.44 143.835C233.67 143.175 237.32 142.435 245.79 140.295C253.58 138.335 258.47 136.955 262.05 135.945C267.57 134.385 270.09 133.675 275.21 133.155C281.37 132.525 291.68 131.465 303.75 134.735C315.74 137.985 325.83 144.485 333.72 154.055C342.53 164.735 344.03 183.695 344.3 186.765L341.58 183.895H341.59Z" fill="#FFAB4B"/>
<path d="M341.61 183.895C339 181.105 333.45 177.185 328.56 173.725C323.33 170.025 312.05 163.195 295.28 159.065C286.97 157.015 273.68 154.845 257.62 156.125C247.84 156.905 239.35 159.125 222.43 163.565L220.49 164.075C213.69 165.875 202.3 168.885 187.77 171.475C182.93 172.335 173.92 173.945 165.02 170.635C161.73 169.405 157.64 166.635 155.93 165.335L157.75 162.945C159.02 163.915 162.99 166.675 166.06 167.825C174.19 170.855 182.36 169.395 187.24 168.525C201.66 165.955 212.97 162.965 219.72 161.175L221.63 160.675C238.75 156.185 247.33 153.935 257.37 153.135C273.83 151.825 287.45 154.055 295.98 156.155C313.23 160.405 324.87 167.445 330.28 171.275C335.53 174.995 340.96 178.835 343.78 181.845L341.59 183.895H341.61Z" fill="#FFAB4B"/>
<path d="M346.56 213.224C344.59 208.354 341.09 201.394 334.73 194.014C330.93 189.604 323.01 180.624 308.18 173.654C303.74 171.564 293.46 166.844 278.98 165.584C269.89 164.794 263.07 165.704 252.43 167.124C243.96 168.254 237.69 169.674 225.16 172.504C209.04 176.144 205.14 177.624 194.02 179.224C192.05 179.504 184.49 180.564 174.83 180.374C169.16 180.264 165.46 179.774 161.98 178.934C158.49 178.094 155.74 177.034 153.83 176.194" stroke="#FFAB4B" stroke-width="3" stroke-miterlimit="10"/>
<path d="M361.88 169.204L361.54 164.434C364.68 156.094 370.52 140.564 388.99 129.944C398.65 124.394 410.12 121.034 423.1 119.954C435.5 118.924 444.97 120.694 455 122.564C459.67 123.434 461.41 123.964 465.63 125.224C469.29 126.324 474.83 127.984 485.88 130.944C503.73 135.724 511.51 137.364 520.57 138.244C521.41 138.324 522.37 138.474 523.38 138.634C526.61 139.144 531.02 139.844 536.1 138.974C540.31 138.254 547.52 134.674 551.11 132.664L552.57 135.284C551.53 135.864 542.27 140.964 536.6 141.934C531.04 142.884 526.34 142.144 522.91 141.604C521.9 141.444 521.03 141.304 520.27 141.234C511.02 140.324 503.13 138.674 485.09 133.844C474 130.874 468.43 129.204 464.75 128.094C460.64 126.864 458.94 126.354 454.43 125.504C444.61 123.664 435.33 121.934 423.33 122.934C410.79 123.974 399.74 127.204 390.46 132.534C372.93 142.614 365.08 160.644 361.86 169.194L361.88 169.204Z" fill="#FFAB4B"/>
<path d="M382.95 183.195L379.74 186.425C380.34 179.475 382.44 163.405 390.14 154.065C398.03 144.495 408.12 137.995 420.11 134.745C432.18 131.475 442.49 132.535 448.65 133.165C453.77 133.695 456.29 134.405 461.81 135.955C465.39 136.965 470.28 138.345 478.07 140.305C486.54 142.435 490.2 143.185 493.42 143.845C496.53 144.475 499.22 145.025 505.36 146.655C511.99 148.415 516.72 149.855 520.51 151.015C527.48 153.145 530.98 154.205 536.86 154.295C544.07 154.405 549.81 151.775 554.45 149.675C555.61 149.145 556.71 148.645 557.73 148.245L558.84 151.035C557.88 151.415 556.82 151.905 555.68 152.415C551.03 154.525 544.65 157.385 536.81 157.305C530.5 157.215 526.64 156.035 519.63 153.895C515.86 152.745 511.17 151.315 504.59 149.565C498.53 147.955 495.89 147.415 492.82 146.795C489.56 146.135 485.87 145.375 477.33 143.235C469.5 141.265 464.58 139.875 460.99 138.865C455.48 137.315 453.2 136.665 448.34 136.165C442.39 135.555 432.42 134.535 420.89 137.655C409.51 140.735 399.94 146.905 392.45 155.985C385.26 164.705 383.52 176.605 382.95 183.205V183.195Z" fill="#FFAB4B"/>
<path d="M382.26 183.894L380.27 181.634C383.09 178.624 388.32 174.984 393.57 171.274C398.97 167.454 410.62 160.404 427.87 156.154C436.4 154.054 450.02 151.824 466.48 153.134C476.52 153.934 485.1 156.184 502.2 160.664L504.14 161.174C510.9 162.964 522.2 165.944 536.62 168.524C541.5 169.394 549.67 170.854 557.8 167.824C560.2 166.934 562.43 165.704 564.41 164.194L566.23 166.584C564.01 168.274 561.52 169.644 558.84 170.634C549.94 173.944 540.93 172.334 536.09 171.474C521.55 168.884 510.17 165.874 503.37 164.074L501.46 163.574C484.51 159.134 476.02 156.904 466.24 156.124C450.18 154.844 436.9 157.014 428.58 159.064C411.81 163.194 400.53 170.014 395.3 173.724C390.41 177.184 384.86 181.114 382.25 183.894H382.26Z" fill="#FFAB4B"/>
<path d="M377.3 213.224C379.27 208.354 382.77 201.394 389.13 194.014C392.93 189.604 400.85 180.624 415.68 173.654C420.12 171.564 430.4 166.844 444.88 165.584C453.97 164.794 460.79 165.704 471.43 167.124C479.9 168.254 486.17 169.674 498.7 172.504C514.82 176.144 518.72 177.624 529.84 179.224C531.81 179.504 539.37 180.564 549.03 180.374C554.7 180.264 558.4 179.774 561.88 178.934C565.37 178.094 567.76 177.194 569.66 176.354" stroke="#FFAB4B" stroke-width="3" stroke-miterlimit="10"/>
<path d="M574.25 212.585H146.53C147.67 197.975 150.26 183.765 154.17 170.115C154.22 169.935 154.27 169.775 154.33 169.595V169.575C155.45 165.625 156.72 161.725 158.08 157.885C158.13 157.725 158.19 157.575 158.24 157.415V157.395C160.07 152.275 162.08 147.215 164.29 142.285C164.35 142.105 164.45 141.945 164.52 141.765V141.745C193.17 77.7949 252.2 30.4049 323.27 17.9849C328.98 16.9949 334.8 16.2149 340.66 15.6849C342.61 15.4949 344.56 15.3549 346.52 15.2449C346.99 15.2149 347.45 15.1949 347.92 15.1649C352.04 14.9049 356.21 14.7949 360.39 14.7949C362.05 14.7949 363.69 14.8249 365.32 14.8549C368.1 14.9049 370.84 15.0149 373.58 15.2149C373.81 15.2249 374.04 15.2449 374.27 15.2549C379.9 15.6049 385.46 16.1549 390.96 16.9849C489.54 31.0249 566.5 112.105 574.25 212.585Z" stroke="#FFAB4B" stroke-width="3" stroke-miterlimit="10"/>
<path d="M575.778 149.494L561.741 153.617L571.851 188.033L585.888 183.91L575.778 149.494Z" stroke="#FFAB4B" stroke-width="3" stroke-miterlimit="10"/>
<path d="M150.42 189.965L133.42 185.285L143.73 147.805L160.73 152.485L150.42 189.965ZM137.11 183.195L148.32 186.285L157.04 154.595L145.83 151.505L137.11 183.195Z" fill="#FFAB4B"/>
<path d="M374.27 1.89453V15.2545C374.04 15.2445 373.81 15.2245 373.58 15.2145C370.84 15.0145 368.1 14.9045 365.32 14.8545C363.69 14.8245 362.05 14.7945 360.39 14.7945C356.21 14.7945 352.04 14.9045 347.92 15.1645C347.45 15.1945 346.99 15.2145 346.52 15.2445V1.89453H374.27Z" stroke="#FFAB4B" stroke-width="3" stroke-miterlimit="10"/>
<path d="M168.07 365.715L165.1 366.825C166 337.305 163.91 309.635 158.78 280.025C155.66 262.035 151.38 244.045 146.05 226.555L147.91 221.885C153.28 239.495 158.6 261.405 161.74 279.515C166.9 309.325 168.98 335.995 168.07 365.715Z" fill="#FFAB4B"/>
<path d="M146.53 246.405V372.045L118.93 382.865L120.58 365.435L127.2 360.225L103.15 257.605L146.53 246.405ZM146.53 246.405L146.42 228.195V214.055" stroke="#FFAB4B" stroke-width="3" stroke-miterlimit="10"/>
<path d="M146.53 372.045L166.78 364.685" stroke="#FFAB4B" stroke-width="3" stroke-miterlimit="10"/>
<path d="M200.86 601.394C200.42 601.394 200.01 601.394 199.62 601.394C195.93 601.354 190.19 600.724 183.81 597.964C175.11 594.194 170.13 588.534 167.15 585.154C164.04 581.624 161.38 577.714 159.22 573.514C151.33 571.664 99.9899 558.364 56.1499 527.784C40.6099 516.944 32.2499 507.174 15.5899 487.704C6.68993 477.304 -0.560074 467.774 0.809926 456.484C1.80993 448.284 6.91992 441.354 9.87992 437.944C14.7099 432.394 20.1199 429.514 23.0199 427.964C23.4499 427.734 23.8299 427.534 24.1499 427.354C39.3799 418.754 54.8799 411.044 72.1199 402.564C76.8099 400.254 82.6199 397.614 89.3499 394.554C97.2199 390.974 107.78 386.494 117.76 381.694L117.44 385.034C107.43 389.854 98.4699 393.694 90.5899 397.284C83.8899 400.334 78.0999 402.964 73.4399 405.254C56.2499 413.704 40.7899 421.404 25.6199 429.964C25.2799 430.154 24.8799 430.364 24.4199 430.614C21.4999 432.174 16.5999 434.774 12.1299 439.914C9.38992 443.054 4.66993 449.434 3.76993 456.844C2.65993 466.004 7.85993 474.074 17.8499 485.744C34.3399 505.024 42.6199 514.694 57.8499 525.314C104.66 557.974 160.01 570.644 160.57 570.764L161.27 570.924L161.59 571.564C163.68 575.764 166.3 579.664 169.39 583.164C172.2 586.354 176.91 591.704 184.99 595.204C189.61 597.204 194.81 598.334 199.64 598.384C202.82 598.414 207.62 598.464 212.92 596.014C220.42 592.544 222.58 587.044 224.26 583.484L227.69 583.994C225.84 587.914 222.55 594.874 214.19 598.734C208.98 601.144 204.15 601.384 200.86 601.384V601.394Z" fill="#FFAB4B"/>
<path d="M224.06 584.984C232.32 586.164 239.14 586.974 243.8 587.484C254.77 588.694 287.88 592.064 332.67 591.094C340.46 590.924 352.94 591.444 356.69 591.264" stroke="#FFAB4B" stroke-width="3" stroke-miterlimit="10"/>
<path d="M552.39 367.985C551.49 338.265 553.56 309.325 558.72 279.515C561.86 261.405 567.71 238.315 573.07 220.705L574.41 226.555C569.08 244.045 564.8 262.035 561.68 280.025C556.55 309.635 554.49 336.395 555.39 365.915L552.39 367.985Z" fill="#FFAB4B"/>
<path d="M573.93 246.405V372.045L601.53 382.865L599.88 365.435L593.27 360.225L617.31 257.605L573.93 246.405ZM573.93 246.405L574.37 228.205V214.055" stroke="#FFAB4B" stroke-width="3" stroke-miterlimit="10"/>
<path d="M573.93 372.045L553.68 364.685" stroke="#FFAB4B" stroke-width="3" stroke-miterlimit="10"/>
<path d="M519.61 601.395C516.32 601.395 511.49 601.155 506.28 598.745C497.92 594.885 494.13 587.955 492.28 584.035L496.2 583.495C497.87 587.055 500.04 592.555 507.54 596.025C512.84 598.475 517.64 598.425 520.82 598.395C525.65 598.345 530.85 597.215 535.47 595.215C543.55 591.715 548.26 586.365 551.07 583.175C554.15 579.675 556.78 575.765 558.87 571.575L559.19 570.935L559.89 570.775C560.44 570.655 615.79 557.975 662.61 525.325C677.84 514.705 686.12 505.025 702.6 485.755C712.59 474.075 717.79 466.015 716.68 456.845C715.78 449.435 711.06 443.055 708.32 439.915C703.85 434.775 698.96 432.175 696.03 430.615C695.57 430.375 695.17 430.155 694.83 429.965C679.67 421.405 664.2 413.715 647.01 405.255C642.36 402.965 636.57 400.335 629.87 397.295C621.98 393.705 612.88 389.825 602.87 385.005L602.6 381.545C612.58 386.355 623.23 390.985 631.1 394.565C637.82 397.625 643.63 400.265 648.32 402.565C665.55 411.035 681.06 418.755 696.29 427.355C696.61 427.535 696.99 427.735 697.42 427.965C700.32 429.515 705.72 432.385 710.56 437.945C713.52 441.345 718.64 448.275 719.63 456.485C721 467.775 713.75 477.305 704.85 487.695C688.19 507.165 679.83 516.935 664.29 527.775C620.45 558.355 569.11 571.655 561.22 573.505C559.07 577.705 556.4 581.615 553.29 585.145C550.31 588.525 545.33 594.185 536.63 597.955C530.25 600.715 524.51 601.345 520.82 601.385C520.44 601.385 520.02 601.385 519.58 601.385L519.61 601.395Z" fill="#FFAB4B"/>
<path d="M496.41 584.984C488.15 586.164 481.33 586.974 476.67 587.484C465.7 588.694 432.59 592.064 387.8 591.094C380.01 590.924 360.44 591.444 356.69 591.264" stroke="#FFAB4B" stroke-width="3" stroke-miterlimit="10"/>
<path d="M356.09 495.364C360.072 495.364 363.3 492.136 363.3 488.154C363.3 484.172 360.072 480.944 356.09 480.944C352.108 480.944 348.88 484.172 348.88 488.154C348.88 492.136 352.108 495.364 356.09 495.364Z" stroke="#FFAB4B" stroke-width="3" stroke-miterlimit="10"/>
<path d="M80.0305 456.528C92.8036 452.41 101.135 442.795 98.6382 435.052C96.1418 427.31 83.7636 424.371 70.9905 428.49C58.2175 432.608 49.8865 442.223 52.3829 449.966C54.8792 457.708 67.2575 460.647 80.0305 456.528Z" stroke="#FFAB4B" stroke-width="3" stroke-miterlimit="10"/>
<path d="M619.34 435.074C621.84 427.334 634.21 424.394 646.98 428.514C659.75 432.634 668.08 442.244 665.59 449.984C663.09 457.724 650.72 460.664 637.95 456.544C625.18 452.424 616.85 442.814 619.34 435.074Z" stroke="#FFAB4B" stroke-width="3" stroke-miterlimit="10"/>
<path d="M367.12 353.594C365.3 353.594 363.48 353.594 361.63 353.564C320.14 353.174 288.39 348.414 262.88 344.584L262.53 344.534C235.5 340.474 204.05 333.664 166.39 323.714L166.78 320.694C204.34 330.624 236.06 337.524 262.98 341.564L263.33 341.614C288.75 345.434 320.39 350.184 361.66 350.564C428.32 351.184 480.04 340.314 504.94 333.784C521.72 329.384 538.43 324.064 554.59 317.994L555.65 320.804C539.39 326.914 522.58 332.264 505.7 336.694C481.34 343.084 431.46 353.604 367.12 353.604V353.594Z" fill="#FFAB4B"/>
<path d="M367.12 372.294C365.3 372.294 363.48 372.294 361.63 372.264C320.14 371.874 288.39 367.114 262.88 363.284L262.53 363.234C226.61 357.844 190.75 349.224 166.99 342.944L167.76 340.044C191.45 346.304 227.2 354.894 262.98 360.264L263.33 360.314C288.75 364.134 320.39 368.884 361.66 369.264C428.3 369.894 480.04 359.014 504.94 352.484C521.72 348.084 538.43 342.764 554.59 336.694L555.31 339.624C539.05 345.734 522.58 350.954 505.7 355.384C481.34 361.774 431.46 372.294 367.12 372.294Z" fill="#FFAB4B"/>
<path d="M167.72 361.635C195.03 368.855 227.86 376.225 261.55 381.285C287.69 385.205 318.87 389.915 360.44 390.305C434.28 390.995 488.41 377.595 504.12 373.475C525.06 367.985 542.11 362.075 553.92 357.635" stroke="#FFAB4B" stroke-width="3" stroke-miterlimit="10"/>
<path d="M166.65 365.215C188.22 385.125 218.06 392.625 251.24 400.355C277.89 406.565 317.97 410.575 354.44 410.575C428.28 410.575 470.07 400.045 486.09 397.445C508.33 393.835 548.91 381.215 553.69 364.675" stroke="#FFAB4B" stroke-width="3" stroke-miterlimit="10"/>
<path d="M146.53 372.505C151.77 382.295 159.24 398.185 175.58 410.975C187.02 419.935 197.87 424.855 209.55 429.315C249.37 444.515 287.49 450.055 313.25 452.455C337.16 454.685 365.02 455.595 395.91 453.455C422.68 451.605 452.14 449.945 488.09 437.825C524.36 425.605 536.67 416.595 544.2 410.575C559.23 398.555 567.85 381.835 573.93 372.505" stroke="#FFAB4B" stroke-width="3" stroke-miterlimit="10"/>
<path d="M107.08 389.635C110.98 397.245 117.44 408.555 126.8 419.795C132.91 427.135 143.23 439.825 171.89 457.465C205.96 478.445 220.43 486.915 241.22 493.535C256.42 498.375 282.77 500.905 303.74 487.525C337.65 465.895 341.81 462.675 341.81 462.675C344.27 460.775 349.56 456.605 356.64 456.665C364.69 456.735 370.62 462.235 372.87 464.275C390.05 479.865 410.48 491.405 417.96 495.355C430.82 502.145 454.83 502.365 501.92 486.315C511.68 482.575 524.26 476.625 538.24 468.085C563.81 452.455 576.86 441.035 583.03 434.115C590.93 425.245 606.28 407.925 614.88 390.055" stroke="#FFAB4B" stroke-width="3" stroke-miterlimit="10"/>
</svg>
