<svg width="1440" height="87" viewBox="0 0 1440 87" fill="none" xmlns="http://www.w3.org/2000/svg">
<path d="M136.181 18.024V19.464C134.549 19.512 133.301 19.704 132.437 20.04C131.621 20.328 131.069 20.904 130.781 21.768C130.493 22.584 130.349 23.88 130.349 25.656V61.368C130.349 63.096 130.493 64.392 130.781 65.256C131.069 66.12 131.621 66.696 132.437 66.984C133.301 67.272 134.549 67.464 136.181 67.56V69C135.077 68.904 133.685 68.856 132.005 68.856C130.373 68.808 128.717 68.784 127.037 68.784C125.165 68.784 123.413 68.808 121.781 68.856C120.149 68.856 118.829 68.904 117.821 69V67.56C119.453 67.464 120.677 67.272 121.493 66.984C122.357 66.696 122.933 66.12 123.221 65.256C123.509 64.392 123.653 63.096 123.653 61.368V25.656C123.653 23.88 123.509 22.584 123.221 21.768C122.933 20.904 122.357 20.328 121.493 20.04C120.677 19.704 119.453 19.512 117.821 19.464V18.024C118.829 18.072 120.149 18.12 121.781 18.168C123.413 18.216 125.165 18.24 127.037 18.24C128.717 18.24 130.373 18.216 132.005 18.168C133.685 18.12 135.077 18.072 136.181 18.024Z" fill="#FFAB4B"/>
<path d="M111.782 18.024V19.464C110.15 19.512 108.902 19.704 108.038 20.04C107.222 20.328 106.67 20.904 106.382 21.768C106.094 22.584 105.95 23.88 105.95 25.656V61.368C105.95 63.096 106.094 64.392 106.382 65.256C106.67 66.12 107.222 66.696 108.038 66.984C108.902 67.272 110.15 67.464 111.782 67.56V69C110.678 68.904 109.286 68.856 107.606 68.856C105.974 68.808 104.318 68.784 102.638 68.784C100.766 68.784 99.0144 68.808 97.3824 68.856C95.7504 68.856 94.4304 68.904 93.4224 69V67.56C95.0544 67.464 96.2784 67.272 97.0944 66.984C97.9584 66.696 98.5344 66.12 98.8224 65.256C99.1104 64.392 99.2544 63.096 99.2544 61.368V25.656C99.2544 23.88 99.1104 22.584 98.8224 21.768C98.5344 20.904 97.9584 20.328 97.0944 20.04C96.2784 19.704 95.0544 19.512 93.4224 19.464V18.024C94.4304 18.072 95.7504 18.12 97.3824 18.168C99.0144 18.216 100.766 18.24 102.638 18.24C104.318 18.24 105.974 18.216 107.606 18.168C109.286 18.12 110.678 18.072 111.782 18.024Z" fill="#FFAB4B"/>
<path d="M87.3839 18.024V19.464C85.7519 19.512 84.5039 19.704 83.6399 20.04C82.8239 20.328 82.2719 20.904 81.9839 21.768C81.6959 22.584 81.5519 23.88 81.5519 25.656V61.368C81.5519 63.096 81.6959 64.392 81.9839 65.256C82.2719 66.12 82.8239 66.696 83.6399 66.984C84.5039 67.272 85.7519 67.464 87.3839 67.56V69C86.2799 68.904 84.8879 68.856 83.2079 68.856C81.5759 68.808 79.9199 68.784 78.2399 68.784C76.3679 68.784 74.6159 68.808 72.9839 68.856C71.3519 68.856 70.0319 68.904 69.0239 69V67.56C70.6559 67.464 71.8799 67.272 72.6959 66.984C73.5599 66.696 74.1359 66.12 74.4239 65.256C74.7119 64.392 74.8559 63.096 74.8559 61.368V25.656C74.8559 23.88 74.7119 22.584 74.4239 21.768C74.1359 20.904 73.5599 20.328 72.6959 20.04C71.8799 19.704 70.6559 19.512 69.0239 19.464V18.024C70.0319 18.072 71.3519 18.12 72.9839 18.168C74.6159 18.216 76.3679 18.24 78.2399 18.24C79.9199 18.24 81.5759 18.216 83.2079 18.168C84.8879 18.12 86.2799 18.072 87.3839 18.024Z" fill="#FFAB4B"/>
<path d="M53.7799 36.26C54.8199 35.66 55.6599 35.46 56.2999 35.66C56.9799 35.82 57.4599 36.14 57.7399 36.62C58.0199 37.06 58.0599 37.6 57.8599 38.24C57.6599 38.88 57.0399 39.5 55.9999 40.1C54.9999 40.66 53.7599 41.12 52.2799 41.48C50.8399 41.8 48.9999 42.3 46.7599 42.98L46.6999 42.8C48.2999 41.28 49.6399 39.96 50.7199 38.84C51.7999 37.68 52.8199 36.82 53.7799 36.26ZM46.8199 42.8C48.9399 43.44 50.7599 43.94 52.2799 44.3C53.7999 44.66 55.0599 45.12 56.0599 45.68C57.0999 46.28 57.6999 46.92 57.8599 47.6C58.0599 48.24 57.9999 48.8 57.6799 49.28C57.4399 49.72 56.9999 50.02 56.3599 50.18C55.7199 50.34 54.8799 50.12 53.8399 49.52C52.8399 48.96 51.8199 48.14 50.7799 47.06C49.7399 45.94 48.3799 44.58 46.6999 42.98L46.8199 42.8ZM46.8799 42.92C47.3999 45.04 47.8799 46.86 48.3199 48.38C48.7599 49.9 48.9999 51.22 49.0399 52.34C48.9999 53.54 48.7399 54.38 48.2599 54.86C47.7799 55.34 47.2599 55.58 46.6999 55.58C46.1799 55.58 45.6999 55.36 45.2599 54.92C44.8199 54.44 44.5999 53.58 44.5999 52.34C44.5999 51.18 44.8199 49.88 45.2599 48.44C45.6999 47 46.1799 45.16 46.6999 42.92H46.8799ZM46.6999 42.86L46.8199 43.04C45.2199 44.52 43.8799 45.84 42.7999 47C41.7199 48.16 40.6999 49.02 39.7399 49.58C38.6999 50.18 37.8399 50.4 37.1599 50.24C36.5199 50.04 36.0599 49.7 35.7799 49.22C35.4999 48.78 35.4599 48.26 35.6599 47.66C35.8599 47.02 36.4799 46.38 37.5199 45.74C38.5199 45.18 39.7399 44.72 41.1799 44.36C42.6599 44 44.4999 43.5 46.6999 42.86ZM39.6799 36.32C40.6799 36.88 41.6999 37.72 42.7399 38.84C43.7799 39.92 45.1199 41.26 46.7599 42.86L46.6999 43.04C44.6199 42.4 42.7999 41.9 41.2399 41.54C39.7199 41.14 38.4599 40.68 37.4599 40.16C36.4599 39.56 35.8599 38.94 35.6599 38.3C35.4999 37.62 35.5599 37.04 35.8399 36.56C36.0799 36.12 36.5199 35.82 37.1599 35.66C37.7999 35.5 38.6399 35.72 39.6799 36.32ZM46.7599 30.26C47.3199 30.26 47.8199 30.5 48.2599 30.98C48.6999 31.46 48.9199 32.3 48.9199 33.5C48.9199 34.62 48.6999 35.92 48.2599 37.4C47.8599 38.84 47.3799 40.68 46.8199 42.92H46.6399C46.1199 40.8 45.6399 38.98 45.1999 37.46C44.7599 35.94 44.5399 34.62 44.5399 33.5C44.5399 32.3 44.7799 31.46 45.2599 30.98C45.7399 30.5 46.2399 30.26 46.7599 30.26Z" fill="#FFAB4B"/>
<path d="M360.181 18.024V19.464C358.549 19.512 357.301 19.704 356.437 20.04C355.621 20.328 355.069 20.904 354.781 21.768C354.493 22.584 354.349 23.88 354.349 25.656V61.368C354.349 63.096 354.493 64.392 354.781 65.256C355.069 66.12 355.621 66.696 356.437 66.984C357.301 67.272 358.549 67.464 360.181 67.56V69C359.077 68.904 357.685 68.856 356.005 68.856C354.373 68.808 352.717 68.784 351.037 68.784C349.165 68.784 347.413 68.808 345.781 68.856C344.149 68.856 342.829 68.904 341.821 69V67.56C343.453 67.464 344.677 67.272 345.493 66.984C346.357 66.696 346.933 66.12 347.221 65.256C347.509 64.392 347.653 63.096 347.653 61.368V25.656C347.653 23.88 347.509 22.584 347.221 21.768C346.933 20.904 346.357 20.328 345.493 20.04C344.677 19.704 343.453 19.512 341.821 19.464V18.024C342.829 18.072 344.149 18.12 345.781 18.168C347.413 18.216 349.165 18.24 351.037 18.24C352.717 18.24 354.373 18.216 356.005 18.168C357.685 18.12 359.077 18.072 360.181 18.024Z" fill="#FFAB4B"/>
<path d="M335.782 18.024V19.464C334.15 19.512 332.902 19.704 332.038 20.04C331.222 20.328 330.67 20.904 330.382 21.768C330.094 22.584 329.95 23.88 329.95 25.656V61.368C329.95 63.096 330.094 64.392 330.382 65.256C330.67 66.12 331.222 66.696 332.038 66.984C332.902 67.272 334.15 67.464 335.782 67.56V69C334.678 68.904 333.286 68.856 331.606 68.856C329.974 68.808 328.318 68.784 326.638 68.784C324.766 68.784 323.014 68.808 321.382 68.856C319.75 68.856 318.43 68.904 317.422 69V67.56C319.054 67.464 320.278 67.272 321.094 66.984C321.958 66.696 322.534 66.12 322.822 65.256C323.11 64.392 323.254 63.096 323.254 61.368V25.656C323.254 23.88 323.11 22.584 322.822 21.768C322.534 20.904 321.958 20.328 321.094 20.04C320.278 19.704 319.054 19.512 317.422 19.464V18.024C318.43 18.072 319.75 18.12 321.382 18.168C323.014 18.216 324.766 18.24 326.638 18.24C328.318 18.24 329.974 18.216 331.606 18.168C333.286 18.12 334.678 18.072 335.782 18.024Z" fill="#FFAB4B"/>
<path d="M311.384 18.024V19.464C309.752 19.512 308.504 19.704 307.64 20.04C306.824 20.328 306.272 20.904 305.984 21.768C305.696 22.584 305.552 23.88 305.552 25.656V61.368C305.552 63.096 305.696 64.392 305.984 65.256C306.272 66.12 306.824 66.696 307.64 66.984C308.504 67.272 309.752 67.464 311.384 67.56V69C310.28 68.904 308.888 68.856 307.208 68.856C305.576 68.808 303.92 68.784 302.24 68.784C300.368 68.784 298.616 68.808 296.984 68.856C295.352 68.856 294.032 68.904 293.024 69V67.56C294.656 67.464 295.88 67.272 296.696 66.984C297.56 66.696 298.136 66.12 298.424 65.256C298.712 64.392 298.856 63.096 298.856 61.368V25.656C298.856 23.88 298.712 22.584 298.424 21.768C298.136 20.904 297.56 20.328 296.696 20.04C295.88 19.704 294.656 19.512 293.024 19.464V18.024C294.032 18.072 295.352 18.12 296.984 18.168C298.616 18.216 300.368 18.24 302.24 18.24C303.92 18.24 305.576 18.216 307.208 18.168C308.888 18.12 310.28 18.072 311.384 18.024Z" fill="#FFAB4B"/>
<path d="M277.78 36.26C278.82 35.66 279.66 35.46 280.3 35.66C280.98 35.82 281.46 36.14 281.74 36.62C282.02 37.06 282.06 37.6 281.86 38.24C281.66 38.88 281.04 39.5 280 40.1C279 40.66 277.76 41.12 276.28 41.48C274.84 41.8 273 42.3 270.76 42.98L270.7 42.8C272.3 41.28 273.64 39.96 274.72 38.84C275.8 37.68 276.82 36.82 277.78 36.26ZM270.82 42.8C272.94 43.44 274.76 43.94 276.28 44.3C277.8 44.66 279.06 45.12 280.06 45.68C281.1 46.28 281.7 46.92 281.86 47.6C282.06 48.24 282 48.8 281.68 49.28C281.44 49.72 281 50.02 280.36 50.18C279.72 50.34 278.88 50.12 277.84 49.52C276.84 48.96 275.82 48.14 274.78 47.06C273.74 45.94 272.38 44.58 270.7 42.98L270.82 42.8ZM270.88 42.92C271.4 45.04 271.88 46.86 272.32 48.38C272.76 49.9 273 51.22 273.04 52.34C273 53.54 272.74 54.38 272.26 54.86C271.78 55.34 271.26 55.58 270.7 55.58C270.18 55.58 269.7 55.36 269.26 54.92C268.82 54.44 268.6 53.58 268.6 52.34C268.6 51.18 268.82 49.88 269.26 48.44C269.7 47 270.18 45.16 270.7 42.92H270.88ZM270.7 42.86L270.82 43.04C269.22 44.52 267.88 45.84 266.8 47C265.72 48.16 264.7 49.02 263.74 49.58C262.7 50.18 261.84 50.4 261.16 50.24C260.52 50.04 260.06 49.7 259.78 49.22C259.5 48.78 259.46 48.26 259.66 47.66C259.86 47.02 260.48 46.38 261.52 45.74C262.52 45.18 263.74 44.72 265.18 44.36C266.66 44 268.5 43.5 270.7 42.86ZM263.68 36.32C264.68 36.88 265.7 37.72 266.74 38.84C267.78 39.92 269.12 41.26 270.76 42.86L270.7 43.04C268.62 42.4 266.8 41.9 265.24 41.54C263.72 41.14 262.46 40.68 261.46 40.16C260.46 39.56 259.86 38.94 259.66 38.3C259.5 37.62 259.56 37.04 259.84 36.56C260.08 36.12 260.52 35.82 261.16 35.66C261.8 35.5 262.64 35.72 263.68 36.32ZM270.76 30.26C271.32 30.26 271.82 30.5 272.26 30.98C272.7 31.46 272.92 32.3 272.92 33.5C272.92 34.62 272.7 35.92 272.26 37.4C271.86 38.84 271.38 40.68 270.82 42.92H270.64C270.12 40.8 269.64 38.98 269.2 37.46C268.76 35.94 268.54 34.62 268.54 33.5C268.54 32.3 268.78 31.46 269.26 30.98C269.74 30.5 270.24 30.26 270.76 30.26Z" fill="#FFAB4B"/>
<path d="M584.181 18.024V19.464C582.549 19.512 581.301 19.704 580.437 20.04C579.621 20.328 579.069 20.904 578.781 21.768C578.493 22.584 578.349 23.88 578.349 25.656V61.368C578.349 63.096 578.493 64.392 578.781 65.256C579.069 66.12 579.621 66.696 580.437 66.984C581.301 67.272 582.549 67.464 584.181 67.56V69C583.077 68.904 581.685 68.856 580.005 68.856C578.373 68.808 576.717 68.784 575.037 68.784C573.165 68.784 571.413 68.808 569.781 68.856C568.149 68.856 566.829 68.904 565.821 69V67.56C567.453 67.464 568.677 67.272 569.493 66.984C570.357 66.696 570.933 66.12 571.221 65.256C571.509 64.392 571.653 63.096 571.653 61.368V25.656C571.653 23.88 571.509 22.584 571.221 21.768C570.933 20.904 570.357 20.328 569.493 20.04C568.677 19.704 567.453 19.512 565.821 19.464V18.024C566.829 18.072 568.149 18.12 569.781 18.168C571.413 18.216 573.165 18.24 575.037 18.24C576.717 18.24 578.373 18.216 580.005 18.168C581.685 18.12 583.077 18.072 584.181 18.024Z" fill="#FFAB4B"/>
<path d="M559.782 18.024V19.464C558.15 19.512 556.902 19.704 556.038 20.04C555.222 20.328 554.67 20.904 554.382 21.768C554.094 22.584 553.95 23.88 553.95 25.656V61.368C553.95 63.096 554.094 64.392 554.382 65.256C554.67 66.12 555.222 66.696 556.038 66.984C556.902 67.272 558.15 67.464 559.782 67.56V69C558.678 68.904 557.286 68.856 555.606 68.856C553.974 68.808 552.318 68.784 550.638 68.784C548.766 68.784 547.014 68.808 545.382 68.856C543.75 68.856 542.43 68.904 541.422 69V67.56C543.054 67.464 544.278 67.272 545.094 66.984C545.958 66.696 546.534 66.12 546.822 65.256C547.11 64.392 547.254 63.096 547.254 61.368V25.656C547.254 23.88 547.11 22.584 546.822 21.768C546.534 20.904 545.958 20.328 545.094 20.04C544.278 19.704 543.054 19.512 541.422 19.464V18.024C542.43 18.072 543.75 18.12 545.382 18.168C547.014 18.216 548.766 18.24 550.638 18.24C552.318 18.24 553.974 18.216 555.606 18.168C557.286 18.12 558.678 18.072 559.782 18.024Z" fill="#FFAB4B"/>
<path d="M535.384 18.024V19.464C533.752 19.512 532.504 19.704 531.64 20.04C530.824 20.328 530.272 20.904 529.984 21.768C529.696 22.584 529.552 23.88 529.552 25.656V61.368C529.552 63.096 529.696 64.392 529.984 65.256C530.272 66.12 530.824 66.696 531.64 66.984C532.504 67.272 533.752 67.464 535.384 67.56V69C534.28 68.904 532.888 68.856 531.208 68.856C529.576 68.808 527.92 68.784 526.24 68.784C524.368 68.784 522.616 68.808 520.984 68.856C519.352 68.856 518.032 68.904 517.024 69V67.56C518.656 67.464 519.88 67.272 520.696 66.984C521.56 66.696 522.136 66.12 522.424 65.256C522.712 64.392 522.856 63.096 522.856 61.368V25.656C522.856 23.88 522.712 22.584 522.424 21.768C522.136 20.904 521.56 20.328 520.696 20.04C519.88 19.704 518.656 19.512 517.024 19.464V18.024C518.032 18.072 519.352 18.12 520.984 18.168C522.616 18.216 524.368 18.24 526.24 18.24C527.92 18.24 529.576 18.216 531.208 18.168C532.888 18.12 534.28 18.072 535.384 18.024Z" fill="#FFAB4B"/>
<path d="M501.78 36.26C502.82 35.66 503.66 35.46 504.3 35.66C504.98 35.82 505.46 36.14 505.74 36.62C506.02 37.06 506.06 37.6 505.86 38.24C505.66 38.88 505.04 39.5 504 40.1C503 40.66 501.76 41.12 500.28 41.48C498.84 41.8 497 42.3 494.76 42.98L494.7 42.8C496.3 41.28 497.64 39.96 498.72 38.84C499.8 37.68 500.82 36.82 501.78 36.26ZM494.82 42.8C496.94 43.44 498.76 43.94 500.28 44.3C501.8 44.66 503.06 45.12 504.06 45.68C505.1 46.28 505.7 46.92 505.86 47.6C506.06 48.24 506 48.8 505.68 49.28C505.44 49.72 505 50.02 504.36 50.18C503.72 50.34 502.88 50.12 501.84 49.52C500.84 48.96 499.82 48.14 498.78 47.06C497.74 45.94 496.38 44.58 494.7 42.98L494.82 42.8ZM494.88 42.92C495.4 45.04 495.88 46.86 496.32 48.38C496.76 49.9 497 51.22 497.04 52.34C497 53.54 496.74 54.38 496.26 54.86C495.78 55.34 495.26 55.58 494.7 55.58C494.18 55.58 493.7 55.36 493.26 54.92C492.82 54.44 492.6 53.58 492.6 52.34C492.6 51.18 492.82 49.88 493.26 48.44C493.7 47 494.18 45.16 494.7 42.92H494.88ZM494.7 42.86L494.82 43.04C493.22 44.52 491.88 45.84 490.8 47C489.72 48.16 488.7 49.02 487.74 49.58C486.7 50.18 485.84 50.4 485.16 50.24C484.52 50.04 484.06 49.7 483.78 49.22C483.5 48.78 483.46 48.26 483.66 47.66C483.86 47.02 484.48 46.38 485.52 45.74C486.52 45.18 487.74 44.72 489.18 44.36C490.66 44 492.5 43.5 494.7 42.86ZM487.68 36.32C488.68 36.88 489.7 37.72 490.74 38.84C491.78 39.92 493.12 41.26 494.76 42.86L494.7 43.04C492.62 42.4 490.8 41.9 489.24 41.54C487.72 41.14 486.46 40.68 485.46 40.16C484.46 39.56 483.86 38.94 483.66 38.3C483.5 37.62 483.56 37.04 483.84 36.56C484.08 36.12 484.52 35.82 485.16 35.66C485.8 35.5 486.64 35.72 487.68 36.32ZM494.76 30.26C495.32 30.26 495.82 30.5 496.26 30.98C496.7 31.46 496.92 32.3 496.92 33.5C496.92 34.62 496.7 35.92 496.26 37.4C495.86 38.84 495.38 40.68 494.82 42.92H494.64C494.12 40.8 493.64 38.98 493.2 37.46C492.76 35.94 492.54 34.62 492.54 33.5C492.54 32.3 492.78 31.46 493.26 30.98C493.74 30.5 494.24 30.26 494.76 30.26Z" fill="#FFAB4B"/>
<path d="M808.181 18.024V19.464C806.549 19.512 805.301 19.704 804.437 20.04C803.621 20.328 803.069 20.904 802.781 21.768C802.493 22.584 802.349 23.88 802.349 25.656V61.368C802.349 63.096 802.493 64.392 802.781 65.256C803.069 66.12 803.621 66.696 804.437 66.984C805.301 67.272 806.549 67.464 808.181 67.56V69C807.077 68.904 805.685 68.856 804.005 68.856C802.373 68.808 800.717 68.784 799.037 68.784C797.165 68.784 795.413 68.808 793.781 68.856C792.149 68.856 790.829 68.904 789.821 69V67.56C791.453 67.464 792.677 67.272 793.493 66.984C794.357 66.696 794.933 66.12 795.221 65.256C795.509 64.392 795.653 63.096 795.653 61.368V25.656C795.653 23.88 795.509 22.584 795.221 21.768C794.933 20.904 794.357 20.328 793.493 20.04C792.677 19.704 791.453 19.512 789.821 19.464V18.024C790.829 18.072 792.149 18.12 793.781 18.168C795.413 18.216 797.165 18.24 799.037 18.24C800.717 18.24 802.373 18.216 804.005 18.168C805.685 18.12 807.077 18.072 808.181 18.024Z" fill="#FFAB4B"/>
<path d="M783.782 18.024V19.464C782.15 19.512 780.902 19.704 780.038 20.04C779.222 20.328 778.67 20.904 778.382 21.768C778.094 22.584 777.95 23.88 777.95 25.656V61.368C777.95 63.096 778.094 64.392 778.382 65.256C778.67 66.12 779.222 66.696 780.038 66.984C780.902 67.272 782.15 67.464 783.782 67.56V69C782.678 68.904 781.286 68.856 779.606 68.856C777.974 68.808 776.318 68.784 774.638 68.784C772.766 68.784 771.014 68.808 769.382 68.856C767.75 68.856 766.43 68.904 765.422 69V67.56C767.054 67.464 768.278 67.272 769.094 66.984C769.958 66.696 770.534 66.12 770.822 65.256C771.11 64.392 771.254 63.096 771.254 61.368V25.656C771.254 23.88 771.11 22.584 770.822 21.768C770.534 20.904 769.958 20.328 769.094 20.04C768.278 19.704 767.054 19.512 765.422 19.464V18.024C766.43 18.072 767.75 18.12 769.382 18.168C771.014 18.216 772.766 18.24 774.638 18.24C776.318 18.24 777.974 18.216 779.606 18.168C781.286 18.12 782.678 18.072 783.782 18.024Z" fill="#FFAB4B"/>
<path d="M759.384 18.024V19.464C757.752 19.512 756.504 19.704 755.64 20.04C754.824 20.328 754.272 20.904 753.984 21.768C753.696 22.584 753.552 23.88 753.552 25.656V61.368C753.552 63.096 753.696 64.392 753.984 65.256C754.272 66.12 754.824 66.696 755.64 66.984C756.504 67.272 757.752 67.464 759.384 67.56V69C758.28 68.904 756.888 68.856 755.208 68.856C753.576 68.808 751.92 68.784 750.24 68.784C748.368 68.784 746.616 68.808 744.984 68.856C743.352 68.856 742.032 68.904 741.024 69V67.56C742.656 67.464 743.88 67.272 744.696 66.984C745.56 66.696 746.136 66.12 746.424 65.256C746.712 64.392 746.856 63.096 746.856 61.368V25.656C746.856 23.88 746.712 22.584 746.424 21.768C746.136 20.904 745.56 20.328 744.696 20.04C743.88 19.704 742.656 19.512 741.024 19.464V18.024C742.032 18.072 743.352 18.12 744.984 18.168C746.616 18.216 748.368 18.24 750.24 18.24C751.92 18.24 753.576 18.216 755.208 18.168C756.888 18.12 758.28 18.072 759.384 18.024Z" fill="#FFAB4B"/>
<path d="M725.78 36.26C726.82 35.66 727.66 35.46 728.3 35.66C728.98 35.82 729.46 36.14 729.74 36.62C730.02 37.06 730.06 37.6 729.86 38.24C729.66 38.88 729.04 39.5 728 40.1C727 40.66 725.76 41.12 724.28 41.48C722.84 41.8 721 42.3 718.76 42.98L718.7 42.8C720.3 41.28 721.64 39.96 722.72 38.84C723.8 37.68 724.82 36.82 725.78 36.26ZM718.82 42.8C720.94 43.44 722.76 43.94 724.28 44.3C725.8 44.66 727.06 45.12 728.06 45.68C729.1 46.28 729.7 46.92 729.86 47.6C730.06 48.24 730 48.8 729.68 49.28C729.44 49.72 729 50.02 728.36 50.18C727.72 50.34 726.88 50.12 725.84 49.52C724.84 48.96 723.82 48.14 722.78 47.06C721.74 45.94 720.38 44.58 718.7 42.98L718.82 42.8ZM718.88 42.92C719.4 45.04 719.88 46.86 720.32 48.38C720.76 49.9 721 51.22 721.04 52.34C721 53.54 720.74 54.38 720.26 54.86C719.78 55.34 719.26 55.58 718.7 55.58C718.18 55.58 717.7 55.36 717.26 54.92C716.82 54.44 716.6 53.58 716.6 52.34C716.6 51.18 716.82 49.88 717.26 48.44C717.7 47 718.18 45.16 718.7 42.92H718.88ZM718.7 42.86L718.82 43.04C717.22 44.52 715.88 45.84 714.8 47C713.72 48.16 712.7 49.02 711.74 49.58C710.7 50.18 709.84 50.4 709.16 50.24C708.52 50.04 708.06 49.7 707.78 49.22C707.5 48.78 707.46 48.26 707.66 47.66C707.86 47.02 708.48 46.38 709.52 45.74C710.52 45.18 711.74 44.72 713.18 44.36C714.66 44 716.5 43.5 718.7 42.86ZM711.68 36.32C712.68 36.88 713.7 37.72 714.74 38.84C715.78 39.92 717.12 41.26 718.76 42.86L718.7 43.04C716.62 42.4 714.8 41.9 713.24 41.54C711.72 41.14 710.46 40.68 709.46 40.16C708.46 39.56 707.86 38.94 707.66 38.3C707.5 37.62 707.56 37.04 707.84 36.56C708.08 36.12 708.52 35.82 709.16 35.66C709.8 35.5 710.64 35.72 711.68 36.32ZM718.76 30.26C719.32 30.26 719.82 30.5 720.26 30.98C720.7 31.46 720.92 32.3 720.92 33.5C720.92 34.62 720.7 35.92 720.26 37.4C719.86 38.84 719.38 40.68 718.82 42.92H718.64C718.12 40.8 717.64 38.98 717.2 37.46C716.76 35.94 716.54 34.62 716.54 33.5C716.54 32.3 716.78 31.46 717.26 30.98C717.74 30.5 718.24 30.26 718.76 30.26Z" fill="#FFAB4B"/>
<path d="M1032.18 18.024V19.464C1030.55 19.512 1029.3 19.704 1028.44 20.04C1027.62 20.328 1027.07 20.904 1026.78 21.768C1026.49 22.584 1026.35 23.88 1026.35 25.656V61.368C1026.35 63.096 1026.49 64.392 1026.78 65.256C1027.07 66.12 1027.62 66.696 1028.44 66.984C1029.3 67.272 1030.55 67.464 1032.18 67.56V69C1031.08 68.904 1029.68 68.856 1028 68.856C1026.37 68.808 1024.72 68.784 1023.04 68.784C1021.16 68.784 1019.41 68.808 1017.78 68.856C1016.15 68.856 1014.83 68.904 1013.82 69V67.56C1015.45 67.464 1016.68 67.272 1017.49 66.984C1018.36 66.696 1018.93 66.12 1019.22 65.256C1019.51 64.392 1019.65 63.096 1019.65 61.368V25.656C1019.65 23.88 1019.51 22.584 1019.22 21.768C1018.93 20.904 1018.36 20.328 1017.49 20.04C1016.68 19.704 1015.45 19.512 1013.82 19.464V18.024C1014.83 18.072 1016.15 18.12 1017.78 18.168C1019.41 18.216 1021.16 18.24 1023.04 18.24C1024.72 18.24 1026.37 18.216 1028 18.168C1029.68 18.12 1031.08 18.072 1032.18 18.024Z" fill="#FFAB4B"/>
<path d="M1007.78 18.024V19.464C1006.15 19.512 1004.9 19.704 1004.04 20.04C1003.22 20.328 1002.67 20.904 1002.38 21.768C1002.09 22.584 1001.95 23.88 1001.95 25.656V61.368C1001.95 63.096 1002.09 64.392 1002.38 65.256C1002.67 66.12 1003.22 66.696 1004.04 66.984C1004.9 67.272 1006.15 67.464 1007.78 67.56V69C1006.68 68.904 1005.29 68.856 1003.61 68.856C1001.97 68.808 1000.32 68.784 998.638 68.784C996.766 68.784 995.014 68.808 993.382 68.856C991.75 68.856 990.43 68.904 989.422 69V67.56C991.054 67.464 992.278 67.272 993.094 66.984C993.958 66.696 994.534 66.12 994.822 65.256C995.11 64.392 995.254 63.096 995.254 61.368V25.656C995.254 23.88 995.11 22.584 994.822 21.768C994.534 20.904 993.958 20.328 993.094 20.04C992.278 19.704 991.054 19.512 989.422 19.464V18.024C990.43 18.072 991.75 18.12 993.382 18.168C995.014 18.216 996.766 18.24 998.638 18.24C1000.32 18.24 1001.97 18.216 1003.61 18.168C1005.29 18.12 1006.68 18.072 1007.78 18.024Z" fill="#FFAB4B"/>
<path d="M983.384 18.024V19.464C981.752 19.512 980.504 19.704 979.64 20.04C978.824 20.328 978.272 20.904 977.984 21.768C977.696 22.584 977.552 23.88 977.552 25.656V61.368C977.552 63.096 977.696 64.392 977.984 65.256C978.272 66.12 978.824 66.696 979.64 66.984C980.504 67.272 981.752 67.464 983.384 67.56V69C982.28 68.904 980.888 68.856 979.208 68.856C977.576 68.808 975.92 68.784 974.24 68.784C972.368 68.784 970.616 68.808 968.984 68.856C967.352 68.856 966.032 68.904 965.024 69V67.56C966.656 67.464 967.88 67.272 968.696 66.984C969.56 66.696 970.136 66.12 970.424 65.256C970.712 64.392 970.856 63.096 970.856 61.368V25.656C970.856 23.88 970.712 22.584 970.424 21.768C970.136 20.904 969.56 20.328 968.696 20.04C967.88 19.704 966.656 19.512 965.024 19.464V18.024C966.032 18.072 967.352 18.12 968.984 18.168C970.616 18.216 972.368 18.24 974.24 18.24C975.92 18.24 977.576 18.216 979.208 18.168C980.888 18.12 982.28 18.072 983.384 18.024Z" fill="#FFAB4B"/>
<path d="M949.78 36.26C950.82 35.66 951.66 35.46 952.3 35.66C952.98 35.82 953.46 36.14 953.74 36.62C954.02 37.06 954.06 37.6 953.86 38.24C953.66 38.88 953.04 39.5 952 40.1C951 40.66 949.76 41.12 948.28 41.48C946.84 41.8 945 42.3 942.76 42.98L942.7 42.8C944.3 41.28 945.64 39.96 946.72 38.84C947.8 37.68 948.82 36.82 949.78 36.26ZM942.82 42.8C944.94 43.44 946.76 43.94 948.28 44.3C949.8 44.66 951.06 45.12 952.06 45.68C953.1 46.28 953.7 46.92 953.86 47.6C954.06 48.24 954 48.8 953.68 49.28C953.44 49.72 953 50.02 952.36 50.18C951.72 50.34 950.88 50.12 949.84 49.52C948.84 48.96 947.82 48.14 946.78 47.06C945.74 45.94 944.38 44.58 942.7 42.98L942.82 42.8ZM942.88 42.92C943.4 45.04 943.88 46.86 944.32 48.38C944.76 49.9 945 51.22 945.04 52.34C945 53.54 944.74 54.38 944.26 54.86C943.78 55.34 943.26 55.58 942.7 55.58C942.18 55.58 941.7 55.36 941.26 54.92C940.82 54.44 940.6 53.58 940.6 52.34C940.6 51.18 940.82 49.88 941.26 48.44C941.7 47 942.18 45.16 942.7 42.92H942.88ZM942.7 42.86L942.82 43.04C941.22 44.52 939.88 45.84 938.8 47C937.72 48.16 936.7 49.02 935.74 49.58C934.7 50.18 933.84 50.4 933.16 50.24C932.52 50.04 932.06 49.7 931.78 49.22C931.5 48.78 931.46 48.26 931.66 47.66C931.86 47.02 932.48 46.38 933.52 45.74C934.52 45.18 935.74 44.72 937.18 44.36C938.66 44 940.5 43.5 942.7 42.86ZM935.68 36.32C936.68 36.88 937.7 37.72 938.74 38.84C939.78 39.92 941.12 41.26 942.76 42.86L942.7 43.04C940.62 42.4 938.8 41.9 937.24 41.54C935.72 41.14 934.46 40.68 933.46 40.16C932.46 39.56 931.86 38.94 931.66 38.3C931.5 37.62 931.56 37.04 931.84 36.56C932.08 36.12 932.52 35.82 933.16 35.66C933.8 35.5 934.64 35.72 935.68 36.32ZM942.76 30.26C943.32 30.26 943.82 30.5 944.26 30.98C944.7 31.46 944.92 32.3 944.92 33.5C944.92 34.62 944.7 35.92 944.26 37.4C943.86 38.84 943.38 40.68 942.82 42.92H942.64C942.12 40.8 941.64 38.98 941.2 37.46C940.76 35.94 940.54 34.62 940.54 33.5C940.54 32.3 940.78 31.46 941.26 30.98C941.74 30.5 942.24 30.26 942.76 30.26Z" fill="#FFAB4B"/>
<path d="M1256.18 18.024V19.464C1254.55 19.512 1253.3 19.704 1252.44 20.04C1251.62 20.328 1251.07 20.904 1250.78 21.768C1250.49 22.584 1250.35 23.88 1250.35 25.656V61.368C1250.35 63.096 1250.49 64.392 1250.78 65.256C1251.07 66.12 1251.62 66.696 1252.44 66.984C1253.3 67.272 1254.55 67.464 1256.18 67.56V69C1255.08 68.904 1253.68 68.856 1252 68.856C1250.37 68.808 1248.72 68.784 1247.04 68.784C1245.16 68.784 1243.41 68.808 1241.78 68.856C1240.15 68.856 1238.83 68.904 1237.82 69V67.56C1239.45 67.464 1240.68 67.272 1241.49 66.984C1242.36 66.696 1242.93 66.12 1243.22 65.256C1243.51 64.392 1243.65 63.096 1243.65 61.368V25.656C1243.65 23.88 1243.51 22.584 1243.22 21.768C1242.93 20.904 1242.36 20.328 1241.49 20.04C1240.68 19.704 1239.45 19.512 1237.82 19.464V18.024C1238.83 18.072 1240.15 18.12 1241.78 18.168C1243.41 18.216 1245.16 18.24 1247.04 18.24C1248.72 18.24 1250.37 18.216 1252 18.168C1253.68 18.12 1255.08 18.072 1256.18 18.024Z" fill="#FFAB4B"/>
<path d="M1231.78 18.024V19.464C1230.15 19.512 1228.9 19.704 1228.04 20.04C1227.22 20.328 1226.67 20.904 1226.38 21.768C1226.09 22.584 1225.95 23.88 1225.95 25.656V61.368C1225.95 63.096 1226.09 64.392 1226.38 65.256C1226.67 66.12 1227.22 66.696 1228.04 66.984C1228.9 67.272 1230.15 67.464 1231.78 67.56V69C1230.68 68.904 1229.29 68.856 1227.61 68.856C1225.97 68.808 1224.32 68.784 1222.64 68.784C1220.77 68.784 1219.01 68.808 1217.38 68.856C1215.75 68.856 1214.43 68.904 1213.42 69V67.56C1215.05 67.464 1216.28 67.272 1217.09 66.984C1217.96 66.696 1218.53 66.12 1218.82 65.256C1219.11 64.392 1219.25 63.096 1219.25 61.368V25.656C1219.25 23.88 1219.11 22.584 1218.82 21.768C1218.53 20.904 1217.96 20.328 1217.09 20.04C1216.28 19.704 1215.05 19.512 1213.42 19.464V18.024C1214.43 18.072 1215.75 18.12 1217.38 18.168C1219.01 18.216 1220.77 18.24 1222.64 18.24C1224.32 18.24 1225.97 18.216 1227.61 18.168C1229.29 18.12 1230.68 18.072 1231.78 18.024Z" fill="#FFAB4B"/>
<path d="M1207.38 18.024V19.464C1205.75 19.512 1204.5 19.704 1203.64 20.04C1202.82 20.328 1202.27 20.904 1201.98 21.768C1201.7 22.584 1201.55 23.88 1201.55 25.656V61.368C1201.55 63.096 1201.7 64.392 1201.98 65.256C1202.27 66.12 1202.82 66.696 1203.64 66.984C1204.5 67.272 1205.75 67.464 1207.38 67.56V69C1206.28 68.904 1204.89 68.856 1203.21 68.856C1201.58 68.808 1199.92 68.784 1198.24 68.784C1196.37 68.784 1194.62 68.808 1192.98 68.856C1191.35 68.856 1190.03 68.904 1189.02 69V67.56C1190.66 67.464 1191.88 67.272 1192.7 66.984C1193.56 66.696 1194.14 66.12 1194.42 65.256C1194.71 64.392 1194.86 63.096 1194.86 61.368V25.656C1194.86 23.88 1194.71 22.584 1194.42 21.768C1194.14 20.904 1193.56 20.328 1192.7 20.04C1191.88 19.704 1190.66 19.512 1189.02 19.464V18.024C1190.03 18.072 1191.35 18.12 1192.98 18.168C1194.62 18.216 1196.37 18.24 1198.24 18.24C1199.92 18.24 1201.58 18.216 1203.21 18.168C1204.89 18.12 1206.28 18.072 1207.38 18.024Z" fill="#FFAB4B"/>
<path d="M1173.78 36.26C1174.82 35.66 1175.66 35.46 1176.3 35.66C1176.98 35.82 1177.46 36.14 1177.74 36.62C1178.02 37.06 1178.06 37.6 1177.86 38.24C1177.66 38.88 1177.04 39.5 1176 40.1C1175 40.66 1173.76 41.12 1172.28 41.48C1170.84 41.8 1169 42.3 1166.76 42.98L1166.7 42.8C1168.3 41.28 1169.64 39.96 1170.72 38.84C1171.8 37.68 1172.82 36.82 1173.78 36.26ZM1166.82 42.8C1168.94 43.44 1170.76 43.94 1172.28 44.3C1173.8 44.66 1175.06 45.12 1176.06 45.68C1177.1 46.28 1177.7 46.92 1177.86 47.6C1178.06 48.24 1178 48.8 1177.68 49.28C1177.44 49.72 1177 50.02 1176.36 50.18C1175.72 50.34 1174.88 50.12 1173.84 49.52C1172.84 48.96 1171.82 48.14 1170.78 47.06C1169.74 45.94 1168.38 44.58 1166.7 42.98L1166.82 42.8ZM1166.88 42.92C1167.4 45.04 1167.88 46.86 1168.32 48.38C1168.76 49.9 1169 51.22 1169.04 52.34C1169 53.54 1168.74 54.38 1168.26 54.86C1167.78 55.34 1167.26 55.58 1166.7 55.58C1166.18 55.58 1165.7 55.36 1165.26 54.92C1164.82 54.44 1164.6 53.58 1164.6 52.34C1164.6 51.18 1164.82 49.88 1165.26 48.44C1165.7 47 1166.18 45.16 1166.7 42.92H1166.88ZM1166.7 42.86L1166.82 43.04C1165.22 44.52 1163.88 45.84 1162.8 47C1161.72 48.16 1160.7 49.02 1159.74 49.58C1158.7 50.18 1157.84 50.4 1157.16 50.24C1156.52 50.04 1156.06 49.7 1155.78 49.22C1155.5 48.78 1155.46 48.26 1155.66 47.66C1155.86 47.02 1156.48 46.38 1157.52 45.74C1158.52 45.18 1159.74 44.72 1161.18 44.36C1162.66 44 1164.5 43.5 1166.7 42.86ZM1159.68 36.32C1160.68 36.88 1161.7 37.72 1162.74 38.84C1163.78 39.92 1165.12 41.26 1166.76 42.86L1166.7 43.04C1164.62 42.4 1162.8 41.9 1161.24 41.54C1159.72 41.14 1158.46 40.68 1157.46 40.16C1156.46 39.56 1155.86 38.94 1155.66 38.3C1155.5 37.62 1155.56 37.04 1155.84 36.56C1156.08 36.12 1156.52 35.82 1157.16 35.66C1157.8 35.5 1158.64 35.72 1159.68 36.32ZM1166.76 30.26C1167.32 30.26 1167.82 30.5 1168.26 30.98C1168.7 31.46 1168.92 32.3 1168.92 33.5C1168.92 34.62 1168.7 35.92 1168.26 37.4C1167.86 38.84 1167.38 40.68 1166.82 42.92H1166.64C1166.12 40.8 1165.64 38.98 1165.2 37.46C1164.76 35.94 1164.54 34.62 1164.54 33.5C1164.54 32.3 1164.78 31.46 1165.26 30.98C1165.74 30.5 1166.24 30.26 1166.76 30.26Z" fill="#FFAB4B"/>
<path d="M1397.78 36.26C1398.82 35.66 1399.66 35.46 1400.3 35.66C1400.98 35.82 1401.46 36.14 1401.74 36.62C1402.02 37.06 1402.06 37.6 1401.86 38.24C1401.66 38.88 1401.04 39.5 1400 40.1C1399 40.66 1397.76 41.12 1396.28 41.48C1394.84 41.8 1393 42.3 1390.76 42.98L1390.7 42.8C1392.3 41.28 1393.64 39.96 1394.72 38.84C1395.8 37.68 1396.82 36.82 1397.78 36.26ZM1390.82 42.8C1392.94 43.44 1394.76 43.94 1396.28 44.3C1397.8 44.66 1399.06 45.12 1400.06 45.68C1401.1 46.28 1401.7 46.92 1401.86 47.6C1402.06 48.24 1402 48.8 1401.68 49.28C1401.44 49.72 1401 50.02 1400.36 50.18C1399.72 50.34 1398.88 50.12 1397.84 49.52C1396.84 48.96 1395.82 48.14 1394.78 47.06C1393.74 45.94 1392.38 44.58 1390.7 42.98L1390.82 42.8ZM1390.88 42.92C1391.4 45.04 1391.88 46.86 1392.32 48.38C1392.76 49.9 1393 51.22 1393.04 52.34C1393 53.54 1392.74 54.38 1392.26 54.86C1391.78 55.34 1391.26 55.58 1390.7 55.58C1390.18 55.58 1389.7 55.36 1389.26 54.92C1388.82 54.44 1388.6 53.58 1388.6 52.34C1388.6 51.18 1388.82 49.88 1389.26 48.44C1389.7 47 1390.18 45.16 1390.7 42.92H1390.88ZM1390.7 42.86L1390.82 43.04C1389.22 44.52 1387.88 45.84 1386.8 47C1385.72 48.16 1384.7 49.02 1383.74 49.58C1382.7 50.18 1381.84 50.4 1381.16 50.24C1380.52 50.04 1380.06 49.7 1379.78 49.22C1379.5 48.78 1379.46 48.26 1379.66 47.66C1379.86 47.02 1380.48 46.38 1381.52 45.74C1382.52 45.18 1383.74 44.72 1385.18 44.36C1386.66 44 1388.5 43.5 1390.7 42.86ZM1383.68 36.32C1384.68 36.88 1385.7 37.72 1386.74 38.84C1387.78 39.92 1389.12 41.26 1390.76 42.86L1390.7 43.04C1388.62 42.4 1386.8 41.9 1385.24 41.54C1383.72 41.14 1382.46 40.68 1381.46 40.16C1380.46 39.56 1379.86 38.94 1379.66 38.3C1379.5 37.62 1379.56 37.04 1379.84 36.56C1380.08 36.12 1380.52 35.82 1381.16 35.66C1381.8 35.5 1382.64 35.72 1383.68 36.32ZM1390.76 30.26C1391.32 30.26 1391.82 30.5 1392.26 30.98C1392.7 31.46 1392.92 32.3 1392.92 33.5C1392.92 34.62 1392.7 35.92 1392.26 37.4C1391.86 38.84 1391.38 40.68 1390.82 42.92H1390.64C1390.12 40.8 1389.64 38.98 1389.2 37.46C1388.76 35.94 1388.54 34.62 1388.54 33.5C1388.54 32.3 1388.78 31.46 1389.26 30.98C1389.74 30.5 1390.24 30.26 1390.76 30.26Z" fill="#FFAB4B"/>
<path d="M248.181 18.024V19.464C246.549 19.512 245.301 19.704 244.437 20.04C243.621 20.328 243.069 20.904 242.781 21.768C242.493 22.584 242.349 23.88 242.349 25.656V61.368C242.349 63.096 242.493 64.392 242.781 65.256C243.069 66.12 243.621 66.696 244.437 66.984C245.301 67.272 246.549 67.464 248.181 67.56V69C247.077 68.904 245.685 68.856 244.005 68.856C242.373 68.808 240.717 68.784 239.037 68.784C237.165 68.784 235.413 68.808 233.781 68.856C232.149 68.856 230.829 68.904 229.821 69V67.56C231.453 67.464 232.677 67.272 233.493 66.984C234.357 66.696 234.933 66.12 235.221 65.256C235.509 64.392 235.653 63.096 235.653 61.368V25.656C235.653 23.88 235.509 22.584 235.221 21.768C234.933 20.904 234.357 20.328 233.493 20.04C232.677 19.704 231.453 19.512 229.821 19.464V18.024C230.829 18.072 232.149 18.12 233.781 18.168C235.413 18.216 237.165 18.24 239.037 18.24C240.717 18.24 242.373 18.216 244.005 18.168C245.685 18.12 247.077 18.072 248.181 18.024Z" fill="#FFAB4B"/>
<path d="M223.782 18.024V19.464C222.15 19.512 220.902 19.704 220.038 20.04C219.222 20.328 218.67 20.904 218.382 21.768C218.094 22.584 217.95 23.88 217.95 25.656V61.368C217.95 63.096 218.094 64.392 218.382 65.256C218.67 66.12 219.222 66.696 220.038 66.984C220.902 67.272 222.15 67.464 223.782 67.56V69C222.678 68.904 221.286 68.856 219.606 68.856C217.974 68.808 216.318 68.784 214.638 68.784C212.766 68.784 211.014 68.808 209.382 68.856C207.75 68.856 206.43 68.904 205.422 69V67.56C207.054 67.464 208.278 67.272 209.094 66.984C209.958 66.696 210.534 66.12 210.822 65.256C211.11 64.392 211.254 63.096 211.254 61.368V25.656C211.254 23.88 211.11 22.584 210.822 21.768C210.534 20.904 209.958 20.328 209.094 20.04C208.278 19.704 207.054 19.512 205.422 19.464V18.024C206.43 18.072 207.75 18.12 209.382 18.168C211.014 18.216 212.766 18.24 214.638 18.24C216.318 18.24 217.974 18.216 219.606 18.168C221.286 18.12 222.678 18.072 223.782 18.024Z" fill="#FFAB4B"/>
<path d="M199.384 18.024V19.464C197.752 19.512 196.504 19.704 195.64 20.04C194.824 20.328 194.272 20.904 193.984 21.768C193.696 22.584 193.552 23.88 193.552 25.656V61.368C193.552 63.096 193.696 64.392 193.984 65.256C194.272 66.12 194.824 66.696 195.64 66.984C196.504 67.272 197.752 67.464 199.384 67.56V69C198.28 68.904 196.888 68.856 195.208 68.856C193.576 68.808 191.92 68.784 190.24 68.784C188.368 68.784 186.616 68.808 184.984 68.856C183.352 68.856 182.032 68.904 181.024 69V67.56C182.656 67.464 183.88 67.272 184.696 66.984C185.56 66.696 186.136 66.12 186.424 65.256C186.712 64.392 186.856 63.096 186.856 61.368V25.656C186.856 23.88 186.712 22.584 186.424 21.768C186.136 20.904 185.56 20.328 184.696 20.04C183.88 19.704 182.656 19.512 181.024 19.464V18.024C182.032 18.072 183.352 18.12 184.984 18.168C186.616 18.216 188.368 18.24 190.24 18.24C191.92 18.24 193.576 18.216 195.208 18.168C196.888 18.12 198.28 18.072 199.384 18.024Z" fill="#FFAB4B"/>
<path d="M165.78 36.26C166.82 35.66 167.66 35.46 168.3 35.66C168.98 35.82 169.46 36.14 169.74 36.62C170.02 37.06 170.06 37.6 169.86 38.24C169.66 38.88 169.04 39.5 168 40.1C167 40.66 165.76 41.12 164.28 41.48C162.84 41.8 161 42.3 158.76 42.98L158.7 42.8C160.3 41.28 161.64 39.96 162.72 38.84C163.8 37.68 164.82 36.82 165.78 36.26ZM158.82 42.8C160.94 43.44 162.76 43.94 164.28 44.3C165.8 44.66 167.06 45.12 168.06 45.68C169.1 46.28 169.7 46.92 169.86 47.6C170.06 48.24 170 48.8 169.68 49.28C169.44 49.72 169 50.02 168.36 50.18C167.72 50.34 166.88 50.12 165.84 49.52C164.84 48.96 163.82 48.14 162.78 47.06C161.74 45.94 160.38 44.58 158.7 42.98L158.82 42.8ZM158.88 42.92C159.4 45.04 159.88 46.86 160.32 48.38C160.76 49.9 161 51.22 161.04 52.34C161 53.54 160.74 54.38 160.26 54.86C159.78 55.34 159.26 55.58 158.7 55.58C158.18 55.58 157.7 55.36 157.26 54.92C156.82 54.44 156.6 53.58 156.6 52.34C156.6 51.18 156.82 49.88 157.26 48.44C157.7 47 158.18 45.16 158.7 42.92H158.88ZM158.7 42.86L158.82 43.04C157.22 44.52 155.88 45.84 154.8 47C153.72 48.16 152.7 49.02 151.74 49.58C150.7 50.18 149.84 50.4 149.16 50.24C148.52 50.04 148.06 49.7 147.78 49.22C147.5 48.78 147.46 48.26 147.66 47.66C147.86 47.02 148.48 46.38 149.52 45.74C150.52 45.18 151.74 44.72 153.18 44.36C154.66 44 156.5 43.5 158.7 42.86ZM151.68 36.32C152.68 36.88 153.7 37.72 154.74 38.84C155.78 39.92 157.12 41.26 158.76 42.86L158.7 43.04C156.62 42.4 154.8 41.9 153.24 41.54C151.72 41.14 150.46 40.68 149.46 40.16C148.46 39.56 147.86 38.94 147.66 38.3C147.5 37.62 147.56 37.04 147.84 36.56C148.08 36.12 148.52 35.82 149.16 35.66C149.8 35.5 150.64 35.72 151.68 36.32ZM158.76 30.26C159.32 30.26 159.82 30.5 160.26 30.98C160.7 31.46 160.92 32.3 160.92 33.5C160.92 34.62 160.7 35.92 160.26 37.4C159.86 38.84 159.38 40.68 158.82 42.92H158.64C158.12 40.8 157.64 38.98 157.2 37.46C156.76 35.94 156.54 34.62 156.54 33.5C156.54 32.3 156.78 31.46 157.26 30.98C157.74 30.5 158.24 30.26 158.76 30.26Z" fill="#FFAB4B"/>
<path d="M472.181 18.024V19.464C470.549 19.512 469.301 19.704 468.437 20.04C467.621 20.328 467.069 20.904 466.781 21.768C466.493 22.584 466.349 23.88 466.349 25.656V61.368C466.349 63.096 466.493 64.392 466.781 65.256C467.069 66.12 467.621 66.696 468.437 66.984C469.301 67.272 470.549 67.464 472.181 67.56V69C471.077 68.904 469.685 68.856 468.005 68.856C466.373 68.808 464.717 68.784 463.037 68.784C461.165 68.784 459.413 68.808 457.781 68.856C456.149 68.856 454.829 68.904 453.821 69V67.56C455.453 67.464 456.677 67.272 457.493 66.984C458.357 66.696 458.933 66.12 459.221 65.256C459.509 64.392 459.653 63.096 459.653 61.368V25.656C459.653 23.88 459.509 22.584 459.221 21.768C458.933 20.904 458.357 20.328 457.493 20.04C456.677 19.704 455.453 19.512 453.821 19.464V18.024C454.829 18.072 456.149 18.12 457.781 18.168C459.413 18.216 461.165 18.24 463.037 18.24C464.717 18.24 466.373 18.216 468.005 18.168C469.685 18.12 471.077 18.072 472.181 18.024Z" fill="#FFAB4B"/>
<path d="M447.782 18.024V19.464C446.15 19.512 444.902 19.704 444.038 20.04C443.222 20.328 442.67 20.904 442.382 21.768C442.094 22.584 441.95 23.88 441.95 25.656V61.368C441.95 63.096 442.094 64.392 442.382 65.256C442.67 66.12 443.222 66.696 444.038 66.984C444.902 67.272 446.15 67.464 447.782 67.56V69C446.678 68.904 445.286 68.856 443.606 68.856C441.974 68.808 440.318 68.784 438.638 68.784C436.766 68.784 435.014 68.808 433.382 68.856C431.75 68.856 430.43 68.904 429.422 69V67.56C431.054 67.464 432.278 67.272 433.094 66.984C433.958 66.696 434.534 66.12 434.822 65.256C435.11 64.392 435.254 63.096 435.254 61.368V25.656C435.254 23.88 435.11 22.584 434.822 21.768C434.534 20.904 433.958 20.328 433.094 20.04C432.278 19.704 431.054 19.512 429.422 19.464V18.024C430.43 18.072 431.75 18.12 433.382 18.168C435.014 18.216 436.766 18.24 438.638 18.24C440.318 18.24 441.974 18.216 443.606 18.168C445.286 18.12 446.678 18.072 447.782 18.024Z" fill="#FFAB4B"/>
<path d="M423.384 18.024V19.464C421.752 19.512 420.504 19.704 419.64 20.04C418.824 20.328 418.272 20.904 417.984 21.768C417.696 22.584 417.552 23.88 417.552 25.656V61.368C417.552 63.096 417.696 64.392 417.984 65.256C418.272 66.12 418.824 66.696 419.64 66.984C420.504 67.272 421.752 67.464 423.384 67.56V69C422.28 68.904 420.888 68.856 419.208 68.856C417.576 68.808 415.92 68.784 414.24 68.784C412.368 68.784 410.616 68.808 408.984 68.856C407.352 68.856 406.032 68.904 405.024 69V67.56C406.656 67.464 407.88 67.272 408.696 66.984C409.56 66.696 410.136 66.12 410.424 65.256C410.712 64.392 410.856 63.096 410.856 61.368V25.656C410.856 23.88 410.712 22.584 410.424 21.768C410.136 20.904 409.56 20.328 408.696 20.04C407.88 19.704 406.656 19.512 405.024 19.464V18.024C406.032 18.072 407.352 18.12 408.984 18.168C410.616 18.216 412.368 18.24 414.24 18.24C415.92 18.24 417.576 18.216 419.208 18.168C420.888 18.12 422.28 18.072 423.384 18.024Z" fill="#FFAB4B"/>
<path d="M389.78 36.26C390.82 35.66 391.66 35.46 392.3 35.66C392.98 35.82 393.46 36.14 393.74 36.62C394.02 37.06 394.06 37.6 393.86 38.24C393.66 38.88 393.04 39.5 392 40.1C391 40.66 389.76 41.12 388.28 41.48C386.84 41.8 385 42.3 382.76 42.98L382.7 42.8C384.3 41.28 385.64 39.96 386.72 38.84C387.8 37.68 388.82 36.82 389.78 36.26ZM382.82 42.8C384.94 43.44 386.76 43.94 388.28 44.3C389.8 44.66 391.06 45.12 392.06 45.68C393.1 46.28 393.7 46.92 393.86 47.6C394.06 48.24 394 48.8 393.68 49.28C393.44 49.72 393 50.02 392.36 50.18C391.72 50.34 390.88 50.12 389.84 49.52C388.84 48.96 387.82 48.14 386.78 47.06C385.74 45.94 384.38 44.58 382.7 42.98L382.82 42.8ZM382.88 42.92C383.4 45.04 383.88 46.86 384.32 48.38C384.76 49.9 385 51.22 385.04 52.34C385 53.54 384.74 54.38 384.26 54.86C383.78 55.34 383.26 55.58 382.7 55.58C382.18 55.58 381.7 55.36 381.26 54.92C380.82 54.44 380.6 53.58 380.6 52.34C380.6 51.18 380.82 49.88 381.26 48.44C381.7 47 382.18 45.16 382.7 42.92H382.88ZM382.7 42.86L382.82 43.04C381.22 44.52 379.88 45.84 378.8 47C377.72 48.16 376.7 49.02 375.74 49.58C374.7 50.18 373.84 50.4 373.16 50.24C372.52 50.04 372.06 49.7 371.78 49.22C371.5 48.78 371.46 48.26 371.66 47.66C371.86 47.02 372.48 46.38 373.52 45.74C374.52 45.18 375.74 44.72 377.18 44.36C378.66 44 380.5 43.5 382.7 42.86ZM375.68 36.32C376.68 36.88 377.7 37.72 378.74 38.84C379.78 39.92 381.12 41.26 382.76 42.86L382.7 43.04C380.62 42.4 378.8 41.9 377.24 41.54C375.72 41.14 374.46 40.68 373.46 40.16C372.46 39.56 371.86 38.94 371.66 38.3C371.5 37.62 371.56 37.04 371.84 36.56C372.08 36.12 372.52 35.82 373.16 35.66C373.8 35.5 374.64 35.72 375.68 36.32ZM382.76 30.26C383.32 30.26 383.82 30.5 384.26 30.98C384.7 31.46 384.92 32.3 384.92 33.5C384.92 34.62 384.7 35.92 384.26 37.4C383.86 38.84 383.38 40.68 382.82 42.92H382.64C382.12 40.8 381.64 38.98 381.2 37.46C380.76 35.94 380.54 34.62 380.54 33.5C380.54 32.3 380.78 31.46 381.26 30.98C381.74 30.5 382.24 30.26 382.76 30.26Z" fill="#FFAB4B"/>
<path d="M696.181 18.024V19.464C694.549 19.512 693.301 19.704 692.437 20.04C691.621 20.328 691.069 20.904 690.781 21.768C690.493 22.584 690.349 23.88 690.349 25.656V61.368C690.349 63.096 690.493 64.392 690.781 65.256C691.069 66.12 691.621 66.696 692.437 66.984C693.301 67.272 694.549 67.464 696.181 67.56V69C695.077 68.904 693.685 68.856 692.005 68.856C690.373 68.808 688.717 68.784 687.037 68.784C685.165 68.784 683.413 68.808 681.781 68.856C680.149 68.856 678.829 68.904 677.821 69V67.56C679.453 67.464 680.677 67.272 681.493 66.984C682.357 66.696 682.933 66.12 683.221 65.256C683.509 64.392 683.653 63.096 683.653 61.368V25.656C683.653 23.88 683.509 22.584 683.221 21.768C682.933 20.904 682.357 20.328 681.493 20.04C680.677 19.704 679.453 19.512 677.821 19.464V18.024C678.829 18.072 680.149 18.12 681.781 18.168C683.413 18.216 685.165 18.24 687.037 18.24C688.717 18.24 690.373 18.216 692.005 18.168C693.685 18.12 695.077 18.072 696.181 18.024Z" fill="#FFAB4B"/>
<path d="M671.782 18.024V19.464C670.15 19.512 668.902 19.704 668.038 20.04C667.222 20.328 666.67 20.904 666.382 21.768C666.094 22.584 665.95 23.88 665.95 25.656V61.368C665.95 63.096 666.094 64.392 666.382 65.256C666.67 66.12 667.222 66.696 668.038 66.984C668.902 67.272 670.15 67.464 671.782 67.56V69C670.678 68.904 669.286 68.856 667.606 68.856C665.974 68.808 664.318 68.784 662.638 68.784C660.766 68.784 659.014 68.808 657.382 68.856C655.75 68.856 654.43 68.904 653.422 69V67.56C655.054 67.464 656.278 67.272 657.094 66.984C657.958 66.696 658.534 66.12 658.822 65.256C659.11 64.392 659.254 63.096 659.254 61.368V25.656C659.254 23.88 659.11 22.584 658.822 21.768C658.534 20.904 657.958 20.328 657.094 20.04C656.278 19.704 655.054 19.512 653.422 19.464V18.024C654.43 18.072 655.75 18.12 657.382 18.168C659.014 18.216 660.766 18.24 662.638 18.24C664.318 18.24 665.974 18.216 667.606 18.168C669.286 18.12 670.678 18.072 671.782 18.024Z" fill="#FFAB4B"/>
<path d="M647.384 18.024V19.464C645.752 19.512 644.504 19.704 643.64 20.04C642.824 20.328 642.272 20.904 641.984 21.768C641.696 22.584 641.552 23.88 641.552 25.656V61.368C641.552 63.096 641.696 64.392 641.984 65.256C642.272 66.12 642.824 66.696 643.64 66.984C644.504 67.272 645.752 67.464 647.384 67.56V69C646.28 68.904 644.888 68.856 643.208 68.856C641.576 68.808 639.92 68.784 638.24 68.784C636.368 68.784 634.616 68.808 632.984 68.856C631.352 68.856 630.032 68.904 629.024 69V67.56C630.656 67.464 631.88 67.272 632.696 66.984C633.56 66.696 634.136 66.12 634.424 65.256C634.712 64.392 634.856 63.096 634.856 61.368V25.656C634.856 23.88 634.712 22.584 634.424 21.768C634.136 20.904 633.56 20.328 632.696 20.04C631.88 19.704 630.656 19.512 629.024 19.464V18.024C630.032 18.072 631.352 18.12 632.984 18.168C634.616 18.216 636.368 18.24 638.24 18.24C639.92 18.24 641.576 18.216 643.208 18.168C644.888 18.12 646.28 18.072 647.384 18.024Z" fill="#FFAB4B"/>
<path d="M613.78 36.26C614.82 35.66 615.66 35.46 616.3 35.66C616.98 35.82 617.46 36.14 617.74 36.62C618.02 37.06 618.06 37.6 617.86 38.24C617.66 38.88 617.04 39.5 616 40.1C615 40.66 613.76 41.12 612.28 41.48C610.84 41.8 609 42.3 606.76 42.98L606.7 42.8C608.3 41.28 609.64 39.96 610.72 38.84C611.8 37.68 612.82 36.82 613.78 36.26ZM606.82 42.8C608.94 43.44 610.76 43.94 612.28 44.3C613.8 44.66 615.06 45.12 616.06 45.68C617.1 46.28 617.7 46.92 617.86 47.6C618.06 48.24 618 48.8 617.68 49.28C617.44 49.72 617 50.02 616.36 50.18C615.72 50.34 614.88 50.12 613.84 49.52C612.84 48.96 611.82 48.14 610.78 47.06C609.74 45.94 608.38 44.58 606.7 42.98L606.82 42.8ZM606.88 42.92C607.4 45.04 607.88 46.86 608.32 48.38C608.76 49.9 609 51.22 609.04 52.34C609 53.54 608.74 54.38 608.26 54.86C607.78 55.34 607.26 55.58 606.7 55.58C606.18 55.58 605.7 55.36 605.26 54.92C604.82 54.44 604.6 53.58 604.6 52.34C604.6 51.18 604.82 49.88 605.26 48.44C605.7 47 606.18 45.16 606.7 42.92H606.88ZM606.7 42.86L606.82 43.04C605.22 44.52 603.88 45.84 602.8 47C601.72 48.16 600.7 49.02 599.74 49.58C598.7 50.18 597.84 50.4 597.16 50.24C596.52 50.04 596.06 49.7 595.78 49.22C595.5 48.78 595.46 48.26 595.66 47.66C595.86 47.02 596.48 46.38 597.52 45.74C598.52 45.18 599.74 44.72 601.18 44.36C602.66 44 604.5 43.5 606.7 42.86ZM599.68 36.32C600.68 36.88 601.7 37.72 602.74 38.84C603.78 39.92 605.12 41.26 606.76 42.86L606.7 43.04C604.62 42.4 602.8 41.9 601.24 41.54C599.72 41.14 598.46 40.68 597.46 40.16C596.46 39.56 595.86 38.94 595.66 38.3C595.5 37.62 595.56 37.04 595.84 36.56C596.08 36.12 596.52 35.82 597.16 35.66C597.8 35.5 598.64 35.72 599.68 36.32ZM606.76 30.26C607.32 30.26 607.82 30.5 608.26 30.98C608.7 31.46 608.92 32.3 608.92 33.5C608.92 34.62 608.7 35.92 608.26 37.4C607.86 38.84 607.38 40.68 606.82 42.92H606.64C606.12 40.8 605.64 38.98 605.2 37.46C604.76 35.94 604.54 34.62 604.54 33.5C604.54 32.3 604.78 31.46 605.26 30.98C605.74 30.5 606.24 30.26 606.76 30.26Z" fill="#FFAB4B"/>
<path d="M920.181 18.024V19.464C918.549 19.512 917.301 19.704 916.437 20.04C915.621 20.328 915.069 20.904 914.781 21.768C914.493 22.584 914.349 23.88 914.349 25.656V61.368C914.349 63.096 914.493 64.392 914.781 65.256C915.069 66.12 915.621 66.696 916.437 66.984C917.301 67.272 918.549 67.464 920.181 67.56V69C919.077 68.904 917.685 68.856 916.005 68.856C914.373 68.808 912.717 68.784 911.037 68.784C909.165 68.784 907.413 68.808 905.781 68.856C904.149 68.856 902.829 68.904 901.821 69V67.56C903.453 67.464 904.677 67.272 905.493 66.984C906.357 66.696 906.933 66.12 907.221 65.256C907.509 64.392 907.653 63.096 907.653 61.368V25.656C907.653 23.88 907.509 22.584 907.221 21.768C906.933 20.904 906.357 20.328 905.493 20.04C904.677 19.704 903.453 19.512 901.821 19.464V18.024C902.829 18.072 904.149 18.12 905.781 18.168C907.413 18.216 909.165 18.24 911.037 18.24C912.717 18.24 914.373 18.216 916.005 18.168C917.685 18.12 919.077 18.072 920.181 18.024Z" fill="#FFAB4B"/>
<path d="M895.782 18.024V19.464C894.15 19.512 892.902 19.704 892.038 20.04C891.222 20.328 890.67 20.904 890.382 21.768C890.094 22.584 889.95 23.88 889.95 25.656V61.368C889.95 63.096 890.094 64.392 890.382 65.256C890.67 66.12 891.222 66.696 892.038 66.984C892.902 67.272 894.15 67.464 895.782 67.56V69C894.678 68.904 893.286 68.856 891.606 68.856C889.974 68.808 888.318 68.784 886.638 68.784C884.766 68.784 883.014 68.808 881.382 68.856C879.75 68.856 878.43 68.904 877.422 69V67.56C879.054 67.464 880.278 67.272 881.094 66.984C881.958 66.696 882.534 66.12 882.822 65.256C883.11 64.392 883.254 63.096 883.254 61.368V25.656C883.254 23.88 883.11 22.584 882.822 21.768C882.534 20.904 881.958 20.328 881.094 20.04C880.278 19.704 879.054 19.512 877.422 19.464V18.024C878.43 18.072 879.75 18.12 881.382 18.168C883.014 18.216 884.766 18.24 886.638 18.24C888.318 18.24 889.974 18.216 891.606 18.168C893.286 18.12 894.678 18.072 895.782 18.024Z" fill="#FFAB4B"/>
<path d="M871.384 18.024V19.464C869.752 19.512 868.504 19.704 867.64 20.04C866.824 20.328 866.272 20.904 865.984 21.768C865.696 22.584 865.552 23.88 865.552 25.656V61.368C865.552 63.096 865.696 64.392 865.984 65.256C866.272 66.12 866.824 66.696 867.64 66.984C868.504 67.272 869.752 67.464 871.384 67.56V69C870.28 68.904 868.888 68.856 867.208 68.856C865.576 68.808 863.92 68.784 862.24 68.784C860.368 68.784 858.616 68.808 856.984 68.856C855.352 68.856 854.032 68.904 853.024 69V67.56C854.656 67.464 855.88 67.272 856.696 66.984C857.56 66.696 858.136 66.12 858.424 65.256C858.712 64.392 858.856 63.096 858.856 61.368V25.656C858.856 23.88 858.712 22.584 858.424 21.768C858.136 20.904 857.56 20.328 856.696 20.04C855.88 19.704 854.656 19.512 853.024 19.464V18.024C854.032 18.072 855.352 18.12 856.984 18.168C858.616 18.216 860.368 18.24 862.24 18.24C863.92 18.24 865.576 18.216 867.208 18.168C868.888 18.12 870.28 18.072 871.384 18.024Z" fill="#FFAB4B"/>
<path d="M837.78 36.26C838.82 35.66 839.66 35.46 840.3 35.66C840.98 35.82 841.46 36.14 841.74 36.62C842.02 37.06 842.06 37.6 841.86 38.24C841.66 38.88 841.04 39.5 840 40.1C839 40.66 837.76 41.12 836.28 41.48C834.84 41.8 833 42.3 830.76 42.98L830.7 42.8C832.3 41.28 833.64 39.96 834.72 38.84C835.8 37.68 836.82 36.82 837.78 36.26ZM830.82 42.8C832.94 43.44 834.76 43.94 836.28 44.3C837.8 44.66 839.06 45.12 840.06 45.68C841.1 46.28 841.7 46.92 841.86 47.6C842.06 48.24 842 48.8 841.68 49.28C841.44 49.72 841 50.02 840.36 50.18C839.72 50.34 838.88 50.12 837.84 49.52C836.84 48.96 835.82 48.14 834.78 47.06C833.74 45.94 832.38 44.58 830.7 42.98L830.82 42.8ZM830.88 42.92C831.4 45.04 831.88 46.86 832.32 48.38C832.76 49.9 833 51.22 833.04 52.34C833 53.54 832.74 54.38 832.26 54.86C831.78 55.34 831.26 55.58 830.7 55.58C830.18 55.58 829.7 55.36 829.26 54.92C828.82 54.44 828.6 53.58 828.6 52.34C828.6 51.18 828.82 49.88 829.26 48.44C829.7 47 830.18 45.16 830.7 42.92H830.88ZM830.7 42.86L830.82 43.04C829.22 44.52 827.88 45.84 826.8 47C825.72 48.16 824.7 49.02 823.74 49.58C822.7 50.18 821.84 50.4 821.16 50.24C820.52 50.04 820.06 49.7 819.78 49.22C819.5 48.78 819.46 48.26 819.66 47.66C819.86 47.02 820.48 46.38 821.52 45.74C822.52 45.18 823.74 44.72 825.18 44.36C826.66 44 828.5 43.5 830.7 42.86ZM823.68 36.32C824.68 36.88 825.7 37.72 826.74 38.84C827.78 39.92 829.12 41.26 830.76 42.86L830.7 43.04C828.62 42.4 826.8 41.9 825.24 41.54C823.72 41.14 822.46 40.68 821.46 40.16C820.46 39.56 819.86 38.94 819.66 38.3C819.5 37.62 819.56 37.04 819.84 36.56C820.08 36.12 820.52 35.82 821.16 35.66C821.8 35.5 822.64 35.72 823.68 36.32ZM830.76 30.26C831.32 30.26 831.82 30.5 832.26 30.98C832.7 31.46 832.92 32.3 832.92 33.5C832.92 34.62 832.7 35.92 832.26 37.4C831.86 38.84 831.38 40.68 830.82 42.92H830.64C830.12 40.8 829.64 38.98 829.2 37.46C828.76 35.94 828.54 34.62 828.54 33.5C828.54 32.3 828.78 31.46 829.26 30.98C829.74 30.5 830.24 30.26 830.76 30.26Z" fill="#FFAB4B"/>
<path d="M1144.18 18.024V19.464C1142.55 19.512 1141.3 19.704 1140.44 20.04C1139.62 20.328 1139.07 20.904 1138.78 21.768C1138.49 22.584 1138.35 23.88 1138.35 25.656V61.368C1138.35 63.096 1138.49 64.392 1138.78 65.256C1139.07 66.12 1139.62 66.696 1140.44 66.984C1141.3 67.272 1142.55 67.464 1144.18 67.56V69C1143.08 68.904 1141.68 68.856 1140 68.856C1138.37 68.808 1136.72 68.784 1135.04 68.784C1133.16 68.784 1131.41 68.808 1129.78 68.856C1128.15 68.856 1126.83 68.904 1125.82 69V67.56C1127.45 67.464 1128.68 67.272 1129.49 66.984C1130.36 66.696 1130.93 66.12 1131.22 65.256C1131.51 64.392 1131.65 63.096 1131.65 61.368V25.656C1131.65 23.88 1131.51 22.584 1131.22 21.768C1130.93 20.904 1130.36 20.328 1129.49 20.04C1128.68 19.704 1127.45 19.512 1125.82 19.464V18.024C1126.83 18.072 1128.15 18.12 1129.78 18.168C1131.41 18.216 1133.16 18.24 1135.04 18.24C1136.72 18.24 1138.37 18.216 1140 18.168C1141.68 18.12 1143.08 18.072 1144.18 18.024Z" fill="#FFAB4B"/>
<path d="M1119.78 18.024V19.464C1118.15 19.512 1116.9 19.704 1116.04 20.04C1115.22 20.328 1114.67 20.904 1114.38 21.768C1114.09 22.584 1113.95 23.88 1113.95 25.656V61.368C1113.95 63.096 1114.09 64.392 1114.38 65.256C1114.67 66.12 1115.22 66.696 1116.04 66.984C1116.9 67.272 1118.15 67.464 1119.78 67.56V69C1118.68 68.904 1117.29 68.856 1115.61 68.856C1113.97 68.808 1112.32 68.784 1110.64 68.784C1108.77 68.784 1107.01 68.808 1105.38 68.856C1103.75 68.856 1102.43 68.904 1101.42 69V67.56C1103.05 67.464 1104.28 67.272 1105.09 66.984C1105.96 66.696 1106.53 66.12 1106.82 65.256C1107.11 64.392 1107.25 63.096 1107.25 61.368V25.656C1107.25 23.88 1107.11 22.584 1106.82 21.768C1106.53 20.904 1105.96 20.328 1105.09 20.04C1104.28 19.704 1103.05 19.512 1101.42 19.464V18.024C1102.43 18.072 1103.75 18.12 1105.38 18.168C1107.01 18.216 1108.77 18.24 1110.64 18.24C1112.32 18.24 1113.97 18.216 1115.61 18.168C1117.29 18.12 1118.68 18.072 1119.78 18.024Z" fill="#FFAB4B"/>
<path d="M1095.38 18.024V19.464C1093.75 19.512 1092.5 19.704 1091.64 20.04C1090.82 20.328 1090.27 20.904 1089.98 21.768C1089.7 22.584 1089.55 23.88 1089.55 25.656V61.368C1089.55 63.096 1089.7 64.392 1089.98 65.256C1090.27 66.12 1090.82 66.696 1091.64 66.984C1092.5 67.272 1093.75 67.464 1095.38 67.56V69C1094.28 68.904 1092.89 68.856 1091.21 68.856C1089.58 68.808 1087.92 68.784 1086.24 68.784C1084.37 68.784 1082.62 68.808 1080.98 68.856C1079.35 68.856 1078.03 68.904 1077.02 69V67.56C1078.66 67.464 1079.88 67.272 1080.7 66.984C1081.56 66.696 1082.14 66.12 1082.42 65.256C1082.71 64.392 1082.86 63.096 1082.86 61.368V25.656C1082.86 23.88 1082.71 22.584 1082.42 21.768C1082.14 20.904 1081.56 20.328 1080.7 20.04C1079.88 19.704 1078.66 19.512 1077.02 19.464V18.024C1078.03 18.072 1079.35 18.12 1080.98 18.168C1082.62 18.216 1084.37 18.24 1086.24 18.24C1087.92 18.24 1089.58 18.216 1091.21 18.168C1092.89 18.12 1094.28 18.072 1095.38 18.024Z" fill="#FFAB4B"/>
<path d="M1061.78 36.26C1062.82 35.66 1063.66 35.46 1064.3 35.66C1064.98 35.82 1065.46 36.14 1065.74 36.62C1066.02 37.06 1066.06 37.6 1065.86 38.24C1065.66 38.88 1065.04 39.5 1064 40.1C1063 40.66 1061.76 41.12 1060.28 41.48C1058.84 41.8 1057 42.3 1054.76 42.98L1054.7 42.8C1056.3 41.28 1057.64 39.96 1058.72 38.84C1059.8 37.68 1060.82 36.82 1061.78 36.26ZM1054.82 42.8C1056.94 43.44 1058.76 43.94 1060.28 44.3C1061.8 44.66 1063.06 45.12 1064.06 45.68C1065.1 46.28 1065.7 46.92 1065.86 47.6C1066.06 48.24 1066 48.8 1065.68 49.28C1065.44 49.72 1065 50.02 1064.36 50.18C1063.72 50.34 1062.88 50.12 1061.84 49.52C1060.84 48.96 1059.82 48.14 1058.78 47.06C1057.74 45.94 1056.38 44.58 1054.7 42.98L1054.82 42.8ZM1054.88 42.92C1055.4 45.04 1055.88 46.86 1056.32 48.38C1056.76 49.9 1057 51.22 1057.04 52.34C1057 53.54 1056.74 54.38 1056.26 54.86C1055.78 55.34 1055.26 55.58 1054.7 55.58C1054.18 55.58 1053.7 55.36 1053.26 54.92C1052.82 54.44 1052.6 53.58 1052.6 52.34C1052.6 51.18 1052.82 49.88 1053.26 48.44C1053.7 47 1054.18 45.16 1054.7 42.92H1054.88ZM1054.7 42.86L1054.82 43.04C1053.22 44.52 1051.88 45.84 1050.8 47C1049.72 48.16 1048.7 49.02 1047.74 49.58C1046.7 50.18 1045.84 50.4 1045.16 50.24C1044.52 50.04 1044.06 49.7 1043.78 49.22C1043.5 48.78 1043.46 48.26 1043.66 47.66C1043.86 47.02 1044.48 46.38 1045.52 45.74C1046.52 45.18 1047.74 44.72 1049.18 44.36C1050.66 44 1052.5 43.5 1054.7 42.86ZM1047.68 36.32C1048.68 36.88 1049.7 37.72 1050.74 38.84C1051.78 39.92 1053.12 41.26 1054.76 42.86L1054.7 43.04C1052.62 42.4 1050.8 41.9 1049.24 41.54C1047.72 41.14 1046.46 40.68 1045.46 40.16C1044.46 39.56 1043.86 38.94 1043.66 38.3C1043.5 37.62 1043.56 37.04 1043.84 36.56C1044.08 36.12 1044.52 35.82 1045.16 35.66C1045.8 35.5 1046.64 35.72 1047.68 36.32ZM1054.76 30.26C1055.32 30.26 1055.82 30.5 1056.26 30.98C1056.7 31.46 1056.92 32.3 1056.92 33.5C1056.92 34.62 1056.7 35.92 1056.26 37.4C1055.86 38.84 1055.38 40.68 1054.82 42.92H1054.64C1054.12 40.8 1053.64 38.98 1053.2 37.46C1052.76 35.94 1052.54 34.62 1052.54 33.5C1052.54 32.3 1052.78 31.46 1053.26 30.98C1053.74 30.5 1054.24 30.26 1054.76 30.26Z" fill="#FFAB4B"/>
<path d="M1368.18 18.024V19.464C1366.55 19.512 1365.3 19.704 1364.44 20.04C1363.62 20.328 1363.07 20.904 1362.78 21.768C1362.49 22.584 1362.35 23.88 1362.35 25.656V61.368C1362.35 63.096 1362.49 64.392 1362.78 65.256C1363.07 66.12 1363.62 66.696 1364.44 66.984C1365.3 67.272 1366.55 67.464 1368.18 67.56V69C1367.08 68.904 1365.68 68.856 1364 68.856C1362.37 68.808 1360.72 68.784 1359.04 68.784C1357.16 68.784 1355.41 68.808 1353.78 68.856C1352.15 68.856 1350.83 68.904 1349.82 69V67.56C1351.45 67.464 1352.68 67.272 1353.49 66.984C1354.36 66.696 1354.93 66.12 1355.22 65.256C1355.51 64.392 1355.65 63.096 1355.65 61.368V25.656C1355.65 23.88 1355.51 22.584 1355.22 21.768C1354.93 20.904 1354.36 20.328 1353.49 20.04C1352.68 19.704 1351.45 19.512 1349.82 19.464V18.024C1350.83 18.072 1352.15 18.12 1353.78 18.168C1355.41 18.216 1357.16 18.24 1359.04 18.24C1360.72 18.24 1362.37 18.216 1364 18.168C1365.68 18.12 1367.08 18.072 1368.18 18.024Z" fill="#FFAB4B"/>
<path d="M1343.78 18.024V19.464C1342.15 19.512 1340.9 19.704 1340.04 20.04C1339.22 20.328 1338.67 20.904 1338.38 21.768C1338.09 22.584 1337.95 23.88 1337.95 25.656V61.368C1337.95 63.096 1338.09 64.392 1338.38 65.256C1338.67 66.12 1339.22 66.696 1340.04 66.984C1340.9 67.272 1342.15 67.464 1343.78 67.56V69C1342.68 68.904 1341.29 68.856 1339.61 68.856C1337.97 68.808 1336.32 68.784 1334.64 68.784C1332.77 68.784 1331.01 68.808 1329.38 68.856C1327.75 68.856 1326.43 68.904 1325.42 69V67.56C1327.05 67.464 1328.28 67.272 1329.09 66.984C1329.96 66.696 1330.53 66.12 1330.82 65.256C1331.11 64.392 1331.25 63.096 1331.25 61.368V25.656C1331.25 23.88 1331.11 22.584 1330.82 21.768C1330.53 20.904 1329.96 20.328 1329.09 20.04C1328.28 19.704 1327.05 19.512 1325.42 19.464V18.024C1326.43 18.072 1327.75 18.12 1329.38 18.168C1331.01 18.216 1332.77 18.24 1334.64 18.24C1336.32 18.24 1337.97 18.216 1339.61 18.168C1341.29 18.12 1342.68 18.072 1343.78 18.024Z" fill="#FFAB4B"/>
<path d="M1319.38 18.024V19.464C1317.75 19.512 1316.5 19.704 1315.64 20.04C1314.82 20.328 1314.27 20.904 1313.98 21.768C1313.7 22.584 1313.55 23.88 1313.55 25.656V61.368C1313.55 63.096 1313.7 64.392 1313.98 65.256C1314.27 66.12 1314.82 66.696 1315.64 66.984C1316.5 67.272 1317.75 67.464 1319.38 67.56V69C1318.28 68.904 1316.89 68.856 1315.21 68.856C1313.58 68.808 1311.92 68.784 1310.24 68.784C1308.37 68.784 1306.62 68.808 1304.98 68.856C1303.35 68.856 1302.03 68.904 1301.02 69V67.56C1302.66 67.464 1303.88 67.272 1304.7 66.984C1305.56 66.696 1306.14 66.12 1306.42 65.256C1306.71 64.392 1306.86 63.096 1306.86 61.368V25.656C1306.86 23.88 1306.71 22.584 1306.42 21.768C1306.14 20.904 1305.56 20.328 1304.7 20.04C1303.88 19.704 1302.66 19.512 1301.02 19.464V18.024C1302.03 18.072 1303.35 18.12 1304.98 18.168C1306.62 18.216 1308.37 18.24 1310.24 18.24C1311.92 18.24 1313.58 18.216 1315.21 18.168C1316.89 18.12 1318.28 18.072 1319.38 18.024Z" fill="#FFAB4B"/>
<path d="M1285.78 36.26C1286.82 35.66 1287.66 35.46 1288.3 35.66C1288.98 35.82 1289.46 36.14 1289.74 36.62C1290.02 37.06 1290.06 37.6 1289.86 38.24C1289.66 38.88 1289.04 39.5 1288 40.1C1287 40.66 1285.76 41.12 1284.28 41.48C1282.84 41.8 1281 42.3 1278.76 42.98L1278.7 42.8C1280.3 41.28 1281.64 39.96 1282.72 38.84C1283.8 37.68 1284.82 36.82 1285.78 36.26ZM1278.82 42.8C1280.94 43.44 1282.76 43.94 1284.28 44.3C1285.8 44.66 1287.06 45.12 1288.06 45.68C1289.1 46.28 1289.7 46.92 1289.86 47.6C1290.06 48.24 1290 48.8 1289.68 49.28C1289.44 49.72 1289 50.02 1288.36 50.18C1287.72 50.34 1286.88 50.12 1285.84 49.52C1284.84 48.96 1283.82 48.14 1282.78 47.06C1281.74 45.94 1280.38 44.58 1278.7 42.98L1278.82 42.8ZM1278.88 42.92C1279.4 45.04 1279.88 46.86 1280.32 48.38C1280.76 49.9 1281 51.22 1281.04 52.34C1281 53.54 1280.74 54.38 1280.26 54.86C1279.78 55.34 1279.26 55.58 1278.7 55.58C1278.18 55.58 1277.7 55.36 1277.26 54.92C1276.82 54.44 1276.6 53.58 1276.6 52.34C1276.6 51.18 1276.82 49.88 1277.26 48.44C1277.7 47 1278.18 45.16 1278.7 42.92H1278.88ZM1278.7 42.86L1278.82 43.04C1277.22 44.52 1275.88 45.84 1274.8 47C1273.72 48.16 1272.7 49.02 1271.74 49.58C1270.7 50.18 1269.84 50.4 1269.16 50.24C1268.52 50.04 1268.06 49.7 1267.78 49.22C1267.5 48.78 1267.46 48.26 1267.66 47.66C1267.86 47.02 1268.48 46.38 1269.52 45.74C1270.52 45.18 1271.74 44.72 1273.18 44.36C1274.66 44 1276.5 43.5 1278.7 42.86ZM1271.68 36.32C1272.68 36.88 1273.7 37.72 1274.74 38.84C1275.78 39.92 1277.12 41.26 1278.76 42.86L1278.7 43.04C1276.62 42.4 1274.8 41.9 1273.24 41.54C1271.72 41.14 1270.46 40.68 1269.46 40.16C1268.46 39.56 1267.86 38.94 1267.66 38.3C1267.5 37.62 1267.56 37.04 1267.84 36.56C1268.08 36.12 1268.52 35.82 1269.16 35.66C1269.8 35.5 1270.64 35.72 1271.68 36.32ZM1278.76 30.26C1279.32 30.26 1279.82 30.5 1280.26 30.98C1280.7 31.46 1280.92 32.3 1280.92 33.5C1280.92 34.62 1280.7 35.92 1280.26 37.4C1279.86 38.84 1279.38 40.68 1278.82 42.92H1278.64C1278.12 40.8 1277.64 38.98 1277.2 37.46C1276.76 35.94 1276.54 34.62 1276.54 33.5C1276.54 32.3 1276.78 31.46 1277.26 30.98C1277.74 30.5 1278.24 30.26 1278.76 30.26Z" fill="#FFAB4B"/>
<rect width="1440" height="3" fill="#FFAB4B"/>
<rect y="69" width="1440" height="3" fill="#FFAB4B"/>
<rect y="84" width="1440" height="3" fill="#FFAB4B"/>
<rect y="15" width="1440" height="3" fill="#FFAB4B"/>
<rect width="3" height="87" fill="#FFAB4B"/>
<rect x="1437" width="3" height="87" fill="#FFAB4B"/>
</svg>
