<svg width="1123" height="871" viewBox="0 0 1123 871" fill="none" xmlns="http://www.w3.org/2000/svg">
<path d="M342.152 619.62L110.692 555.341" stroke="#FFAB4B" stroke-width="3" stroke-miterlimit="10"/>
<path d="M400.381 428.221L159.497 361.326L144.617 414.908L385.5 481.803L400.381 428.221Z" stroke="#FFAB4B" stroke-width="3" stroke-miterlimit="10"/>
<path d="M342.152 619.62L635.925 701.203L689.441 508.496L641.264 495.117L614.506 591.47L653.048 602.173L639.668 650.35L360.243 572.751L385.5 481.803L144.617 414.908L105.98 554.033L110.692 555.341" stroke="#FFAB4B" stroke-width="3" stroke-miterlimit="10"/>
<path d="M685.011 694.078L682.335 703.713L691.971 706.389L694.646 696.753L685.011 694.078Z" stroke="#FFAB4B" stroke-width="3" stroke-miterlimit="10"/>
<path d="M690.363 674.807L687.687 684.442L697.322 687.118L699.998 677.483L690.363 674.807Z" stroke="#FFAB4B" stroke-width="3" stroke-miterlimit="10"/>
<path d="M867.619 739.6L863.605 754.053L873.241 756.729L877.254 742.276L867.619 739.6Z" stroke="#FFAB4B" stroke-width="3" stroke-miterlimit="10"/>
<path d="M853.97 751.377L851.294 761.013L880.2 769.04L882.876 759.405L853.97 751.377Z" stroke="#FFAB4B" stroke-width="3" stroke-miterlimit="10"/>
<path d="M690.096 685.111L687.42 694.747L692.238 696.084L694.913 686.449L690.096 685.111Z" stroke="#FFAB4B" stroke-width="3" stroke-miterlimit="10"/>
<path d="M607.018 693.175L597.383 690.5L576.785 764.672L586.42 767.348L607.018 693.175Z" stroke="#FFAB4B" stroke-width="3" stroke-miterlimit="10"/>
<path d="M635.925 701.203L595.863 769.971L586.42 767.348L626.289 698.527L635.925 701.203Z" stroke="#FFAB4B" stroke-width="3" stroke-miterlimit="10"/>
<path d="M575.773 764.392L566.33 761.769L567.465 682.191L577.101 684.867L575.773 764.392Z" stroke="#FFAB4B" stroke-width="3" stroke-miterlimit="10"/>
<path d="M1120.37 825.358L638.6 691.567L635.925 701.203L1117.69 834.994L1120.37 825.358Z" stroke="#FFAB4B" stroke-width="3" stroke-miterlimit="10"/>
<path d="M605.69 772.7L557.514 759.321L554.838 768.956L603.015 782.335L605.69 772.7Z" stroke="#FFAB4B" stroke-width="3" stroke-miterlimit="10"/>
<path d="M388.176 472.168L147.292 405.272L144.617 414.908L385.5 481.803L388.176 472.168Z" stroke="#FFAB4B" stroke-width="3" stroke-miterlimit="10"/>
<path d="M724.335 382.723L673.896 368.716L671.22 378.351L721.659 392.358L724.335 382.723Z" stroke="#FFAB4B" stroke-width="3" stroke-miterlimit="10"/>
<path d="M731.18 357.471L680.741 343.464L678.065 353.099L728.504 367.107L731.18 357.471Z" stroke="#FFAB4B" stroke-width="3" stroke-miterlimit="10"/>
<path d="M738.424 331.539L687.901 317.508L685.225 327.144L735.749 341.174L738.424 331.539Z" stroke="#FFAB4B" stroke-width="3" stroke-miterlimit="10"/>
<path d="M380.538 499.235L139.655 432.34L136.979 441.975L377.862 508.871L380.538 499.235Z" stroke="#FFAB4B" stroke-width="3" stroke-miterlimit="10"/>
<path d="M373.21 526.148L132.326 459.252L129.651 468.888L370.534 535.783L373.21 526.148Z" stroke="#FFAB4B" stroke-width="3" stroke-miterlimit="10"/>
<path d="M396.218 443.422L155.335 376.526L152.659 386.162L393.543 453.057L396.218 443.422Z" stroke="#FFAB4B" stroke-width="3" stroke-miterlimit="10"/>
<path d="M756.336 267.612L689.441 508.496L159.497 361.326L226.392 120.442C244.866 53.9194 378.461 32.942 524.812 73.585C671.163 114.228 774.791 201.084 756.317 267.607L756.336 267.612Z" stroke="#FFAB4B" stroke-width="3" stroke-miterlimit="10"/>
<path d="M700.013 273.909L645.372 470.844L212.116 350.633L266.758 153.699C281.847 99.3137 391.056 82.1394 510.706 115.337C630.355 148.535 715.087 219.52 699.997 273.905L700.013 273.909Z" stroke="#FFAB4B" stroke-width="3" stroke-miterlimit="10"/>
<path d="M259.439 282.559L291.303 290.809M288.433 300.445L256.569 292.194" stroke="#FFAB4B" stroke-width="3" stroke-miterlimit="10"/>
<path d="M413.307 97.9323C377.914 251.932 313.001 242.8 294.258 281.932C282.108 307.3 277.743 345.374 305.565 376.464M241.065 358.464C235.166 311.464 258.751 316.124 259.938 268.932C262.193 179.264 256.803 187.294 268.518 148.432" stroke="#FFAB4B" stroke-width="3"/>
<path d="M626.725 388.794L593.724 379.129M590.913 388.726L623.914 398.391" stroke="#FFAB4B" stroke-width="3" stroke-miterlimit="10"/>
<path d="M580.064 141.464C526.843 289.695 603.565 284.963 597.273 368.794C595.87 387.489 567.065 415.963 567.065 448.464M635.564 467.964C625.643 455.153 609.558 420.457 632.064 378.963C668.986 310.893 696.065 282.464 698.565 278.964" stroke="#FFAB4B" stroke-width="3"/>
<path d="M318.112 718.951C298.209 790.486 224.168 832.41 152.739 812.606C81.3091 792.802 39.5311 718.768 59.434 647.233C67.532 618.127 84.5938 593.924 106.794 576.791C139.158 551.799 182.436 541.83 224.807 553.578C267.178 565.325 299.107 596.144 313.926 634.217C324.095 660.325 326.21 689.844 318.112 718.951Z" stroke="#FFAB4B" stroke-width="2.68655" stroke-miterlimit="10"/>
<path d="M182.771 704.283C194.677 707.583 207.017 700.595 210.333 688.673C213.65 676.752 206.688 664.412 194.783 661.111C182.877 657.811 170.537 664.799 167.221 676.72C163.904 688.642 170.866 700.982 182.771 704.283Z" stroke="#FFAB4B" stroke-width="2.68655" stroke-miterlimit="10"/>
<path d="M224.721 553.268L152.834 812.127" stroke="#FFAB4B" stroke-width="2.68655" stroke-miterlimit="10"/>
<path d="M59.348 646.754L318.207 718.641" stroke="#FFAB4B" stroke-width="2.68655" stroke-miterlimit="10"/>
<path d="M155.325 552.639L222.227 812.763" stroke="#FFAB4B" stroke-width="2.68655" stroke-miterlimit="10"/>
<path d="M58.7113 716.408L318.835 648.982" stroke="#FFAB4B" stroke-width="2.68655" stroke-miterlimit="10"/>
<path d="M94.7546 586.852L282.792 778.538" stroke="#FFAB4B" stroke-width="2.68655" stroke-miterlimit="10"/>
<path d="M92.9329 776.913L284.619 588.489" stroke="#FFAB4B" stroke-width="2.68655" stroke-miterlimit="10"/>
<path d="M335.029 723.243C312.472 804.318 228.557 851.833 147.601 829.389C66.6455 806.944 19.2957 723.036 41.8529 641.96C51.031 608.972 70.3683 581.542 95.5289 562.124C132.21 533.799 181.259 522.5 229.281 535.815C277.303 549.129 313.491 584.058 330.285 627.209C341.811 656.798 344.208 690.255 335.029 723.243Z" stroke="#FFAB4B" stroke-width="3.04485" stroke-miterlimit="10"/>
</svg>
