<svg width="965" height="780" viewBox="0 0 965 780" fill="none" xmlns="http://www.w3.org/2000/svg">
<g clip-path="url(#clip0_292_165)">
<path d="M715.55 50.1H713.05C712.91 50.1 712.79 50.1 712.66 50.09H712.55C711.22 50.06 709.91 50.03 708.6 49.99C671.98 48.99 643.5 45.73 623.93 40.29C606.45 35.45 593.69 26.22 585.99 12.86L583.6 8.70996L715.55 20.23V50.11V50.1ZM593.02 14.55C600.19 24.5 611.01 31.53 625.26 35.48C644.43 40.81 672.52 44.01 708.73 45C709.33 45.02 709.94 45.03 710.54 45.05V24.81L593.01 14.55H593.02Z" fill="#FFAB4B"/>
<path d="M535.5 9.52L483.31 5.04L483.32 0.06L484.02 0L535.93 4.54L535.5 9.52Z" fill="#FFAB4B"/>
<path d="M252.47 50.15V20.22L383.63 8.76001L381.1 12.97C373.1 26.26 360.2 35.46 342.78 40.29C323.23 45.72 295.2 48.98 259.47 49.98C258.01 50.03 256.53 50.07 255.03 50.1L252.48 50.15H252.47ZM257.47 24.8V45.04C258.08 45.02 258.69 45 259.3 44.98C294.64 43.99 322.26 40.79 341.43 35.47C355.64 31.53 366.55 24.53 373.96 14.62L257.47 24.8Z" fill="#FFAB4B"/>
<path d="M383.63 770.74L252.47 759.28V729.33L259.71 729.52C295.32 730.53 323.26 733.79 342.77 739.21C360.19 744.04 373.09 753.24 381.09 766.53L383.62 770.74H383.63ZM257.47 754.7L373.96 764.87C366.55 754.97 355.63 747.97 341.43 744.03C322.31 738.72 294.76 735.52 259.57 734.52L257.47 734.47V754.7Z" fill="#FFAB4B"/>
<path d="M484.02 779.5L483.32 779.44L483.31 774.46L537.09 769.85L537.52 774.83H537.51L484.02 779.5Z" fill="#FFAB4B"/>
<path d="M583.61 770.81L585.99 766.66C593.67 753.29 606.43 744.06 623.93 739.22C643.57 733.77 672.15 730.5 708.88 729.51C710.23 729.47 711.6 729.44 712.99 729.41L715.54 729.35V759.29L583.6 770.82L583.61 770.81ZM710.55 734.46C710.04 734.47 709.53 734.49 709.02 734.5C672.69 735.48 644.51 738.69 625.26 744.03C610.99 747.98 600.17 755.01 593.01 764.97L710.54 754.7V734.46H710.55Z" fill="#FFAB4B"/>
<path d="M713.06 182.64C713 182.63 712.93 182.63 712.86 182.63C696.21 181.9 675.68 181.35 651.85 180.99C627.8 180.61 596.31 180.43 555.63 180.42V172.01C584.55 169.36 608.13 165.75 625.73 161.26C644.03 156.61 660.04 147.76 673.31 134.95C686.15 125.18 695.8 112.52 702.01 97.3099C705.21 89.4399 707.61 81.6099 709.12 74.0799C709.17 73.8799 709.21 73.6899 709.23 73.4899L709.63 70.7899L706.91 70.6299C681.52 69.1499 648.95 68.1899 610.1 67.7799C567.77 67.3499 524.24 67.1299 480.72 67.1299C437.2 67.1299 392.12 67.3499 351.98 67.7799C315.79 68.1799 285.43 69.1099 261.75 70.5599L259.02 70.7299L259.43 73.4299C259.45 73.5999 259.49 73.7699 259.54 73.9799C261.11 81.1899 263.46 88.3799 266.52 95.3699C272.94 109.98 282.91 122.71 296.14 133.21C304.94 141.7 314.32 148.47 324.03 153.35C333.74 158.19 345.46 162.02 358.86 164.73C371.7 167.32 387.56 169.75 406.02 171.95V180.42C367.13 180.43 337.02 180.61 314.04 180.99C290.84 181.35 270.93 181.91 254.85 182.65L252.47 182.76V708.31L254.8 708.47C255.97 708.55 257.17 708.63 258.39 708.71C259.6 708.79 260.83 708.87 262.08 708.96H262.09C262.8 709 263.51 709.04 264.23 709.08C287.46 710.45 316.96 711.33 351.98 711.72C392.21 712.15 435.52 712.37 480.72 712.37C525.92 712.37 567.67 712.15 610.11 711.72C649.11 711.31 681.74 710.35 707.08 708.86C709.17 708.74 711.22 708.61 713.21 708.47L715.55 708.32V182.64H713.06ZM710.55 703.64C710.02 703.67 709.48 703.7 708.94 703.73C708.23 703.78 707.51 703.82 706.79 703.86C705.83 703.92 704.86 703.97 703.88 704.03C679.05 705.42 647.5 706.33 610.05 706.72C567.64 707.15 524.12 707.37 480.72 707.37C437.32 707.37 392.24 707.15 352.04 706.72C317.51 706.34 288.37 705.47 265.35 704.13C264.36 704.08 263.37 704.02 262.4 703.96C261.69 703.92 260.98 703.87 260.28 703.82C260.16 703.82 260.03 703.81 259.91 703.8C259.09 703.75 258.27 703.69 257.47 703.64V187.54C273.07 186.85 292.11 186.33 314.12 185.99C337.57 185.61 368.45 185.42 408.52 185.42H411.02V167.51L408.81 167.25C389.54 164.99 373.06 162.49 359.85 159.83C346.88 157.21 335.58 153.52 326.27 148.88C316.98 144.22 307.99 137.71 299.53 129.53L299.34 129.37C286.71 119.36 277.21 107.25 271.1 93.3599C268.52 87.4899 266.48 81.4799 264.99 75.3799C288.15 74.0299 317.41 73.1599 352.04 72.7799C392.15 72.3499 435.45 72.1299 480.72 72.1299C525.99 72.1299 567.73 72.3499 610.05 72.7799C647.36 73.1699 678.85 74.0699 703.72 75.4599C702.25 81.9699 700.12 88.6799 697.38 95.4299C691.5 109.83 682.34 121.82 670.17 131.06L669.94 131.25C657.28 143.5 641.99 151.97 624.49 156.42C606.69 160.95 582.61 164.59 552.91 167.24L550.63 167.44V185.42H553.13C595 185.42 627.26 185.61 651.77 185.99C674.53 186.33 694.26 186.85 710.55 187.54V703.64Z" fill="#FFAB4B"/>
<path d="M252.47 187.77V71.1899L254.79 71.0199C257.05 70.8599 259.36 70.7099 261.74 70.5599L264.03 70.4099L264.4 72.8199C265.92 79.7899 268.16 86.6699 271.1 93.3399C277.21 107.23 286.71 119.35 299.34 129.35L299.53 129.51C307.99 137.69 316.99 144.19 326.27 148.85C335.58 153.49 346.88 157.18 359.85 159.8C373.07 162.46 389.54 164.96 408.81 167.22L411.02 167.48V185.4H408.52C368.45 185.4 337.57 185.59 314.12 185.97C290.97 186.33 271.11 186.89 255.08 187.63L252.46 187.75L252.47 187.77ZM257.47 75.8599V182.54C273.07 181.86 292.09 181.34 314.04 181C337.02 180.62 367.13 180.44 406.02 180.43V171.96C387.56 169.76 371.7 167.33 358.86 164.74C345.46 162.03 333.75 158.2 324.04 153.36C314.33 148.49 304.95 141.71 296.15 133.23C282.92 122.73 272.95 109.99 266.53 95.3799C263.71 88.9499 261.49 82.3399 259.93 75.7099C259.1 75.7599 258.29 75.8199 257.48 75.8699L257.47 75.8599Z" fill="#FFAB4B"/>
<path d="M713.06 45.1L710.29 44.8V70.84C709.18 70.77 708.05 70.7 706.91 70.63L704.62 70.5L704.29 72.77C704.27 72.85 704.26 72.94 704.23 73.06C702.77 80.32 700.46 87.84 697.38 95.43C691.5 109.83 682.34 121.82 670.17 131.06L669.94 131.25C657.28 143.5 641.99 151.97 624.49 156.42C606.69 160.95 582.61 164.59 552.91 167.24L550.63 167.44V185.42H553.13C595 185.42 627.26 185.61 651.77 185.99C674.52 186.33 694.26 186.85 710.55 187.54C711.22 187.56 711.89 187.59 712.55 187.62L713.13 187.64H715.55V45.1H713.06ZM710.55 182.53C694.32 181.85 674.59 181.33 651.85 180.99C627.8 180.61 596.31 180.43 555.63 180.42V172.01C584.55 169.36 608.13 165.75 625.73 161.26C644.03 156.61 660.04 147.76 673.31 134.95C686.15 125.18 695.8 112.52 702.01 97.31C704.97 90.02 707.25 82.7801 708.77 75.7601C709.28 75.7901 709.79 75.82 710.29 75.85C710.38 75.86 710.46 75.8601 710.55 75.8701V182.53Z" fill="#FFAB4B"/>
<path d="M291.73 556.97C285.92 556.97 279.76 556.6 273.42 555.87C267.1 555.11 260.63 554.19 254.17 553.11L252.08 552.76V536.92L254.31 536.67C263.47 535.66 270.2 532.9 274.33 528.45C278.66 523.76 282.84 516.92 286.73 508.1C292.48 494.03 297.42 480.14 301.37 466.87C305.43 453.18 311.06 441.17 318.1 431.17C326.03 420.6 335.74 412.71 347 407.66C358.04 402.67 370.16 399.47 383.02 398.15C389.44 397.5 395.81 397.12 401.95 397L404.75 396.95L404.48 399.74C404.24 402.3 404.11 404.91 404.11 407.47C404.11 411.32 404.38 415.16 404.92 418.86L405.15 420.44L403.81 421.31C399.1 424.38 394.79 428.51 390.99 433.57C385.66 440.33 381.09 448.4 377.38 457.59C373.64 466.84 370.54 475.94 368.17 484.63C365.66 493.88 363.84 500.33 362.43 504.89C357.56 523.58 349.23 537.09 337.67 545.06C326.18 552.96 310.72 556.97 291.71 556.97H291.73ZM257.08 548.53C262.76 549.45 268.44 550.25 274 550.91C280.14 551.61 286.11 551.97 291.73 551.97C309.71 551.97 324.21 548.26 334.85 540.94C345.4 533.67 353.06 521.1 357.62 503.58L357.65 503.47C359.04 498.96 360.85 492.56 363.36 483.32C365.78 474.44 368.94 465.15 372.76 455.72C376.65 446.09 381.46 437.61 387.04 430.53C390.8 425.52 395.08 421.31 399.77 418.03C399.34 414.58 399.12 411.04 399.12 407.48C399.12 405.69 399.18 403.88 399.29 402.08C394.14 402.25 388.86 402.6 383.53 403.14C371.22 404.4 359.62 407.46 349.06 412.23C338.57 416.93 329.52 424.3 322.15 434.12C315.47 443.61 310.08 455.13 306.17 468.3C302.17 481.73 297.18 495.78 291.34 510.06C287.2 519.45 282.72 526.76 278.01 531.85C273.4 536.82 266.38 540.02 257.09 541.36V548.52L257.08 548.53Z" fill="#FFAB4B"/>
<path d="M404.47 399.08L401.27 397.17C394.43 393.07 388.95 387.9 385 381.81C378.15 371.25 372.26 358.27 367.5 343.22C363.23 330.01 359.83 319.36 357.12 310.69C354.3 301.73 350.77 294.55 346.63 289.37C345.13 287.5 343.41 285.9 341.46 284.55C341.78 285.07 342.07 285.6 342.34 286.14C344.51 290.51 345.61 294.75 345.61 298.74C345.61 307.59 343.44 315.24 339.16 321.47C334.88 327.66 329.48 332.26 323.1 335.16C316.82 338.03 309.94 339.48 302.67 339.48C291.09 339.48 281.58 335.83 274.4 328.65C267.21 321.47 263.56 311.77 263.56 299.82C263.56 287.87 267.37 278.35 274.89 270.25C282.44 262.12 294.92 257.99 311.97 257.99C327.43 257.99 339.63 261.58 348.25 268.66C356.76 275.66 363.35 284.92 367.83 296.18C372.21 307.12 376.28 319.31 379.92 332.44C384.56 346.38 389.38 358.28 394.24 367.83C397.28 373.79 401.35 378.89 406.35 382.99L407.62 384.03L407.17 385.61C406.25 388.81 405.54 392.1 405.04 395.39L404.48 399.08H404.47ZM314.85 272.11L330.45 274.98C339.04 276.56 345.79 280.35 350.53 286.25C355.06 291.92 358.88 299.64 361.88 309.2C364.59 317.86 367.99 328.49 372.26 341.7C376.89 356.33 382.59 368.9 389.2 379.09C392.12 383.6 396 387.55 400.75 390.88C401.09 389.17 401.48 387.48 401.93 385.8C396.97 381.45 392.88 376.18 389.79 370.1C384.81 360.32 379.89 348.16 375.17 333.96L375.13 333.84C371.53 320.87 367.52 308.83 363.2 298.04C359.03 287.57 352.93 278.99 345.08 272.53C337.39 266.21 326.25 263 311.98 263C296.37 263 285.13 266.59 278.56 273.66C271.93 280.8 268.57 289.61 268.57 299.83C268.57 310.05 271.64 318.82 277.95 325.12C284.25 331.43 292.34 334.49 302.68 334.49C309.23 334.49 315.41 333.19 321.04 330.61C326.59 328.09 331.3 324.06 335.05 318.63C338.74 313.25 340.62 306.55 340.62 298.73C340.62 295.52 339.7 292.03 337.87 288.36C336.12 284.85 333.07 281.91 328.82 279.62L314.86 272.1L314.85 272.11Z" fill="#FFAB4B"/>
<path d="M415.46 553.3V536.67H417.96C428.8 536.67 436.44 534.2 440.66 529.33C444.97 524.35 447.16 514.42 447.16 499.83V478.39L450.7 480.01C461.12 484.78 472.26 487.19 483.81 487.19C495.36 487.19 506.88 484.69 517.45 479.75L521.01 478.09V499.83C521.01 514.45 523.19 524.37 527.5 529.33C531.71 534.2 539.35 536.67 550.2 536.67H552.7V553.29L550.06 553.15C544.66 552.86 535.27 552.38 521.13 551.79C508.54 551.25 495.71 550.97 482.98 550.97C470.99 550.97 458.62 551.25 446.21 551.79C432 552.39 423.08 552.86 418.1 553.15L415.46 553.3ZM482.99 545.97C495.78 545.97 508.69 546.25 521.35 546.79C533.43 547.29 542.07 547.71 547.7 548.01V541.63C536.62 541.24 528.56 538.21 523.72 532.61C518.53 526.64 516.01 515.91 516.01 499.84V485.86C505.81 490.07 494.99 492.2 483.81 492.2C472.63 492.2 462.2 490.15 452.16 486.09V499.84C452.16 515.9 449.63 526.62 444.44 532.62C439.59 538.22 431.53 541.25 420.46 541.64V548.02C425.75 547.73 434 547.31 446 546.81C458.48 546.26 470.92 545.99 482.99 545.99V545.97Z" fill="#FFAB4B"/>
<path d="M521.01 336.86L517.45 335.2C506.87 330.27 495.55 327.77 483.81 327.77C472.07 327.77 461.11 330.19 450.7 334.95L447.16 336.57V319.5C447.16 304.93 444.81 295.02 440.18 290.06C435.59 285.15 427.38 282.65 415.78 282.65H413.28V266.02L415.92 266.17C422.61 266.55 432.71 267.01 445.93 267.54C459.4 268.09 472.61 268.37 485.18 268.37C497.75 268.37 510.57 268.09 523.31 267.54C535.73 267.01 545.47 266.55 552.25 266.17L554.89 266.02V282.64H552.39C540.78 282.64 532.57 285.13 527.99 290.04C523.36 295 521.01 304.9 521.01 319.49V336.84V336.86ZM483.81 322.78C494.99 322.78 505.8 324.91 516.01 329.11V319.51C516.01 303.4 518.73 292.65 524.33 286.65C529.53 281.07 538.12 278.06 549.89 277.69V271.31C543.29 271.66 534.44 272.07 523.52 272.54C510.71 273.09 497.81 273.37 485.18 273.37C472.55 273.37 459.27 273.09 445.73 272.54C434.12 272.07 424.91 271.66 418.28 271.31V277.69C430.04 278.06 438.63 281.07 443.84 286.65C449.44 292.66 452.16 303.4 452.16 319.51V328.89C462.2 324.83 472.83 322.78 483.81 322.78Z" fill="#FFAB4B"/>
<path d="M563.16 399.08L562.6 395.4C562.1 392.14 561.4 388.86 560.5 385.67L560.06 384.11L561.31 383.07C566.09 379.09 570.07 374.14 573.13 368.33C578.13 358.88 582.85 346.8 587.17 332.44C591.15 319.41 595.4 307.21 599.8 296.17C604.3 284.91 610.89 275.66 619.38 268.66C628.01 261.58 640.22 257.99 655.67 257.99C672.73 257.99 685.2 262.11 692.75 270.25C700.27 278.35 704.08 288.3 704.08 299.82C704.08 311.34 700.43 321.44 693.24 328.65C686.05 335.84 676.54 339.48 664.97 339.48C657.71 339.48 650.75 338.03 644.28 335.17C637.67 332.26 632.25 327.63 628.18 321.42C624.09 315.2 622.02 307.56 622.02 298.73C622.02 294.71 623.13 290.47 625.31 286.13C625.48 285.78 625.67 285.43 625.86 285.09C624.3 286.32 622.87 287.74 621.57 289.37C617.4 294.59 613.77 301.69 610.79 310.46C607.69 319.59 604.11 330.6 600.16 343.2C594.97 358.71 588.99 371.77 582.38 382.05C578.53 388.04 573.15 393.13 566.38 397.16L563.19 399.07L563.16 399.08ZM565.73 385.86C566.16 387.52 566.55 389.2 566.88 390.88C571.54 387.62 575.32 383.75 578.15 379.35C584.54 369.41 590.34 356.73 595.38 341.66C599.33 329.07 602.92 318.01 606.03 308.85C609.2 299.53 613.1 291.93 617.64 286.24C622.37 280.34 628.74 276.55 636.58 274.97L651.33 272L638.33 279.58C634.4 281.87 631.52 284.83 629.76 288.36C627.93 292.01 627 295.49 627 298.73C627 306.57 628.8 313.28 632.34 318.68C635.87 324.07 640.56 328.08 646.28 330.6C652.11 333.18 658.39 334.49 664.95 334.49C675.29 334.49 683.38 331.43 689.68 325.12C695.9 318.89 699.06 310.38 699.06 299.83C699.06 289.28 695.7 280.8 689.07 273.66C682.5 266.59 671.26 263 655.65 263C641.38 263 630.24 266.21 622.54 272.53C614.71 278.99 608.61 287.57 604.42 298.04C600.06 308.95 595.86 321.01 591.93 333.9C587.52 348.57 582.67 360.94 577.53 370.68C574.43 376.56 570.46 381.66 565.72 385.87L565.73 385.86Z" fill="#FFAB4B"/>
<path d="M675.34 556.97C655.94 556.97 640.56 552.95 629.61 545.02C618.62 537.07 610.4 523.56 605.17 504.88C602.64 495.85 599.24 484 595.07 469.66C591 455.7 584.82 443.59 576.69 433.67L576.61 433.57C572.83 428.47 568.53 424.33 563.81 421.26L562.47 420.39L562.7 418.81C563.23 415.11 563.5 411.3 563.5 407.49C563.5 404.94 563.38 402.34 563.13 399.78L562.86 396.99L565.67 397.05C572.85 397.2 579.96 397.67 586.8 398.46C599.62 399.96 611.47 403.25 622.02 408.25C632.71 413.3 641.94 421.01 649.46 431.15C656.52 441.16 662.16 453.36 666.25 467.46C670.22 481.14 675.14 494.83 680.89 508.15C684.76 516.95 688.93 523.8 693.28 528.48C697.4 532.93 704.13 535.7 713.3 536.7L715.53 536.95V552.79L713.44 553.14C706.97 554.22 700.4 555.15 693.92 555.9C687.39 556.63 681.14 557 675.33 557L675.34 556.97ZM580.59 430.54C589.13 440.98 595.62 453.67 599.87 468.26C604.05 482.62 607.45 494.49 609.99 503.54C614.91 521.11 622.5 533.7 632.55 540.98C642.62 548.28 657.02 551.98 675.34 551.98C680.96 551.98 687.02 551.62 693.36 550.92C699.06 550.26 704.83 549.46 710.54 548.54V541.39C701.25 540.04 694.22 536.85 689.62 531.88C684.9 526.79 680.42 519.48 676.32 510.15C670.48 496.63 665.48 482.74 661.46 468.86C657.52 455.3 652.12 443.6 645.42 434.08C638.43 424.65 629.83 417.47 619.89 412.77C609.83 408 598.51 404.86 586.24 403.42C580.43 402.75 574.42 402.32 568.34 402.12C568.45 403.92 568.51 405.71 568.51 407.5C568.51 411.02 568.29 414.54 567.86 417.98C572.54 421.25 576.82 425.48 580.59 430.57V430.54Z" fill="#FFAB4B"/>
<path d="M483.81 492.19C471.53 492.19 459.69 489.62 448.62 484.55C422.24 472.49 404.06 448.2 399.98 419.58C399.41 415.65 399.11 411.57 399.11 407.48C399.11 404.75 399.24 401.99 399.5 399.27C399.67 397.55 399.86 396.04 400.08 394.63C400.61 391.14 401.37 387.63 402.35 384.23C409.14 360.38 426 340.76 448.62 330.42C459.69 325.35 471.53 322.78 483.81 322.78C496.09 322.78 508.32 325.44 519.57 330.67C541.92 341.09 558.59 360.64 565.31 384.31C566.27 387.7 567.02 391.18 567.55 394.65C567.79 396.22 567.99 397.78 568.13 399.29C568.39 402 568.52 404.76 568.52 407.47C568.52 411.52 568.23 415.57 567.66 419.51C563.63 447.91 545.66 472.13 519.57 484.28C508.34 489.52 496.31 492.18 483.81 492.18V492.19ZM483.81 327.78C472.25 327.78 461.11 330.2 450.7 334.96C429.41 344.69 413.54 363.15 407.15 385.6C406.23 388.8 405.52 392.1 405.02 395.39C404.81 396.72 404.64 398.14 404.48 399.76C404.24 402.31 404.11 404.91 404.11 407.48C404.11 411.33 404.38 415.17 404.92 418.87C408.76 445.8 425.87 468.66 450.7 480.01C461.12 484.78 472.26 487.19 483.81 487.19C495.36 487.19 506.88 484.69 517.45 479.75C542 468.32 558.91 445.53 562.7 418.81C563.24 415.1 563.51 411.29 563.51 407.48C563.51 404.93 563.39 402.33 563.14 399.77C563.01 398.35 562.83 396.89 562.6 395.42C562.1 392.15 561.4 388.88 560.49 385.69C554.17 363.42 538.48 345.02 517.45 335.22C506.87 330.29 495.55 327.79 483.81 327.79V327.78Z" fill="#FFAB4B"/>
<path d="M715.55 76.3L712.78 76C712.69 76 712.61 76 712.52 75.98L710.29 75.74V44.8L713.01 45.1H715.49L715.55 47.6V76.31V76.3ZM373.63 14.64L376.9 10.24L377.53 9.1L378.89 8.92L483.03 0L483.72 0.06V5.04L373.63 14.65V14.64ZM593.05 14.56L586.95 14L536.45 9.59L536.88 4.61H536.91L589.52 9.12L590.33 10.34L593.05 14.56Z" fill="#FFAB4B"/>
<path d="M252.47 76.2V45.1501L254.92 45.1C256.4 45.07 257.86 45.03 259.3 44.98C294.64 43.99 322.26 40.7901 341.43 35.4701C357.58 30.9901 369.48 22.55 376.81 10.39L377.47 9.30005L381.77 8.93005L483.62 0.0500488H483.74L536.88 4.62005L589.69 9.24005L590.34 10.36C597.36 22.55 609.11 30.9901 625.28 35.4701C644.45 40.8 672.54 44 708.75 44.9901C710.05 45.0301 711.35 45.0601 712.66 45.0801L715.3 45.14V76.15L710.61 75.86C709.3 75.78 707.97 75.69 706.62 75.62C681.31 74.14 648.83 73.18 610.06 72.77C567.74 72.34 524.23 72.12 480.73 72.12C437.23 72.12 392.16 72.34 352.05 72.77C315.94 73.17 285.66 74.1 262.06 75.54C259.7 75.69 257.4 75.84 255.15 76L252.47 76.19V76.2ZM257.47 50.0401V70.84C258.87 70.75 260.3 70.65 261.74 70.56C285.43 69.11 315.79 68.17 351.98 67.78C392.11 67.35 435.43 67.13 480.72 67.13C526.01 67.13 567.77 67.35 610.1 67.78C648.95 68.19 681.52 69.15 706.9 70.63C708.04 70.7 709.17 70.77 710.28 70.84V50.03C709.71 50.0201 709.15 50 708.59 49.9901C671.97 48.9901 643.49 45.73 623.92 40.2901C606.94 35.59 594.4 26.74 586.65 13.99L535.49 9.53005L483.51 5.07005L380.41 14.07C372.36 26.78 359.7 35.6 342.76 40.3C323.21 45.73 295.18 48.9901 259.45 49.9901C258.79 50.0101 258.13 50.03 257.46 50.05L257.47 50.0401Z" fill="#FFAB4B"/>
<path d="M483.02 779.5L482.81 779.48L377.56 770.46L376.91 769.29L373.6 764.84L483.72 774.46V779.44L483.01 779.5H483.02ZM537.51 774.83L537.08 769.85L593.03 764.97L589.49 770.38L537.52 774.84L537.51 774.83Z" fill="#FFAB4B"/>
<path d="M483.52 779.46L483.3 779.44L377.46 770.2L376.8 769.11C369.48 756.95 357.57 748.51 341.42 744.03C322.3 738.72 294.75 735.52 259.56 734.52L252.46 734.34V703.31L255.13 703.49C257.48 703.65 259.9 703.81 262.39 703.97C285.85 705.4 316.01 706.33 352.03 706.72C392.24 707.15 435.53 707.37 480.71 707.37C525.89 707.37 567.63 707.15 610.04 706.72C648.96 706.31 681.51 705.35 706.78 703.86C708.86 703.74 710.89 703.61 712.87 703.48L715.53 703.3V734.34L713.08 734.39C711.71 734.42 710.34 734.45 709 734.49C672.67 735.47 644.49 738.68 625.24 744.02C609.05 748.5 597.3 756.95 590.3 769.14L589.65 770.27L537.49 774.82L483.49 779.45L483.52 779.46ZM380.42 765.44L483.52 774.44L537.08 769.85L586.66 765.52C594.4 752.76 606.93 743.91 623.93 739.21C643.57 733.76 672.15 730.49 708.88 729.5C709.43 729.48 709.99 729.47 710.55 729.46V708.65C709.41 708.72 708.25 708.79 707.08 708.86C681.74 710.35 649.11 711.31 610.1 711.72C567.67 712.15 524.14 712.37 480.71 712.37C437.28 712.37 392.2 712.15 351.97 711.72C315.87 711.32 285.62 710.39 262.07 708.96C260.5 708.86 258.96 708.76 257.45 708.66V729.47L259.69 729.53C295.3 730.54 323.24 733.8 342.75 739.22C359.69 743.92 372.35 752.74 380.4 765.45L380.42 765.44Z" fill="#FFAB4B"/>
<path d="M408.78 594.49C388.77 594.49 371.05 594.44 355.39 594.35C339.73 594.25 326.13 594.11 314.38 593.92C292.45 593.58 273.33 593.05 257.47 592.36C256.65 592.32 255.83 592.29 255.03 592.25C254.67 592.24 254.32 592.22 253.88 592.2L252.47 592.14V610.29L254.75 610.47C255.68 610.55 256.59 610.63 257.47 610.72C277.13 612.63 284.76 615.79 287.7 618.15C289.1 619.28 289.85 620.52 289.99 621.94C290.23 624.5 288.53 628 285.12 632.01C274.77 643.57 265.48 656.81 257.47 671.42C256.67 672.86 255.89 674.33 255.12 675.8C254.23 677.52 253.43 679.17 252.69 680.86L252.47 681.34V708.31L254.8 708.47C255.97 708.55 257.17 708.63 258.39 708.71C259.6 708.79 260.83 708.87 262.08 708.96H262.09L264.23 709.09L264.68 706.99C264.89 706.04 265.11 705.08 265.35 704.13C266.82 698.2 268.84 692.31 271.36 686.56C277.47 672.66 286.97 660.54 299.6 650.54L299.79 650.38C308.25 642.2 317.24 635.69 326.53 631.04C335.84 626.39 347.14 622.7 360.1 620.08C373.32 617.42 389.79 614.92 409.07 612.66L411.28 612.4V594.49H408.78ZM406.28 607.96C387.81 610.16 371.96 612.59 359.11 615.18C345.72 617.89 334 621.72 324.29 626.57C314.58 631.43 305.2 638.21 296.4 646.7C283.17 657.2 273.21 669.93 266.78 684.55C264.02 690.84 261.83 697.31 260.28 703.82C260.16 703.82 260.03 703.81 259.91 703.8C259.09 703.75 258.27 703.69 257.47 703.64V682.4C258.11 680.98 258.8 679.57 259.56 678.11C267.89 662.13 277.74 647.75 288.88 635.3C293.36 630.05 295.35 625.52 294.97 621.47C294.7 618.67 293.31 616.24 290.83 614.25C285.75 610.15 274.83 607.36 257.47 605.71C257.07 605.66 256.67 605.63 256.26 605.59V597.31C256.66 597.33 257.06 597.35 257.47 597.37C265.18 597.7 273.67 598 282.88 598.25C292.57 598.52 303.07 598.75 314.3 598.92C337.34 599.3 367.45 599.48 406.28 599.49V607.96ZM681.27 617.61C684.03 615.52 691.39 612.67 710.55 610.79C711.43 610.7 712.32 610.61 713.25 610.53L714.13 610.46C714.46 610.43 714.79 610.4 715.12 610.37L715.55 610.34V592.17L714.72 592.21C714.14 592.23 713.56 592.26 712.97 592.28H712.94C712.15 592.32 711.36 592.35 710.55 592.39C694.38 593.06 674.7 593.58 652.03 593.92C627.46 594.3 595.2 594.49 553.39 594.49H550.89V612.47L553.17 612.67C582.87 615.32 606.95 618.96 624.75 623.49C642.25 627.94 657.54 636.41 670.2 648.66L670.43 648.85C682.6 658.09 691.76 670.08 697.64 684.48C700.32 691.09 702.42 697.65 703.88 704.03C704.1 704.97 704.3 705.91 704.49 706.85L704.92 708.98L707.08 708.86C709.17 708.74 711.22 708.61 713.21 708.47L715.55 708.32V681.47L715.3 680.95C714.84 680 714.22 678.74 713.56 677.49C712.58 675.66 711.58 673.83 710.55 672.02C702.71 658.06 693.69 644.68 683.7 632.17C676.06 621.58 679.98 618.59 681.27 617.61ZM679.69 635.15L679.76 635.24C690.87 649.15 700.76 664.16 709.15 679.85C709.66 680.81 710.15 681.79 710.55 682.61V703.64C710.02 703.67 709.48 703.7 708.94 703.74C707.41 696.83 705.17 689.74 702.27 682.6C696.06 667.39 686.41 654.73 673.57 644.96C660.3 632.15 644.29 623.3 625.99 618.65C608.39 614.16 584.81 610.55 555.89 607.9V599.49C596.51 599.48 628.01 599.3 652.11 598.92C674.73 598.58 694.37 598.07 710.55 597.39C711.18 597.36 711.81 597.34 712.43 597.31V605.59C711.8 605.65 711.17 605.71 710.55 605.76C693.66 607.4 683.07 609.97 678.25 613.63C674.09 616.8 670.96 623.1 679.69 635.15Z" fill="#FFAB4B"/>
<path d="M409.6 167.06C390.33 164.8 373.85 162.3 360.64 159.64C347.67 157.02 336.37 153.33 327.06 148.69C317.77 144.03 308.78 137.52 300.32 129.34L300.13 129.18C287.5 119.17 278 107.06 271.89 93.17C268.96 86.49 266.71 79.61 265.19 72.64L264.82 70.23L262.53 70.37C261.09 70.47 259.66 70.56 258.26 70.65V20L253 20.42V98.36L253.2 98.82C253.29 99.04 253.39 99.27 253.48 99.45C254.16 100.97 254.87 102.43 255.65 103.93C264.18 120.27 274.27 135 285.61 147.66C289.06 151.72 290.76 155.22 290.52 157.78C290.38 159.2 289.63 160.44 288.22 161.57C285.18 164.02 277.06 167.34 255.6 169.23C255.49 169.23 255.38 169.24 255.31 169.25L253.26 169.43V187.58L255.88 187.46C256.66 187.42 257.46 187.39 258.26 187.35C273.85 186.67 292.89 186.14 314.91 185.8C338.36 185.42 369.24 185.23 409.31 185.23H411.81V167.32L409.6 167.06ZM406.81 180.23C367.92 180.24 337.81 180.42 314.83 180.8C292.88 181.14 273.86 181.66 258.26 182.34V174C275.46 172.34 286.29 169.54 291.35 165.47C293.84 163.48 295.23 161.05 295.5 158.25C295.88 154.2 293.89 149.67 289.37 144.37C278.27 131.97 268.42 117.59 260.09 101.62C259.35 100.21 258.68 98.83 258.02 97.35C258.01 97.34 258.01 97.32 258 97.31V75.68C258.9 75.62 259.8 75.56 260.71 75.5C262.27 82.14 264.49 88.75 267.31 95.18C273.73 109.79 283.7 122.52 296.93 133.02C305.73 141.51 315.11 148.28 324.82 153.16C334.53 158 346.25 161.83 359.64 164.54H359.65C372.49 167.13 388.35 169.56 406.81 171.76V180.23ZM714.23 169.22C714.23 169.22 714.13 169.21 714.08 169.21L713.83 169.19H713.8C712.96 169.12 712.14 169.04 711.34 168.96C691.97 167.07 684.58 164.21 681.8 162.11C680.51 161.13 676.59 158.14 684.23 147.55C694.34 134.89 703.45 121.35 711.34 107.22C712.28 105.57 713.19 103.9 714.08 102.23C714.75 100.99 715.37 99.73 715.83 98.77L716.08 98.25V70.96L711.7 70.69C711.49 70.68 711.29 70.66 711.08 70.65C709.97 70.58 708.84 70.51 707.7 70.44L705.41 70.31L705.08 72.58C705.06 72.66 705.05 72.75 705.02 72.87C703.56 80.13 701.25 87.65 698.17 95.24C692.29 109.64 683.13 121.63 670.96 130.87L670.73 131.06C658.07 143.31 642.78 151.78 625.28 156.23C607.48 160.76 583.4 164.4 553.7 167.05L551.42 167.25V185.23H553.92C595.79 185.23 628.05 185.42 652.56 185.8C675.31 186.14 695.05 186.66 711.34 187.35C712.01 187.37 712.68 187.4 713.34 187.43L713.92 187.45H716.34V169.46L714.23 169.22ZM711.34 182.34C695.11 181.66 675.38 181.14 652.64 180.8C628.59 180.42 597.1 180.24 556.42 180.23V171.82C585.34 169.17 608.92 165.56 626.52 161.07C644.82 156.42 660.83 147.57 674.1 134.76C686.94 124.99 696.59 112.33 702.8 97.12C705.76 89.83 708.04 82.59 709.56 75.57C710.07 75.6 710.58 75.63 711.08 75.66V97.11C710.68 97.93 710.19 98.91 709.68 99.87C701.29 115.56 691.41 130.56 680.29 144.48L680.22 144.57C671.5 156.62 674.62 162.92 678.78 166.09C683.63 169.77 694.29 172.35 711.34 173.98V182.34Z" fill="#FFAB4B"/>
<path d="M715.55 169.59V187.64H713.13L712.55 187.62L710.55 187.55V169.14L713.04 169.38L713.29 169.4C713.34 169.4 713.39 169.41 713.44 169.41C713.9 169.46 714.37 169.5 714.85 169.54L715.55 169.59Z" fill="#FFAB4B"/>
<path d="M257.47 169.41V187.65H254.97C254.9 187.66 254.81 187.66 254.71 187.66C254.41 187.67 254.07 187.69 253.72 187.7L252.47 187.76V169.62L254.52 169.44C254.59 169.43 254.7 169.42 254.81 169.42C254.86 169.41 254.92 169.41 254.97 169.41H257.47Z" fill="#FFAB4B"/>
<path d="M479.36 201.9L476.07 201.16C475.67 201.07 474.57 200.9 471.72 200.78C469.45 200.68 466.78 200.61 463.79 200.56C460.91 200.51 457.94 200.49 454.97 200.49H412.95V194.22L413.65 193.49C416.48 190.57 419.97 187.27 424.04 183.69C427.97 180.23 431.86 176.36 435.6 172.2C439.26 168.12 442.37 163.61 444.82 158.79C447.19 154.13 448.4 148.99 448.4 143.51C448.4 138.98 447.44 135.71 445.55 133.78C443.65 131.84 440.83 130.9 436.95 130.9C433.44 130.9 430.34 131.79 427.47 133.63C424.55 135.51 421.9 138.3 419.59 141.95L418.2 144.14L411.84 139.76L412.99 137.76C414.93 134.39 417.39 131.21 420.29 128.3C423.27 125.32 427.02 122.89 431.42 121.07C435.82 119.26 441.15 118.34 447.26 118.34C455.05 118.34 461.35 120.12 465.99 123.64C470.84 127.32 473.3 132.59 473.3 139.29C473.3 143.5 472.23 147.47 470.13 151.08C468.13 154.52 465.51 157.78 462.35 160.79C459.3 163.69 455.98 166.54 452.5 169.24C449.06 171.9 445.72 174.49 442.48 177.01C441.11 178.07 439.82 179.15 438.62 180.24H463.54C468.38 180.24 469.34 179.44 469.37 179.4C469.73 179.05 470.41 178.08 470.8 175.53L471.13 173.41H478.54V175.91C478.54 181.89 478.59 186.55 478.68 189.78C478.77 193.04 478.92 195.98 479.11 198.53L479.36 201.9ZM418.7 195.49H454.97C457.97 195.49 460.97 195.51 463.87 195.56C466.91 195.61 469.62 195.68 471.93 195.78C472.67 195.81 473.33 195.85 473.93 195.88C473.83 194.03 473.74 192.04 473.68 189.92C473.62 187.89 473.58 185.3 473.56 182.19C473.33 182.49 473.09 182.76 472.83 183.01C471.22 184.55 468.35 185.23 463.55 185.23H429.8C428.99 185.98 428.17 186.72 427.35 187.44C424.06 190.34 421.16 193.04 418.71 195.49H418.7ZM436.95 125.89C442.17 125.89 446.27 127.36 449.12 130.27C451.96 133.17 453.4 137.62 453.4 143.5C453.4 149.78 452.01 155.68 449.28 161.05C447.84 163.88 446.19 166.61 444.35 169.23C446.02 167.93 447.72 166.61 449.45 165.28C452.81 162.68 455.99 159.95 458.92 157.16C461.74 154.48 464.06 151.59 465.82 148.56C467.48 145.72 468.31 142.6 468.31 139.28C468.31 134.15 466.57 130.34 462.98 127.61C459.23 124.77 453.94 123.32 447.27 123.32C441.81 123.32 437.12 124.11 433.33 125.67C432.67 125.94 432.03 126.23 431.4 126.53C433.18 126.09 435.03 125.87 436.95 125.87V125.89Z" fill="#FFAB4B"/>
<path d="M487.51 222.43H485.01V214.77L487.41 214.67C491.82 214.48 496.33 213.69 500.8 212.31C505.22 210.94 509.33 208.91 513.01 206.27C516.62 203.68 519.56 200.45 521.74 196.66C523.88 192.95 524.96 188.6 524.96 183.74C524.96 178.6 523.75 174.36 521.38 171.13C519.21 168.18 516.32 166.53 512.57 166.09L509.14 167.46C506.19 168.64 503.23 168.72 501.44 167.33C500.78 166.82 500 165.87 499.85 164.24L499.98 162.4C500.31 161.1 501.14 160.03 502.42 159.32C503.67 158.63 505.1 158.28 506.69 158.28C507.54 158.28 508.44 158.33 509.37 158.44C509.91 158.5 510.47 158.57 511.07 158.63C514.39 156.13 516.78 153.43 518.18 150.59C519.7 147.51 520.47 144.39 520.47 141.31C520.47 137.62 519.58 134.94 517.81 133.36C515.94 131.69 513.45 130.88 510.18 130.88C506.73 130.88 503.61 131.74 500.63 133.51C497.68 135.26 495.18 137.96 493.18 141.52L491.99 143.65L485.18 140.04L486.31 137.84C488.05 134.47 490.25 131.28 492.85 128.38C495.54 125.37 498.98 122.92 503.06 121.08C507.15 119.25 512.09 118.32 517.74 118.32C522.57 118.32 526.95 119.06 530.77 120.52C534.7 122.03 537.86 124.21 540.16 127C542.56 129.92 543.78 133.46 543.78 137.53C543.78 141.6 542.45 145.7 539.81 149.32C537.29 152.78 533.83 155.8 529.52 158.3C528.46 158.92 527.35 159.5 526.2 160.04C527.96 160.4 529.66 160.85 531.3 161.39C536.55 163.13 540.84 165.86 544.03 169.53C547.33 173.32 549 178.1 549 183.74C549 188.65 547.7 193.23 545.13 197.34C542.65 201.31 539.29 204.91 535.14 208.04C531.06 211.11 526.31 213.76 520.99 215.92C515.72 218.05 510.16 219.69 504.46 220.78C498.76 221.87 493.05 222.42 487.5 222.42L487.51 222.43ZM521.66 164.38C523.06 165.41 524.31 166.68 525.41 168.17C528.43 172.28 529.97 177.52 529.97 183.75C529.97 189.5 528.66 194.68 526.08 199.16C523.54 203.57 520.12 207.33 515.93 210.33C513.47 212.09 510.85 213.61 508.09 214.87C511.88 213.93 515.58 212.73 519.13 211.29C524.04 209.3 528.42 206.86 532.15 204.05C535.81 201.3 538.75 198.15 540.9 194.7C542.99 191.35 544.01 187.76 544.01 183.74C544.01 179.28 542.79 175.71 540.27 172.81C537.68 169.83 534.14 167.58 529.75 166.13C527.23 165.3 524.53 164.71 521.67 164.36L521.66 164.38ZM510.18 125.89C514.67 125.89 518.36 127.15 521.15 129.65C524.02 132.22 525.47 136.15 525.47 141.32C525.47 145.18 524.53 149.04 522.67 152.81C521.9 154.36 520.92 155.87 519.72 157.33C522.36 156.38 524.8 155.26 527.02 153.98C530.72 151.84 533.66 149.29 535.77 146.39C537.79 143.61 538.78 140.71 538.78 137.54C538.78 134.62 537.97 132.22 536.3 130.19C534.55 128.07 532.09 126.39 528.98 125.19C525.74 123.95 521.96 123.32 517.74 123.32C512.79 123.32 508.54 124.1 505.1 125.64C503.91 126.18 502.78 126.77 501.73 127.43C504.41 126.4 507.24 125.87 510.18 125.87V125.89Z" fill="#FFAB4B"/>
<path fill-rule="evenodd" clip-rule="evenodd" d="M481.5 222.5V201H482.5V222.5H481.5Z" fill="#FFAB4B"/>
<path fill-rule="evenodd" clip-rule="evenodd" d="M485 222.5H482V221.5H485V222.5Z" fill="#FFAB4B"/>
<path fill-rule="evenodd" clip-rule="evenodd" d="M479 201H482V202H479V201Z" fill="#FFAB4B"/>
</g>
<path d="M965 303L758 303" stroke="#FFAB4B"/>
<path d="M426 70L2 70" stroke="#FFAB4B"/>
<path d="M407 208L2 208" stroke="#FFAB4B"/>
<circle cx="464.5" cy="207.5" r="57" stroke="#FFAB4B"/>
<circle cx="483.5" cy="69.5" r="57" stroke="#FFAB4B"/>
<circle cx="321" cy="636.5" r="94" stroke="#FFAB4B"/>
<circle cx="663.5" cy="302.5" r="94" stroke="#FFAB4B"/>
<path d="M227 637L0 637" stroke="#FFAB4B"/>
<defs>
<clipPath id="clip0_292_165">
<rect width="466.43" height="779.5" fill="white" transform="translate(251)"/>
</clipPath>
</defs>
</svg>
