<svg width="480" height="578" viewBox="0 0 480 578" fill="none" xmlns="http://www.w3.org/2000/svg">
<path d="M409.534 17.0088H409.509L409.509 63.4572H409.534L409.534 17.0088Z" fill="#FFAB4B"/>
<path d="M406.386 66.8243L406.386 13.6423H406.361L406.361 66.8243H406.386Z" fill="#FFAB4B"/>
<path d="M7.99465 48.4347C9.73836 48.4347 11.3373 47.6738 12.5585 46.4079H31.4372C33.3761 53.6331 39.029 58.8718 45.6765 58.8718C50.5362 58.8718 54.8672 56.0707 57.5992 51.7477H63.7809L63.7809 66.8242H71.423L71.423 80.4665H71.4545L71.423 82.5337C75.2441 81.6785 81.0103 80.4328 88.3377 78.9649C91.5293 102.809 94.2802 127.11 96.5401 151.587C96.8171 154.583 97.0878 157.58 97.3396 160.583L98.0887 162.125L101.123 168.414L110.597 188.029L102.621 187.632L99.4861 187.47C99.568 188.601 99.6498 189.726 99.7254 190.857C100.852 206.917 101.759 222.99 102.42 238.989C102.47 240.113 102.514 241.238 102.558 242.362L102.986 242.315L105.687 242.039L115.047 241.076L110.018 252.867L106.348 261.479L104.994 264.657L103.37 268.011C103.37 268.105 103.376 268.192 103.376 268.28C103.376 268.367 103.383 268.435 103.383 268.509C103.59 277.202 103.716 285.848 103.767 294.453C103.773 295.167 103.773 295.888 103.779 296.608C103.779 298.191 103.792 299.766 103.792 301.355L106.933 304.682L108.752 306.601L117.37 315.705L106.839 318.802L105.687 319.139L103.697 319.725C103.685 320.89 103.672 322.055 103.653 323.226C103.232 354.234 101.872 386.273 99.7316 417.968C99.675 418.783 99.8576 419.698 100.065 420.432C100.072 420.453 100.078 420.479 100.084 420.5L100.531 421.779C100.531 421.779 100.55 421.826 100.556 421.84C100.563 421.86 100.569 421.867 100.569 421.867L101.998 427.301L106.814 445.609L113.058 469.352L98.7748 465.46L95.9924 464.706C95.8854 465.837 95.7847 466.962 95.6714 468.086C94.6579 478.867 93.5563 489.519 92.3728 499.983C85.2469 498.724 78.5112 497.384 72.254 495.99L70.3592 495.566L70.3592 508.501H62.7171L62.7171 523.578H55.5848C52.8528 520.036 48.9436 517.814 44.6126 517.814C38.3869 517.814 33.0361 522.406 30.7888 528.917H11.4947C10.2734 527.658 8.6745 526.891 6.93079 526.891C3.10972 526.891 -5.42481e-06 530.567 -5.47107e-06 535.092C-5.51734e-06 539.617 3.10972 543.287 6.93079 543.287C8.6745 543.287 10.2734 542.526 11.4947 541.26H30.3734C32.3122 548.485 37.9651 553.724 44.6126 553.724C49.4724 553.724 53.8033 550.923 56.5354 546.6H62.7171L62.7171 561.683H70.3592L70.3592 575.325H70.3907L70.3592 577.393C89.8989 573.029 160.51 558.283 230 556.963C296.645 555.697 368.031 563.892 408.47 572.295L408.47 561.683H416.131L416.131 546.6H422.313C425.045 550.923 429.376 553.724 434.235 553.724C440.883 553.724 446.536 548.485 448.475 541.26H467.353C468.574 542.526 470.173 543.287 471.917 543.287C475.738 543.287 478.848 539.61 478.848 535.092C478.848 530.574 475.738 526.891 471.917 526.891C470.173 526.891 468.574 527.658 467.353 528.917H448.059C445.812 522.406 440.461 517.814 434.235 517.814C429.904 517.814 425.995 520.036 423.263 523.578H416.131L416.131 508.501H408.47L408.47 494.859L406.594 495.249C402.427 496.118 396.207 497.35 388.326 498.778C385.726 475.843 383.416 451.474 381.521 426.647C381.433 425.469 381.338 424.291 381.25 423.112L379.563 422.668L378.128 422.291L367.181 419.429L375.994 409.578L377.127 408.312L379.998 405.107C379.891 403.598 379.796 402.09 379.695 400.575C377.259 362.086 375.918 323.307 376.139 287.794C376.221 274.852 376.472 261.795 376.888 248.678C376.919 247.534 376.957 246.382 377.001 245.238L373.885 244.389L372.966 244.14L350.625 238.053L366.721 220.397L375.39 210.896L378.72 207.247C378.814 205.523 378.915 203.813 379.016 202.095C379.053 201.483 379.091 200.863 379.129 200.244C379.204 198.964 379.28 197.685 379.368 196.406L376.372 194.352L370.404 190.244L376.882 186.676L380.13 184.884C380.218 183.571 380.312 182.252 380.407 180.938C381.98 159.048 383.963 137.197 386.318 115.569C386.576 113.172 386.84 110.781 387.111 108.397L387.111 108.384L385.405 96.8291L385.38 96.654L385.38 96.6406L383.409 83.3619L386.834 84.7693L389.793 85.9813C389.931 84.8366 390.076 83.6919 390.227 82.5539C390.586 79.7056 390.957 76.864 391.335 74.0291C397.919 75.1469 404.013 76.2917 409.534 77.4364L409.534 66.8242H417.283L417.283 51.7679H423.465C426.197 56.0909 430.528 58.892 435.387 58.892C442.035 58.892 447.688 53.6533 449.627 46.4281C450.092 44.6976 450.344 42.8526 450.344 40.9335C450.344 38.5094 449.941 36.1998 449.211 34.0855C446.964 27.5741 441.613 22.9817 435.387 22.9817C431.056 22.9817 427.147 25.2038 424.415 28.7457H417.283L417.283 13.6422H409.534L409.534 0L407.658 0.390519C386.053 4.88183 309.481 19.413 231.058 17.9181C176.291 16.8811 114.374 10.2957 73.3178 1.13124L71.423 0.70702L71.423 13.6422H63.7809L63.7809 28.7255H56.6487C53.9167 25.1836 50.0075 22.9616 45.6765 22.9616C39.4508 22.9616 34.1 27.5539 31.8527 34.0652H12.5585C11.3373 32.8061 9.73836 32.0384 7.99465 32.0384C4.17358 32.0384 1.06385 35.715 1.06385 40.24C1.06385 44.765 4.17358 48.4347 7.99465 48.4347ZM10.0783 537.779C9.39843 539.065 8.24015 539.92 6.93079 539.92C4.84714 539.92 3.14749 537.752 3.14749 535.092C3.14749 532.432 4.84714 530.257 6.93079 530.257C8.24015 530.257 9.39843 531.112 10.0783 532.405C10.4875 533.173 10.7204 534.095 10.7204 535.092C10.7204 536.089 10.4875 537.004 10.0783 537.779ZM29.6557 537.893H13.4524C13.7231 537.018 13.8679 536.075 13.8679 535.092C13.8679 534.109 13.7231 533.16 13.4524 532.284H29.6557L29.6557 537.893ZM55.0749 542.533C53.0983 547.179 49.1513 550.357 44.6126 550.357C38.0973 550.357 32.8032 543.812 32.8032 535.765C32.8032 527.719 38.0973 521.18 44.6126 521.18C49.1513 521.18 53.0983 524.352 55.0749 528.998C55.9436 531.018 56.4284 533.328 56.4284 535.765C56.4284 538.203 55.9436 540.506 55.0749 542.533ZM62.7171 543.233H58.2224L58.2224 543.213C59.0911 540.944 59.5759 538.418 59.5759 535.765C59.5759 533.112 59.0911 530.587 58.2224 528.318L58.2224 526.944H62.7171L62.7171 543.233ZM70.3655 558.316H65.8646L65.8646 511.868H70.3655L70.3655 558.316ZM468.77 532.405C469.449 531.112 470.608 530.257 471.917 530.257C474.001 530.257 475.7 532.425 475.7 535.092C475.7 537.759 474.001 539.92 471.917 539.92C470.608 539.92 469.449 539.065 468.77 537.779C468.36 537.004 468.128 536.082 468.128 535.092C468.128 534.102 468.36 533.173 468.77 532.405ZM449.192 532.284H465.395C465.125 533.16 464.98 534.109 464.98 535.092C464.98 536.075 465.125 537.018 465.395 537.893H449.192L449.192 532.284ZM423.773 528.998C425.75 524.352 429.697 521.18 434.235 521.18C440.751 521.18 446.045 527.719 446.045 535.765C446.045 543.812 440.751 550.357 434.235 550.357C429.697 550.357 425.75 547.179 423.773 542.533C422.904 540.506 422.42 538.203 422.42 535.765C422.42 533.328 422.904 531.018 423.773 528.998ZM416.131 526.944H420.625L420.625 528.318C419.757 530.587 419.272 533.112 419.272 535.765C419.272 538.418 419.757 540.944 420.625 543.213L420.625 543.233H416.131L416.131 526.944ZM408.489 511.868H412.983L412.983 558.316H408.489L408.489 511.868ZM424.925 34.1663C426.902 29.5201 430.849 26.3485 435.387 26.3485C441.903 26.3485 447.197 32.8868 447.197 40.9335C447.197 48.9801 441.903 55.5252 435.387 55.5252C430.849 55.5252 426.902 52.347 424.925 47.7008C424.056 45.674 423.572 43.371 423.572 40.9335C423.572 38.4959 424.056 36.1863 424.925 34.1663ZM417.283 32.1125H421.777L421.777 33.4862C420.909 35.7554 420.424 38.2804 420.424 40.9335C420.424 43.5865 420.909 46.1117 421.777 48.3809L421.777 48.4011H417.283L417.283 32.1125ZM409.509 17.009H414.135L414.135 63.4574H409.509L409.509 17.009ZM405.322 498.939L405.322 568.107C355.982 558.208 287.524 552.505 229.944 553.596C163.45 554.855 96.6156 567.885 73.5067 572.894L73.5067 499.7C114.733 508.683 175.826 515.12 229.944 516.144C306.541 517.585 381.37 503.828 405.322 498.939ZM387.275 81.3418L379.45 78.13L383.976 108.694L383.976 108.714C381.212 133.157 378.921 157.93 377.159 182.73L364.115 189.921L376.132 198.183C375.969 200.708 375.818 203.24 375.673 205.765L344.563 239.878L373.765 247.83C373.337 261.23 373.073 274.556 372.991 287.767C372.765 324.263 374.225 364.214 376.831 403.773L361.138 421.314L378.399 425.826C380.331 451.131 382.698 475.971 385.348 499.316C351.72 505.282 291.427 513.942 230 512.777C184.651 511.915 134.404 507.249 95.1552 500.475C96.3261 490.098 97.4277 479.533 98.4538 468.847L117.559 474.052L102.697 417.53C104.919 385.653 106.36 353.453 106.795 322.304L123.457 317.408L106.933 299.948C106.933 298.103 106.933 296.258 106.914 294.427C106.864 286.043 106.738 277.606 106.543 269.142L120.172 237.164L105.542 238.666C104.881 222.821 103.981 206.91 102.86 191.012L115.897 191.665L100.361 159.499C97.9502 132.147 94.9286 104.957 91.3656 78.3656C122.198 72.2919 176.971 63.1342 231.058 62.1107C287.228 61.0401 346.76 66.6895 388.294 73.5241C387.942 76.1233 387.602 78.7292 387.275 81.3418ZM74.5705 4.84816C115.796 13.8308 176.889 20.2614 231.008 21.2849C307.605 22.7259 382.434 8.97588 406.386 4.08056L406.386 73.2548C357.046 63.3496 288.588 57.6463 231.008 58.7439C164.513 60.0031 97.6795 73.0259 74.5705 78.0357L74.5705 4.84816ZM66.9284 17.009H71.423L71.423 63.4574H66.9284L66.9284 17.009ZM59.2863 48.3607C60.155 46.0914 60.6397 43.5664 60.6397 40.9133C60.6397 38.2603 60.155 35.7352 59.2863 33.4659L59.2863 32.0923H63.7809L63.7809 48.3809H59.2863L59.2863 48.3607ZM45.6765 26.3283C50.2152 26.3283 54.1622 29.4999 56.1388 34.146C57.0075 36.1661 57.4922 38.4758 57.4922 40.9133C57.4922 43.3509 57.0075 45.6537 56.1388 47.6806C54.1622 52.3267 50.2152 55.505 45.6765 55.505C39.1612 55.505 33.8671 48.96 33.8671 40.9133C33.8671 32.8667 39.1612 26.3283 45.6765 26.3283ZM14.5163 37.432H30.7196L30.7196 43.0411H14.5163C14.7869 42.1657 14.9317 41.2231 14.9317 40.24C14.9317 39.2569 14.7869 38.3074 14.5163 37.432ZM7.99465 35.4052C9.30401 35.4052 10.4623 36.2604 11.1421 37.5533C11.5513 38.3209 11.7842 39.2434 11.7842 40.24C11.7842 41.2366 11.5513 42.1523 11.1421 42.9267C10.4623 44.2128 9.30401 45.0679 7.99465 45.0679C5.911 45.0679 4.21135 42.8998 4.21135 40.24C4.21135 37.5802 5.911 35.4052 7.99465 35.4052Z" fill="#FFAB4B"/>
<path d="M450.344 40.9332L450.344 37.452H466.548C466.277 38.3273 466.132 39.2767 466.132 40.2598C466.132 41.2429 466.277 42.1857 466.548 43.061H450.344L450.344 40.9332C450.344 42.8523 450.093 44.6973 449.627 46.4278H468.505C469.727 47.6937 471.326 48.4546 473.069 48.4546C476.89 48.4546 480 44.7781 480 40.2598C480 35.7416 476.89 32.0583 473.069 32.0583C471.326 32.0583 469.727 32.826 468.505 34.0852H449.211C449.941 36.1995 450.344 38.5091 450.344 40.9332ZM469.922 37.5731C470.602 36.2803 471.76 35.4251 473.069 35.4251C475.153 35.4251 476.853 37.5933 476.853 40.2598C476.853 42.9263 475.153 45.0878 473.069 45.0878C471.76 45.0878 470.602 44.2327 469.922 42.9466C469.513 42.1722 469.28 41.2497 469.28 40.2598C469.28 39.27 469.513 38.3408 469.922 37.5731Z" fill="#FFAB4B"/>
<path d="M70.3655 511.868H70.3593L70.3593 558.316H70.3655L70.3655 511.868Z" fill="#FFAB4B"/>
<path d="M73.513 561.683L73.513 508.501H73.5067L73.5067 561.683H73.513Z" fill="#FFAB4B"/>
<path d="M99.6435 419.24C99.6624 418.957 99.675 418.776 99.6813 418.668C99.6813 418.654 99.6876 418.634 99.6876 418.607C99.6876 418.607 99.6876 418.56 99.6876 418.54L99.6876 418.526C99.6939 418.419 99.7065 418.244 99.7253 417.968C99.6687 418.782 99.8512 419.698 100.059 420.432L99.6372 419.24H99.6435Z" fill="#FFAB4B"/>
<path d="M100.531 421.779L100.084 420.5C100.26 421.106 100.449 421.584 100.531 421.779Z" fill="#FFAB4B"/>
<path d="M382.837 202.803L382.799 202.769L382.824 202.741L382.837 202.803Z" fill="#FFAB4B"/>
<path d="M382.837 202.803L382.824 202.741L382.799 202.769L382.837 202.803Z" fill="#FFAB4B"/>
<path d="M382.837 202.803L382.824 202.741L382.799 202.769L382.837 202.803Z" fill="#FFAB4B"/>
</svg>
