<svg width="480" height="578" viewBox="0 0 480 578" fill="none" xmlns="http://www.w3.org/2000/svg">
<path d="M70.4915 513.935H70.4663L70.4663 560.383H70.4915L70.4915 513.935Z" fill="#FFAB4B"/>
<path d="M73.6137 510.568L73.6137 563.75H73.6389L73.6389 510.568H73.6137Z" fill="#FFAB4B"/>
<path d="M472.005 528.958C470.262 528.958 468.663 529.719 467.441 530.985H448.563C446.624 523.759 440.971 518.521 434.323 518.521C429.464 518.521 425.133 521.322 422.401 525.645H416.219L416.219 510.568H408.577L408.577 496.926H408.545L408.577 494.859C404.756 495.714 398.99 496.96 391.662 498.428C388.471 474.584 385.72 450.282 383.46 425.806C383.183 422.809 382.912 419.813 382.66 416.81L381.911 415.268L378.877 408.979L369.403 389.364L377.379 389.761L380.514 389.922C380.432 388.791 380.35 387.667 380.275 386.535C379.148 370.476 378.241 354.403 377.58 338.404C377.53 337.279 377.486 336.155 377.442 335.03L377.014 335.077L374.313 335.353L364.953 336.316L369.982 324.526L373.652 315.913L375.006 312.735L376.63 309.382C376.63 309.288 376.623 309.2 376.623 309.113C376.623 309.038 376.617 308.958 376.617 308.884C376.409 300.191 376.284 291.545 376.233 282.939C376.227 282.225 376.227 281.505 376.221 280.784C376.221 279.202 376.208 277.626 376.208 276.037L373.067 272.711L371.248 270.792L362.63 261.688L373.161 258.59L374.313 258.254L376.302 257.668C376.315 256.503 376.328 255.338 376.346 254.166C376.768 223.158 378.128 191.12 380.268 159.425C380.325 158.61 380.142 157.694 379.935 156.96C379.928 156.94 379.922 156.913 379.916 156.893L379.469 155.613C379.469 155.613 379.45 155.566 379.444 155.553C379.437 155.533 379.431 155.526 379.431 155.526L378.002 150.092L373.186 131.783L366.942 108.041L381.225 111.933L384.008 112.687C384.115 111.556 384.215 110.431 384.329 109.306C385.342 98.526 386.444 87.8734 387.627 77.4094C394.753 78.6686 401.489 80.0086 407.746 81.4025L409.641 81.8267L409.641 68.8914H417.283L417.283 53.8149H424.415C427.147 57.3568 431.056 59.5789 435.387 59.5789C441.613 59.5789 446.964 54.9866 449.211 48.4752H468.505C469.726 49.7343 471.325 50.502 473.069 50.502C476.89 50.502 480 46.8254 480 42.3005C480 37.7755 476.89 34.1057 473.069 34.1057C471.325 34.1057 469.726 34.8666 468.505 36.1325H449.627C447.688 28.9073 442.035 23.6686 435.387 23.6686C430.528 23.6686 426.197 26.4698 423.465 30.7927H417.283L417.283 15.7095H409.641L409.641 2.06721H409.609L409.641 0C390.101 4.36337 319.49 19.1099 250 20.4297C183.354 21.6957 111.969 13.5009 71.5301 5.09733L71.5301 15.7095H63.869L63.869 30.7927H57.6874C54.9553 26.4698 50.6244 23.6686 45.7646 23.6686C39.1171 23.6686 33.4642 28.9073 31.5253 36.1325H12.6466C11.4254 34.8666 9.82649 34.1057 8.08277 34.1057C4.26171 34.1057 1.15198 37.7822 1.15198 42.3005C1.15198 46.8187 4.26171 50.502 8.08277 50.502C9.82649 50.502 11.4254 49.7343 12.6466 48.4752H31.9408C34.1881 54.9866 39.5389 59.5789 45.7646 59.5789C50.0956 59.5789 54.0048 57.3568 56.7368 53.8149H63.869L63.869 68.8914H71.5301L71.5301 82.5337L73.406 82.1432C77.5733 81.2745 83.7927 80.0423 91.6741 78.6148C94.2739 101.549 96.5842 125.918 98.4789 150.745C98.5671 151.923 98.6615 153.102 98.7496 154.28L100.437 154.725L101.872 155.102L112.819 157.963L104.006 167.815L102.873 169.081L100.002 172.286C100.109 173.794 100.204 175.302 100.305 176.818C102.741 215.307 104.081 254.086 103.861 289.599C103.779 302.541 103.528 315.597 103.112 328.714C103.081 329.859 103.043 331.01 102.999 332.155L106.115 333.003L107.034 333.252L129.375 339.34L113.278 356.995L104.61 366.496L101.28 370.146C101.186 371.87 101.085 373.58 100.984 375.297C100.947 375.91 100.909 376.529 100.871 377.149C100.796 378.428 100.72 379.708 100.632 380.987L103.628 383.041L109.596 387.148L103.118 390.717L99.8701 392.508C99.782 393.821 99.6876 395.141 99.5932 396.454C98.0194 418.345 96.0365 440.195 93.6822 461.824C93.4241 464.221 93.1597 466.611 92.889 468.995L92.889 469.009L94.5949 480.563L94.6201 480.738L94.6201 480.752L96.5904 494.031L93.166 492.623L90.2073 491.411C90.0688 492.556 89.924 493.701 89.773 494.839C89.4141 497.687 89.0427 500.529 88.665 503.363C82.0805 502.246 75.9869 501.101 70.4662 499.956L70.4662 510.568H62.7171L62.7171 525.625H56.5354C53.8033 521.302 49.4724 518.5 44.6126 518.5C37.9651 518.5 32.3122 523.739 30.3734 530.964C29.9075 532.695 29.6557 534.54 29.6557 536.459C29.6557 538.883 30.0586 541.193 30.7888 543.307C33.0361 549.818 38.3869 554.411 44.6126 554.411C48.9436 554.411 52.8528 552.189 55.5848 548.647H62.7171L62.7171 563.75H70.4662L70.4662 577.393L72.3421 577.002C93.9466 572.511 170.519 557.98 248.942 559.474C303.708 560.511 365.626 567.097 406.682 576.261L408.577 576.685L408.577 563.75H416.219L416.219 548.667H423.351C426.083 552.209 429.992 554.431 434.323 554.431C440.549 554.431 445.9 549.839 448.147 543.327H467.441C468.663 544.586 470.262 545.354 472.005 545.354C475.826 545.354 478.936 541.677 478.936 537.153C478.936 532.628 475.826 528.958 472.005 528.958ZM469.922 39.6138C470.601 38.3276 471.76 37.4725 473.069 37.4725C475.153 37.4725 476.852 39.6407 476.852 42.3005C476.852 44.9602 475.153 47.1352 473.069 47.1352C471.76 47.1352 470.601 46.28 469.922 44.9872C469.512 44.2195 469.28 43.297 469.28 42.3005C469.28 41.3039 469.512 40.3881 469.922 39.6138ZM450.344 39.4993H466.548C466.277 40.3746 466.132 41.3174 466.132 42.3005C466.132 43.2836 466.277 44.233 466.548 45.1084H450.344L450.344 39.4993ZM424.925 34.8598C426.902 30.2137 430.849 27.0354 435.387 27.0354C441.903 27.0354 447.197 33.5805 447.197 41.6271C447.197 49.6737 441.903 56.2121 435.387 56.2121C430.849 56.2121 426.902 53.0406 424.925 48.3944C424.056 46.3743 423.572 44.0647 423.572 41.6271C423.572 39.1895 424.056 36.8866 424.925 34.8598ZM417.283 34.1595H421.777L421.777 34.1797C420.909 36.449 420.424 38.9741 420.424 41.6271C420.424 44.2801 420.909 46.8052 421.777 49.0745L421.777 50.4481H417.283L417.283 34.1595ZM409.634 19.0763H414.135L414.135 65.5246H409.634L409.634 19.0763ZM11.2303 44.9872C10.5504 46.28 9.39213 47.1352 8.08277 47.1352C5.99913 47.1352 4.29948 44.967 4.29948 42.3005C4.29948 39.634 5.99913 37.4725 8.08277 37.4725C9.39213 37.4725 10.5504 38.3276 11.2303 39.6138C11.6394 40.3881 11.8724 41.3106 11.8724 42.3005C11.8724 43.2903 11.6394 44.2195 11.2303 44.9872ZM30.8077 45.1084H14.6044C14.8751 44.233 15.0199 43.2836 15.0199 42.3005C15.0199 41.3174 14.8751 40.3746 14.6044 39.4993H30.8077L30.8077 45.1084ZM56.2269 48.3944C54.2503 53.0406 50.3033 56.2121 45.7646 56.2121C39.2493 56.2121 33.9552 49.6737 33.9552 41.6271C33.9552 33.5805 39.2493 27.0354 45.7646 27.0354C50.3033 27.0354 54.2503 30.2137 56.2269 34.8598C57.0956 36.8866 57.5803 39.1895 57.5803 41.6271C57.5803 44.0647 57.0956 46.3743 56.2269 48.3944ZM63.869 50.4481H59.3744L59.3744 49.0745C60.2431 46.8052 60.7278 44.2801 60.7278 41.6271C60.7278 38.9741 60.2431 36.449 59.3744 34.1797L59.3744 34.1595H63.869L63.869 50.4481ZM71.5112 65.5246H67.0165L67.0165 19.0763H71.5112L71.5112 65.5246ZM55.0749 543.226C53.0983 547.872 49.1513 551.044 44.6126 551.044C38.0973 551.044 32.8032 544.506 32.8032 536.459C32.8032 528.412 38.0973 521.867 44.6126 521.867C49.1513 521.867 53.0983 525.046 55.0749 529.692C55.9436 531.719 56.4284 534.021 56.4284 536.459C56.4284 538.897 55.9436 541.206 55.0749 543.226ZM62.7171 545.28H58.2224L58.2224 543.906C59.0911 541.637 59.5759 539.112 59.5759 536.459C59.5759 533.806 59.0911 531.281 58.2224 529.012L58.2224 528.991H62.7171L62.7171 545.28ZM70.4914 560.383H65.8646L65.8646 513.935H70.4914L70.4914 560.383ZM74.6776 78.4531L74.6776 9.28563C124.018 19.184 192.476 24.8874 250.056 23.7965C316.55 22.5374 383.384 9.50784 406.493 4.49804L406.493 77.6922C365.267 68.7096 304.174 62.2723 250.056 61.2488C173.459 59.8078 98.63 73.5646 74.6776 78.4531ZM92.7253 496.051L100.55 499.263L96.0239 468.699L96.0239 468.679C98.7874 444.236 101.079 419.463 102.841 394.663L115.885 387.471L103.867 379.209C104.031 376.684 104.182 374.152 104.327 371.627L135.437 337.515L106.234 329.562C106.662 316.163 106.927 302.837 107.009 289.625C107.235 253.129 105.775 213.179 103.169 173.619L118.862 156.078L101.601 151.567C99.6687 126.262 97.3018 101.421 94.6516 78.0761C128.279 72.1101 188.573 63.4507 250 64.6156C295.349 65.4775 345.595 70.1439 384.845 76.9179C383.674 87.2944 382.572 97.8594 381.546 108.546L362.441 103.341L377.303 159.862C375.081 191.739 373.64 223.939 373.205 255.089L356.542 259.984L373.067 277.444C373.067 279.289 373.067 281.134 373.086 282.966C373.136 291.349 373.262 299.786 373.457 308.251L359.828 340.228L374.458 338.727C375.119 354.571 376.019 370.483 377.14 386.381L364.103 385.727L379.639 417.894C382.05 445.246 385.071 472.436 388.634 499.027C357.801 505.101 303.029 514.258 248.942 515.282C192.772 516.352 133.24 510.703 91.7055 503.868C92.058 501.269 92.398 498.663 92.7253 496.051ZM405.429 572.544C364.203 563.562 303.11 557.131 248.992 556.108C172.395 554.667 97.5662 568.417 73.6137 573.312L73.6137 504.138C122.954 514.043 191.412 519.746 248.992 518.649C315.486 517.389 382.32 504.367 405.429 499.357L405.429 572.544ZM413.071 560.383H408.577L408.577 513.935H413.071L413.071 560.383ZM420.714 529.032C419.845 531.301 419.36 533.826 419.36 536.479C419.36 539.132 419.845 541.657 420.714 543.927L420.714 545.3H416.219L416.219 529.012H420.714L420.714 529.032ZM434.323 551.064C429.785 551.064 425.838 547.893 423.861 543.246C422.992 541.226 422.508 538.917 422.508 536.479C422.508 534.042 422.992 531.739 423.861 529.712C425.838 525.066 429.785 521.887 434.323 521.887C440.839 521.887 446.133 528.432 446.133 536.479C446.133 544.526 440.839 551.064 434.323 551.064ZM465.484 539.96H449.28L449.28 534.351H465.484C465.213 535.227 465.068 536.169 465.068 537.153C465.068 538.136 465.213 539.085 465.484 539.96ZM472.005 541.987C470.696 541.987 469.538 541.132 468.858 539.839C468.449 539.072 468.216 538.149 468.216 537.153C468.216 536.156 468.449 535.24 468.858 534.466C469.538 533.18 470.696 532.325 472.005 532.325C474.089 532.325 475.789 534.493 475.789 537.153C475.789 539.812 474.089 541.987 472.005 541.987Z" fill="#FFAB4B"/>
<path d="M29.6557 536.459L29.6557 539.94H13.4524C13.7231 539.065 13.8679 538.115 13.8679 537.132C13.8679 536.149 13.7231 535.206 13.4524 534.331H29.6557L29.6557 536.459C29.6557 534.54 29.9075 532.695 30.3734 530.964H11.4947C10.2734 529.698 8.67451 528.938 6.93079 528.938C3.10973 528.938 -3.75909e-08 532.614 -8.37879e-08 537.132C-1.29985e-07 541.651 3.10973 545.334 6.93079 545.334C8.67451 545.334 10.2734 544.566 11.4947 543.307H30.7888C30.0586 541.193 29.6557 538.883 29.6557 536.459ZM10.0783 539.819C9.39843 541.112 8.24015 541.967 6.93079 541.967C4.84715 541.967 3.1475 539.799 3.1475 537.132C3.1475 534.466 4.84715 532.304 6.93079 532.304C8.24015 532.304 9.39843 533.159 10.0783 534.446C10.4875 535.22 10.7204 536.142 10.7204 537.132C10.7204 538.122 10.4875 539.051 10.0783 539.819Z" fill="#FFAB4B"/>
<path d="M409.641 19.0762H409.634L409.634 65.5245H409.641L409.641 19.0762Z" fill="#FFAB4B"/>
<path d="M406.487 15.7095L406.487 68.8914H406.493L406.493 15.7095H406.487Z" fill="#FFAB4B"/>
<path d="M380.356 158.152C380.338 158.435 380.325 158.616 380.319 158.724C380.319 158.738 380.312 158.758 380.312 158.785C380.312 158.785 380.312 158.832 380.312 158.852L380.312 158.866C380.306 158.973 380.294 159.148 380.275 159.424C380.331 158.61 380.149 157.694 379.941 156.96L380.363 158.152H380.356Z" fill="#FFAB4B"/>
<path d="M379.469 155.613L379.916 156.893C379.74 156.287 379.551 155.809 379.469 155.613Z" fill="#FFAB4B"/>
<path d="M97.1633 374.59L97.2016 374.624L97.1761 374.651L97.1633 374.59Z" fill="#FFAB4B"/>
<path d="M97.1633 374.59L97.1761 374.651L97.2016 374.624L97.1633 374.59Z" fill="#FFAB4B"/>
<path d="M97.1633 374.59L97.1761 374.651L97.2016 374.624L97.1633 374.59Z" fill="#FFAB4B"/>
</svg>
