<svg width="611" height="504" viewBox="0 0 611 504" fill="none" xmlns="http://www.w3.org/2000/svg">
<path d="M26.1054 443.556C15.9943 451.574 14.2974 466.272 22.3154 476.383C30.3334 486.494 45.031 488.191 55.1421 480.173C62.5386 474.307 65.4333 464.871 63.3176 456.266C62.5381 453.107 61.0847 450.06 58.9321 447.346C56.9189 444.807 54.4811 442.796 51.8015 441.342C43.8191 436.992 33.6778 437.551 26.1054 443.556Z" stroke="#FFAB4B" stroke-width="4"/>
<path d="M137.57 340.692C124.154 351.331 120.655 369.844 128.431 384.433C129.408 386.267 130.565 388.037 131.905 389.726C133.244 391.415 134.704 392.945 136.267 394.314C148.699 405.219 167.522 406.031 180.943 395.388L137.57 340.692Z" stroke="#FFAB4B" stroke-width="4"/>
<path d="M85.6163 418.48C79.4696 423.354 72.7494 425.128 70.6084 422.429C72.7494 425.128 69.4952 431.264 63.3436 436.142C59.2377 439.398 54.8837 441.268 51.8015 441.342C54.4811 442.796 56.9189 444.807 58.9321 447.346C61.0847 450.06 62.5381 453.107 63.3176 456.266C63.9816 453.242 66.8441 449.271 71.0867 445.906C77.2383 441.028 83.9575 439.262 86.0946 441.957C83.9575 439.262 87.2127 433.119 93.3594 428.244C99.5061 423.37 106.23 421.6 108.367 424.295C106.23 421.6 109.481 415.46 115.632 410.582C121.784 405.704 128.503 403.938 130.64 406.633C128.7 404.187 131.195 398.909 136.267 394.314C134.704 392.945 133.24 391.41 131.905 389.726C130.569 388.042 129.408 386.267 128.431 384.433C122.801 388.325 117.093 389.551 115.154 387.105C117.295 389.804 114.041 395.94 107.889 400.818C101.737 405.696 95.0221 407.466 92.8811 404.767C95.0221 407.466 91.7679 413.602 85.6163 418.48Z" stroke="#FFAB4B" stroke-width="4"/>
<path d="M146.043 343.755L434.933 114.668L588.879 27.5883L469.007 157.636L180.116 386.724L179.348 393.376L159.371 368.184L139.39 342.987L146.043 343.755Z" stroke="#FFAB4B" stroke-width="4"/>
</svg>
