<svg width="423" height="250" viewBox="0 0 423 250" fill="none" xmlns="http://www.w3.org/2000/svg">
<g clip-path="url(#clip0_220_1501)">
<path d="M193.613 193.036L211.504 210.893L229.387 193.036L211.504 175.171L193.613 193.036ZM197.966 193.036L211.496 179.526L225.018 193.036L211.496 206.538L197.966 193.036Z" fill="#FFAB4B"/>
<path d="M421.459 98.2566C420.943 98.2566 420.427 98.2566 419.918 98.2258C396.442 97.418 377.596 78.0913 377.596 54.4485V52.9098H264.497L211.504 0L158.51 52.9098H45.412V54.4485C45.412 78.0913 26.5661 97.418 3.08191 98.2258C2.56569 98.2489 2.05718 98.2566 1.54096 98.2566H0V151.743H1.54096C25.734 151.743 45.412 171.393 45.412 195.551V197.09H158.51L211.504 250L264.497 197.09H377.596V195.551C377.596 171.393 397.274 151.743 421.459 151.743H423V98.2566H421.459ZM419.918 148.689C395.163 149.489 375.331 169.293 374.529 194.013H263.211L211.504 245.653L159.789 194.013H48.4708C47.6618 169.293 27.8297 149.489 3.08191 148.689V101.311C27.8297 100.511 47.6618 80.7072 48.4708 55.9873H159.789L211.504 4.34696L263.211 55.9873H374.529C375.331 80.7072 395.163 100.511 419.918 101.311V148.689Z" fill="#FFAB4B"/>
<path d="M193.613 56.9643L211.504 74.8292L229.387 56.9643L211.504 39.1072L193.613 56.9643ZM197.966 56.9643L211.496 43.4618L225.018 56.9643L211.496 70.4745L197.966 56.9643Z" fill="#FFAB4B"/>
</g>
<defs>
<clipPath id="clip0_220_1501">
<rect width="423" height="250" fill="white"/>
</clipPath>
</defs>
</svg>
