<svg width="828" height="501" viewBox="0 0 828 501" fill="none" xmlns="http://www.w3.org/2000/svg">
<path d="M222 501V443H208V501" stroke="#FFAB4B" stroke-width="3" stroke-miterlimit="10"/>
<path d="M401 501V443H387V501" stroke="#FFAB4B" stroke-width="3" stroke-miterlimit="10"/>
<path d="M442 501V443H428V501" stroke="#FFAB4B" stroke-width="3" stroke-miterlimit="10"/>
<path d="M620 501V443H606V501" stroke="#FFAB4B" stroke-width="3" stroke-miterlimit="10"/>
<path d="M771.067 2H56.9333C56.9333 32.3967 32.3335 57.0167 2 57.0167V378.658C32.3335 378.658 56.9333 403.295 56.9333 433.675C56.9333 436.546 56.7102 439.383 56.281 442.133H771.067C771.067 411.754 795.667 387.117 826 387.117V57.0167C795.667 57.0167 771.067 32.3967 771.067 2Z" stroke="#FFAB4B" stroke-width="3" stroke-miterlimit="10"/>
<path d="M798.533 77.6479V366.485C770.225 366.485 747.256 388.045 747.256 414.625H80.1252C80.52 412.218 80.7261 409.742 80.7261 407.232C80.7261 380.652 57.7742 359.093 29.4492 359.093V77.6479C57.757 77.6479 80.7261 56.1054 80.7261 29.5083H747.256C747.256 56.1054 770.208 77.6479 798.533 77.6479Z" stroke="#FFAB4B" stroke-width="3" stroke-miterlimit="10"/>
</svg>
