<svg width="548" height="378" viewBox="0 0 548 378" fill="none" xmlns="http://www.w3.org/2000/svg">
<path d="M251.5 304.19L274.01 326.69L296.51 304.19L274.01 281.68L251.5 304.19ZM274.01 322.45L255.74 304.19L274.01 285.92L292.27 304.19L274.01 322.45Z" fill="#FFAB4B"/>
<path d="M546.51 127.51C514.84 127.51 489.08 101.74 489.08 70.07V68.57H342.58L274.01 0L205.44 68.57H58.94V70.07C58.94 101.74 33.17 127.51 1.5 127.51H0V250.02H1.5C33.17 250.02 58.94 275.79 58.94 307.46V308.96H205.44L274.01 377.53L342.58 308.96H489.08V307.46C489.08 275.79 514.84 250.02 546.51 250.02H548.01V127.51H546.51ZM545.01 247.04C512.88 247.83 486.88 273.83 486.09 305.96H341.33L274.01 373.29L206.68 305.96H61.92C61.13 273.83 35.14 247.83 3 247.04V130.49C35.14 129.7 61.13 103.7 61.92 71.57H206.68L274.01 4.24L341.33 71.57H486.09C486.88 103.7 512.88 129.7 545.01 130.49V247.04Z" fill="#FFAB4B"/>
<path d="M251.5 73.3398L274.01 95.8498L296.51 73.3398L274.01 50.8398L251.5 73.3398ZM274.01 91.6098L255.74 73.3398L274.01 55.0798L292.27 73.3398L274.01 91.6098Z" fill="#FFAB4B"/>
</svg>
