<svg width="562" height="531" viewBox="0 0 562 531" fill="none" xmlns="http://www.w3.org/2000/svg">
<g clip-path="url(#clip0_236_1821)">
<path d="M280.59 530.49L210.21 460.18H60.15V457.68C60.15 425.92 34.29 400.09 2.5 400.09H0V130.4H2.5C34.29 130.4 60.15 104.56 60.15 72.81V70.31H210.22L280.6 0L350.98 70.31H501.05V72.81C501.05 104.25 525.07 129.07 556.19 130.35L561.19 130.53V135.4V400.07H558.69C526.9 400.07 501.04 425.91 501.04 457.66V460.16H350.97L280.59 530.47V530.49ZM65.1 455.18H212.28L280.59 523.43L348.9 455.18H496.09C497.37 422.65 523.63 396.42 556.19 395.13V135.36C523.1 134.11 497.34 108.37 496.1 75.31H348.91L280.6 7.07L212.29 75.31H65.1C63.82 107.84 37.56 134.07 5 135.35V395.13C37.56 396.41 63.82 422.64 65.1 455.18Z" fill="#FFAB4B"/>
<path d="M280.993 52.4544L260.188 73.2394L280.993 94.0243L301.797 73.2394L280.993 52.4544Z" stroke="#FFAB4B" stroke-width="5" stroke-miterlimit="10"/>
<path d="M280.998 433.292L260.193 454.077L280.998 474.862L301.802 454.077L280.998 433.292Z" stroke="#FFAB4B" stroke-width="5" stroke-miterlimit="10"/>
</g>
<defs>
<clipPath id="clip0_236_1821">
<rect width="561.19" height="530.49" fill="white"/>
</clipPath>
</defs>
</svg>
